<svg width="17" height="14" viewBox="0 0 17 14" fill="none" xmlns="http://www.w3.org/2000/svg">
<path d="M17 13C17 13.4144 16.683 13.75 16.2917 13.75H0.708333C0.316979 13.75 0 13.4144 0 13V1C0 0.585625 0.316979 0.25 0.708333 0.25H16.2917C16.683 0.25 17 0.585625 17 1V13Z" fill="#EF2B2D"/>
<path d="M3.54167 4.75H0V5.5H4.25V4.75V0.25H3.54167V4.75Z" fill="white"/>
<path d="M0 9.25H3.54167V13.75H4.25V9.25V8.5H0V9.25Z" fill="white"/>
<path d="M7.79159 4.75V0.25H7.08325V4.75V5.5H16.9999V4.75H7.79159Z" fill="white"/>
<path d="M7.08325 9.25V13.75H7.79159V9.25H16.9999V8.5H7.08325V9.25Z" fill="white"/>
<path d="M17 5.5H7.08333V0.25H4.25V5.5H0V8.5H4.25V13.75H7.08333V8.5H17V5.5Z" fill="#003680"/>
</svg>
