<svg width="17" height="14" viewBox="0 0 17 14" fill="none" xmlns="http://www.w3.org/2000/svg">
<path d="M16.2917 0H0.708333C0.520472 0 0.340304 0.0790176 0.207466 0.21967C0.0746278 0.360322 0 0.551088 0 0.75L0 12.75C0 12.9489 0.0746278 13.1397 0.207466 13.2803C0.340304 13.421 0.520472 13.5 0.708333 13.5H16.2917C16.4795 13.5 16.6597 13.421 16.7925 13.2803C16.9254 13.1397 17 12.9489 17 12.75V0.75C17 0.551088 16.9254 0.360322 16.7925 0.21967C16.6597 0.0790176 16.4795 0 16.2917 0Z" fill="#002781"/>
<path d="M17 0.75C17 0.551088 16.9254 0.360322 16.7925 0.21967C16.6597 0.0790176 16.4795 0 16.2917 0H14.4638L9.91667 3.7035V0H7.08333V3.7035L2.53619 0H0.708333C0.520472 0 0.340304 0.0790176 0.207466 0.21967C0.0746278 0.360322 0 0.551088 0 0.75L0 1.71975L4.33465 5.25H0V8.25H4.33465L0 11.7806V12.75C0 12.9489 0.0746278 13.1397 0.207466 13.2803C0.340304 13.421 0.520472 13.5 0.708333 13.5H2.53619L7.08333 9.7965V13.5H9.91667V9.7965L14.4638 13.5H16.2917C16.4795 13.5 16.6597 13.421 16.7925 13.2803C16.9254 13.1397 17 12.9489 17 12.75V11.7806L12.6654 8.25H17V5.25H12.6654L17 1.71975V0.75Z" fill="#E6E6E6"/>
<path d="M17 6H9.20833V0H7.79167V6H0V7.5H7.79167V13.5H9.20833V7.5H17V6Z" fill="#D10D24"/>
<path d="M7.08334 8.14613L0.560303 13.4831C0.608974 13.4941 0.658581 13.4998 0.708344 13.5H1.55339L7.08334 8.97563V8.14613Z" fill="#D10D24"/>
<path d="M9.91675 5.35388L16.4398 0.016875C16.3911 0.00591388 16.3415 0.000259354 16.2917 0H15.4467L9.91675 4.52475V5.35388Z" fill="#D10D24"/>
<path d="M6.37712 5.25L0.217812 0.210747C0.148976 0.280382 0.0941843 0.364069 0.0567478 0.456753C0.0193113 0.549436 6.67373e-06 0.649193 0 0.749997L0 0.862497L5.3635 5.25H6.37712Z" fill="#D10D24"/>
<path d="M10.6228 8.25L16.7821 13.2893C16.851 13.2196 16.9058 13.1359 16.9432 13.0432C16.9806 12.9506 16.9999 12.8508 16.9999 12.75V12.6375L11.6364 8.25H10.6228Z" fill="#D10D24"/>
</svg>
