<?xml version="1.0" encoding="utf-8"?>
<!-- Generator: Adobe Illustrator 24.1.2, SVG Export Plug-In . SVG Version: 6.00 Build 0)  -->
<svg version="1.1" id="_x32__linjer" xmlns="http://www.w3.org/2000/svg" xmlns:xlink="http://www.w3.org/1999/xlink" x="0px"
	 y="0px" viewBox="0 0 510.2 73.7" style="enable-background:new 0 0 510.2 73.7;" xml:space="preserve" width="263.06" height="38">
<style type="text/css">
	.st0{fill:#012A4C;}
	.st1{fill:#009FE3;}
	.st2{fill:#A6DDF5;}
	.st3{fill:#FFFFFF;}
</style>
<g>
	<g>
		<path class="st0" d="M141.4,2.4h-5.5v21.8h5.6c1.6,0,3.1-0.3,4.4-0.7c1.3-0.5,2.3-1.2,3.2-2.2c0.9-0.9,1.5-2.1,2-3.5
			c0.4-1.4,0.7-2.9,0.7-4.6c0-3.5-0.9-6.2-2.6-8C147.4,3.3,144.8,2.4,141.4,2.4z M148.7,13.2c0,2.7-0.6,4.8-1.9,6.3
			c-1.2,1.5-3.1,2.2-5.6,2.2h-2.4v-17h2.4c2.5,0,4.4,0.7,5.6,2.1C148.1,8.4,148.7,10.5,148.7,13.2z"/>
		<rect x="156" y="8" class="st0" width="2.9" height="16.2"/>
		<path class="st0" d="M157.5,4.9c0.6,0,1-0.2,1.4-0.5s0.6-0.8,0.6-1.3c0-0.6-0.2-1-0.6-1.3s-0.9-0.5-1.4-0.5s-1,0.2-1.4,0.5
			s-0.6,0.8-0.6,1.3s0.2,1,0.6,1.3C156.4,4.7,156.9,4.9,157.5,4.9z"/>
		<path class="st0" d="M171.3,7.6c-0.9,0-1.8,0.3-2.6,0.9c-0.8,0.6-1.4,1.3-1.9,2.3l-0.2-2.7V8h-2.4v16.2h2.9V13.8
			c0.5-1.3,1.2-2.3,1.9-2.8s1.4-0.8,2.1-0.8c0.3,0,0.6,0,0.8,0.1c0.2,0,0.5,0.1,0.7,0.2h0.1l0.6-2.6h-0.1
			C172.6,7.7,172,7.6,171.3,7.6z"/>
		<path class="st0" d="M178.7,24c0.9,0.4,2,0.6,3.1,0.6s2.1-0.2,3-0.5s1.7-0.7,2.4-1.2h0.1l-1.1-2l-0.1,0.1
			c-0.6,0.4-1.2,0.7-1.8,0.9c-0.6,0.2-1.3,0.3-2.1,0.3c-1.5,0-2.7-0.5-3.7-1.5c-0.9-1-1.4-2.3-1.6-3.9h10.8v-0.1
			c0-0.2,0.1-0.4,0.1-0.7c0-0.3,0-0.6,0-0.8c0-1.1-0.1-2.2-0.4-3.1s-0.7-1.7-1.3-2.4c-0.5-0.7-1.2-1.2-2-1.5
			c-0.8-0.4-1.7-0.5-2.8-0.5c-0.9,0-1.8,0.2-2.7,0.6c-0.9,0.4-1.7,1-2.3,1.7c-0.7,0.7-1.2,1.6-1.6,2.7s-0.6,2.3-0.6,3.6
			c0,1.3,0.2,2.5,0.6,3.6c0.4,1,1,1.9,1.7,2.7C177,23.1,177.8,23.6,178.7,24z M176.9,14.7c0.1-0.7,0.3-1.4,0.5-2
			c0.3-0.6,0.6-1.1,1-1.5s0.9-0.7,1.4-1c0.5-0.2,1-0.3,1.6-0.3c1.2,0,2.2,0.4,2.8,1.2c0.7,0.8,1,2,1,3.5h-8.3V14.7z"/>
		<polygon class="st0" points="202,24.2 205.2,24.2 199,14.5 204.4,8.2 204.5,8 201.2,8 194.4,16.4 194.4,0.5 191.6,0.5 191.6,24.2
			194.4,24.2 194.4,19.9 197.3,16.6 		"/>
		<path class="st0" d="M207.7,19.2c0,0.8,0.1,1.5,0.2,2.2c0.2,0.7,0.4,1.3,0.8,1.7c0.4,0.5,0.9,0.8,1.5,1.1c0.6,0.3,1.3,0.4,2.2,0.4
			c0.5,0,1-0.1,1.6-0.2c0.5-0.1,1-0.3,1.4-0.4h0.1l-0.6-2.2h-0.1c-0.3,0.1-0.6,0.2-0.9,0.3c-0.3,0.1-0.6,0.1-0.9,0.1
			c-0.9,0-1.5-0.3-1.8-0.8s-0.5-1.3-0.5-2.2v-8.8h4.3V8h-4.4V3.5h-2.5L207.8,8l-2.5,0.2v2.2h2.4V19.2z"/>
		<path class="st0" d="M231.2,19.7c0.4-1.1,0.6-2.3,0.6-3.6c0-1.3-0.2-2.6-0.6-3.6c-0.4-1.1-1-2-1.7-2.7s-1.5-1.3-2.4-1.7
			c-0.9-0.4-1.9-0.6-2.9-0.6s-2,0.2-2.9,0.6s-1.7,0.9-2.4,1.7c-0.7,0.7-1.2,1.6-1.7,2.7c-0.4,1.1-0.6,2.3-0.6,3.6
			c0,1.3,0.2,2.5,0.6,3.6s1,2,1.7,2.7s1.5,1.3,2.4,1.7c0.9,0.4,1.9,0.6,2.9,0.6s2-0.2,2.9-0.6s1.7-0.9,2.4-1.7
			C230.2,21.7,230.7,20.8,231.2,19.7z M228.8,16.1c0,0.9-0.1,1.7-0.3,2.5c-0.2,0.7-0.5,1.4-0.9,1.9s-0.9,0.9-1.4,1.2
			c-0.6,0.3-1.2,0.4-1.8,0.4c-0.7,0-1.3-0.1-1.8-0.4c-0.6-0.3-1-0.7-1.4-1.2s-0.7-1.2-0.9-1.9c-0.2-0.7-0.3-1.6-0.3-2.5
			s0.1-1.8,0.3-2.5c0.2-0.7,0.5-1.4,0.9-1.9s0.9-1,1.4-1.2c0.6-0.3,1.2-0.4,1.8-0.4c0.7,0,1.3,0.1,1.8,0.4c0.6,0.3,1,0.7,1.4,1.2
			s0.7,1.2,0.9,1.9C228.7,14.4,228.8,15.2,228.8,16.1z"/>
		<path class="st0" d="M243,7.6c-0.9,0-1.8,0.3-2.6,0.9c-0.8,0.6-1.4,1.3-1.9,2.3l-0.2-2.7V8h-2.4v16.2h2.9V13.8
			c0.5-1.3,1.2-2.3,1.9-2.8s1.4-0.8,2.1-0.8c0.3,0,0.6,0,0.8,0.1c0.2,0,0.5,0.1,0.7,0.2h0.1l0.6-2.6h-0.1
			C244.3,7.7,243.7,7.6,243,7.6z"/>
		<path class="st0" d="M245.5,20c0,1.5,0.5,2.6,1.4,3.4s2.1,1.2,3.4,1.2c1,0,2-0.2,2.9-0.7c0.9-0.4,1.7-1,2.4-1.6l0.2,1.9h2.4v-9.9
			c0-2-0.5-3.6-1.3-4.9c-0.9-1.2-2.4-1.8-4.3-1.8c-1.3,0-2.5,0.2-3.6,0.7s-2,0.9-2.8,1.4l-0.1,0.1l1.2,2.1l0.1-0.1
			c0.6-0.4,1.4-0.8,2.2-1.2c0.8-0.3,1.7-0.5,2.6-0.5c0.6,0,1.2,0.1,1.6,0.3c0.4,0.2,0.7,0.5,1,0.9c0.2,0.4,0.4,0.8,0.5,1.3
			c0.1,0.4,0.1,0.9,0.1,1.4c-3.4,0.4-5.9,1-7.4,2C246.3,16.8,245.5,18.2,245.5,20z M248.7,18.4c0.2-0.4,0.6-0.8,1.2-1.1
			c0.6-0.3,1.3-0.6,2.2-0.8c0.9-0.2,2-0.4,3.3-0.6v4.3c-0.7,0.7-1.5,1.2-2.1,1.6c-0.7,0.4-1.4,0.5-2.1,0.5c-0.8,0-1.4-0.2-2-0.6
			c-0.5-0.4-0.8-1-0.8-1.9C248.3,19.3,248.4,18.8,248.7,18.4z"/>
		<path class="st0" d="M267.8,24.6c0.5,0,1-0.1,1.6-0.2c0.5-0.1,1-0.3,1.4-0.4h0.1l-0.6-2.2h-0.1c-0.3,0.1-0.6,0.2-0.9,0.3
			c-0.3,0.1-0.6,0.1-0.9,0.1c-0.9,0-1.5-0.3-1.8-0.8s-0.5-1.3-0.5-2.2v-8.8h4.3V8h-4.3V3.5h-2.5L263.3,8l-2.5,0.2v2.2h2.4v8.8
			c0,0.8,0.1,1.5,0.2,2.2c0.2,0.7,0.4,1.3,0.8,1.7c0.4,0.5,0.9,0.8,1.5,1.1C266.2,24.5,266.9,24.6,267.8,24.6z"/>
		<path class="st0" d="M274.4,22.4c0.7,0.7,1.5,1.3,2.5,1.7c0.9,0.4,2,0.6,3.1,0.6s2.1-0.2,3-0.5s1.7-0.7,2.4-1.2h0.1l-1.1-2
			l-0.1,0.1c-0.6,0.4-1.2,0.7-1.8,0.9c-0.6,0.2-1.3,0.3-2.1,0.3c-1.5,0-2.7-0.5-3.7-1.5c-0.9-1-1.4-2.3-1.6-3.9h10.8v-0.1
			c0-0.2,0.1-0.4,0.1-0.7c0-0.3,0-0.6,0-0.8c0-1.1-0.1-2.2-0.4-3.1s-0.7-1.7-1.3-2.4c-0.5-0.7-1.2-1.2-2-1.5
			c-0.8-0.4-1.7-0.5-2.8-0.5c-0.9,0-1.8,0.2-2.7,0.6c-0.9,0.4-1.7,1-2.3,1.7c-0.7,0.7-1.2,1.6-1.6,2.7s-0.6,2.3-0.6,3.6
			c0,1.3,0.2,2.5,0.6,3.6C273.1,20.7,273.7,21.6,274.4,22.4z M275,14.7c0.1-0.7,0.3-1.4,0.5-2c0.3-0.6,0.6-1.1,1-1.5s0.9-0.7,1.4-1
			c0.5-0.2,1-0.3,1.6-0.3c1.2,0,2.2,0.4,2.8,1.2c0.7,0.8,1,2,1,3.5H275V14.7z"/>
		<path class="st0" d="M296.9,21.8c-0.3,0.1-0.6,0.2-0.9,0.3c-0.3,0.1-0.6,0.1-0.9,0.1c-0.9,0-1.5-0.3-1.8-0.8s-0.5-1.3-0.5-2.2
			v-8.8h4.3V8h-4.3V3.5h-2.5L290,8l-2.5,0.2v2.2h2.4v8.8c0,0.8,0.1,1.5,0.2,2.2c0.2,0.7,0.4,1.3,0.8,1.7c0.4,0.5,0.9,0.8,1.5,1.1
			c0.6,0.3,1.3,0.4,2.2,0.4c0.5,0,1-0.1,1.6-0.2c0.5-0.1,1-0.3,1.4-0.4h0.1l-0.6-2.2L296.9,21.8z"/>
		<path class="st0" d="M314.2,8h-3.4V5.5c0-2,0.7-3,2.1-3c0.6,0,1.2,0.1,1.8,0.4h0.1l0.6-2.2V0.6h-0.1c-0.4-0.2-0.8-0.3-1.3-0.4
			S313.1,0,312.5,0c-1.6,0-2.8,0.5-3.6,1.5c-0.8,1-1.2,2.3-1.2,4v2.4l-2.2,0.2v2.2h2.2v13.8h2.9V10.4h3.4V8H314.2z"/>
		<path class="st0" d="M317.8,22.4c0.7,0.7,1.5,1.3,2.4,1.7c0.9,0.4,1.9,0.6,2.9,0.6s2-0.2,2.9-0.6s1.7-0.9,2.4-1.7
			c0.7-0.7,1.2-1.6,1.7-2.7c0.4-1.1,0.6-2.3,0.6-3.6c0-1.3-0.2-2.6-0.6-3.6c-0.4-1.1-1-2-1.7-2.7s-1.5-1.3-2.4-1.7
			c-0.9-0.4-1.9-0.6-2.9-0.6s-2,0.2-2.9,0.6s-1.7,0.9-2.4,1.7c-0.7,0.7-1.2,1.6-1.7,2.7c-0.4,1.1-0.6,2.3-0.6,3.6
			c0,1.3,0.2,2.5,0.6,3.6S317.1,21.7,317.8,22.4z M318.5,16.1c0-0.9,0.1-1.8,0.3-2.5c0.2-0.7,0.5-1.4,0.9-1.9s0.9-1,1.4-1.2
			c0.6-0.3,1.2-0.4,1.8-0.4c0.7,0,1.3,0.1,1.8,0.4c0.6,0.3,1,0.7,1.4,1.2s0.7,1.2,0.9,1.9c0.2,0.7,0.3,1.6,0.3,2.5s-0.1,1.7-0.3,2.5
			c-0.2,0.7-0.5,1.4-0.9,1.9s-0.9,0.9-1.4,1.2c-0.6,0.3-1.2,0.4-1.8,0.4c-0.7,0-1.3-0.1-1.8-0.4c-0.6-0.3-1-0.7-1.4-1.2
			s-0.7-1.2-0.9-1.9C318.6,17.9,318.5,17.1,318.5,16.1z"/>
		<path class="st0" d="M342,10.3c0.2,0,0.5,0.1,0.7,0.2h0.1l0.6-2.6h-0.1c-0.5-0.2-1.1-0.3-1.8-0.3c-0.9,0-1.8,0.3-2.6,0.9
			c-0.8,0.6-1.4,1.3-1.9,2.3l-0.2-2.7V8h-2.4v16.2h2.9V13.8c0.5-1.3,1.2-2.3,1.9-2.8s1.4-0.8,2.1-0.8
			C341.5,10.2,341.8,10.3,342,10.3z"/>
		<path class="st0" d="M355.7,5.5c0-2,0.7-3,2.1-3c0.6,0,1.2,0.1,1.8,0.4h0.1l0.6-2.2V0.6h-0.1c-0.4-0.2-0.8-0.3-1.3-0.4
			S358,0,357.4,0c-1.6,0-2.8,0.5-3.6,1.5s-1.2,2.3-1.2,4v2.4l-2.2,0.2v2.2h2.2v13.8h2.9V10.4h3.4V8h-3.4V5.5H355.7z"/>
		<path class="st0" d="M373.2,9.8c-0.7-0.7-1.5-1.3-2.4-1.7c-0.9-0.4-1.9-0.6-2.9-0.6s-2,0.2-2.9,0.6s-1.7,0.9-2.4,1.7
			c-0.7,0.7-1.2,1.6-1.7,2.7c-0.4,1.1-0.6,2.3-0.6,3.6c0,1.3,0.2,2.5,0.6,3.6c0.4,1.1,1,2,1.7,2.7s1.5,1.3,2.4,1.7
			c0.9,0.4,1.9,0.6,2.9,0.6s2-0.2,2.9-0.6s1.7-0.9,2.4-1.7c0.7-0.7,1.2-1.6,1.7-2.7c0.4-1.1,0.6-2.3,0.6-3.6c0-1.3-0.2-2.6-0.6-3.6
			S373.9,10.6,373.2,9.8z M372.5,16.1c0,0.9-0.1,1.7-0.3,2.5c-0.2,0.7-0.5,1.4-0.9,1.9s-0.9,0.9-1.4,1.2c-0.6,0.3-1.2,0.4-1.8,0.4
			c-0.7,0-1.3-0.1-1.8-0.4c-0.6-0.3-1-0.7-1.4-1.2s-0.7-1.2-0.9-1.9c-0.2-0.7-0.3-1.6-0.3-2.5s0.1-1.8,0.3-2.5s0.5-1.4,0.9-1.9
			s0.9-1,1.4-1.2c0.6-0.3,1.2-0.4,1.8-0.4c0.7,0,1.3,0.1,1.8,0.4c0.6,0.3,1,0.7,1.4,1.2s0.7,1.2,0.9,1.9
			C372.4,14.4,372.5,15.2,372.5,16.1z"/>
		<path class="st0" d="M382.4,13.8c0.5-1.3,1.2-2.3,1.9-2.8s1.4-0.8,2.1-0.8c0.3,0,0.6,0,0.8,0.1c0.2,0,0.5,0.1,0.7,0.2h0.1l0.6-2.6
			h-0.1c-0.5-0.2-1.1-0.3-1.8-0.3c-0.9,0-1.8,0.3-2.6,0.9s-1.4,1.3-1.9,2.3L382,8.1V8h-2.4v16.2h2.9L382.4,13.8L382.4,13.8z"/>
		<path class="st0" d="M398.4,17.2l-0.7,2.4c-0.2,0.8-0.5,1.5-0.7,2.2c-0.2-0.7-0.5-1.5-0.7-2.2c-0.3-0.8-0.5-1.6-0.7-2.4l-3-9.1V8
			h-3l5.8,16.2v0.1h3.3l5.7-16.1V8.1h-2.9L398.4,17.2z"/>
		<path class="st0" d="M412.7,7.6c-1.3,0-2.5,0.2-3.6,0.7s-2,0.9-2.8,1.4l-0.1,0.1l1.2,2.1l0.1-0.1c0.6-0.4,1.4-0.8,2.2-1.2
			c0.8-0.3,1.7-0.5,2.6-0.5c0.6,0,1.2,0.1,1.6,0.3c0.4,0.2,0.7,0.5,1,0.9c0.2,0.4,0.4,0.8,0.5,1.3c0.1,0.4,0.1,0.9,0.1,1.4
			c-3.4,0.4-5.9,1-7.4,2c-1.6,1-2.4,2.3-2.4,4.1c0,1.5,0.5,2.6,1.4,3.4s2.1,1.2,3.4,1.2c1,0,2-0.2,2.9-0.7c0.9-0.4,1.7-1,2.4-1.6
			l0.2,1.9h2.4v-9.9c0-2-0.5-3.6-1.3-4.9C416.1,8.2,414.7,7.6,412.7,7.6z M408.8,18.4c0.2-0.4,0.6-0.8,1.2-1.1
			c0.6-0.3,1.3-0.6,2.2-0.8c0.9-0.2,2-0.4,3.3-0.6v4.3c-0.7,0.7-1.5,1.2-2.1,1.6c-0.7,0.4-1.4,0.5-2.1,0.5c-0.8,0-1.4-0.2-2-0.6
			c-0.5-0.4-0.8-1-0.8-1.9C408.4,19.3,408.5,18.8,408.8,18.4z"/>
		<path class="st0" d="M427.3,22.1c-0.2,0.1-0.3,0.1-0.3,0.1h-0.2c-0.2,0-0.3-0.1-0.5-0.2c-0.1-0.2-0.2-0.4-0.2-0.9V0.5h-2.9v20.4
			c0,1.2,0.2,2.1,0.7,2.8c0.5,0.6,1.2,1,2.3,1c0.4,0,0.7,0,0.9-0.1c0.2,0,0.5-0.1,0.7-0.2h0.1l-0.4-2.2L427.3,22.1z"/>
		<path class="st0" d="M439.2,21.8c-0.3,0.1-0.6,0.2-0.9,0.3c-0.3,0.1-0.6,0.1-0.9,0.1c-0.9,0-1.5-0.3-1.8-0.8s-0.5-1.3-0.5-2.2
			v-8.8h4.3V8h-4.3V3.5h-2.5L432.3,8l-2.5,0.2v2.2h2.4v8.8c0,0.8,0.1,1.5,0.2,2.2c0.2,0.7,0.4,1.3,0.8,1.7c0.4,0.5,0.9,0.8,1.5,1.1
			c0.6,0.3,1.3,0.4,2.2,0.4c0.5,0,1-0.1,1.6-0.2c0.5-0.1,1-0.3,1.4-0.4h0.1l-0.6-2.2L439.2,21.8z"/>
		<path class="st0" d="M450.8,7.6c-1.1,0-2.1,0.3-3,0.8c-0.8,0.5-1.6,1.1-2.4,1.9L445.2,8h-2.4v16.2h2.9V12.6
			c0.8-0.8,1.5-1.4,2.1-1.8s1.3-0.6,2.2-0.6c1,0,1.8,0.3,2.2,1c0.5,0.7,0.7,1.7,0.7,3.2v9.9h2.9V14c0-2.1-0.4-3.7-1.2-4.7
			C453.8,8.1,452.5,7.6,450.8,7.6z"/>
		<rect x="460.8" y="8" class="st0" width="2.9" height="16.2"/>
		<path class="st0" d="M462.3,1.2c-0.6,0-1,0.2-1.4,0.5s-0.6,0.8-0.6,1.3s0.2,1,0.6,1.3c0.4,0.3,0.9,0.5,1.4,0.5
			c0.6,0,1-0.2,1.4-0.5s0.6-0.8,0.6-1.3c0-0.6-0.2-1-0.6-1.3C463.3,1.4,462.9,1.2,462.3,1.2z"/>
		<path class="st0" d="M477,7.6c-1.1,0-2.1,0.3-3,0.8c-0.8,0.5-1.6,1.1-2.4,1.9L471.4,8H469v16.2h2.9V12.6c0.8-0.8,1.5-1.4,2.1-1.8
			s1.3-0.6,2.2-0.6c1,0,1.8,0.3,2.2,1c0.5,0.7,0.7,1.7,0.7,3.2v9.9h2.9V14c0-2.1-0.4-3.7-1.2-4.7C480,8.1,478.7,7.6,477,7.6z"/>
		<path class="st0" d="M499,23c-0.9-0.6-2.4-0.9-4.3-0.9h-3.1c-1.1,0-1.8-0.2-2.2-0.5s-0.6-0.7-0.6-1.2c0-0.4,0.1-0.8,0.3-1.1
			c0.2-0.3,0.4-0.5,0.7-0.7c0.4,0.2,0.7,0.3,1.1,0.4c0.4,0.1,0.8,0.2,1.2,0.2c0.8,0,1.6-0.1,2.3-0.4s1.4-0.6,1.9-1.1s1-1.1,1.3-1.8
			c0.3-0.7,0.5-1.5,0.5-2.4c0-0.7-0.1-1.3-0.4-1.9c-0.2-0.5-0.5-0.9-0.8-1.3h3.2V8h-5.7c-0.3-0.1-0.7-0.2-1-0.3
			c-0.4-0.1-0.8-0.1-1.3-0.1c-0.8,0-1.6,0.1-2.4,0.4c-0.7,0.3-1.4,0.7-2,1.2s-1,1.1-1.3,1.8c-0.3,0.7-0.5,1.5-0.5,2.4
			c0,1,0.2,1.9,0.7,2.6c0.4,0.7,0.9,1.3,1.4,1.8l0,0c-0.4,0.3-0.8,0.7-1.2,1.2s-0.6,1.1-0.6,1.8c0,0.7,0.1,1.2,0.4,1.7
			c0.3,0.4,0.6,0.8,1,1l0,0c-0.7,0.5-1.3,1.1-1.7,1.7s-0.6,1.3-0.6,2s0.2,1.4,0.5,1.9s0.8,1,1.4,1.4c0.6,0.4,1.3,0.7,2.1,0.9
			c0.8,0.2,1.7,0.3,2.7,0.3c1.3,0,2.4-0.2,3.4-0.5s1.9-0.7,2.6-1.2c0.7-0.5,1.3-1.1,1.6-1.8c0.4-0.7,0.6-1.4,0.6-2.2
			C500.4,24.6,499.9,23.6,499,23z M488.9,13.4c0-1.2,0.3-2.1,1-2.7c0.6-0.6,1.4-0.9,2.3-0.9s1.7,0.3,2.3,0.9s1,1.5,1,2.7
			c0,0.6-0.1,1.1-0.3,1.6s-0.4,0.9-0.7,1.2s-0.7,0.6-1.1,0.7c-0.8,0.3-1.7,0.3-2.5,0c-0.4-0.2-0.8-0.4-1.1-0.7
			c-0.3-0.3-0.6-0.7-0.7-1.2C489,14.5,488.9,14,488.9,13.4z M497.6,26.4c0,0.4-0.1,0.8-0.3,1.2c-0.2,0.4-0.6,0.7-1,1s-1,0.5-1.6,0.7
			s-1.3,0.3-2.1,0.3c-1.4,0-2.6-0.3-3.4-0.7c-0.8-0.5-1.2-1.1-1.2-2c0-0.4,0.1-0.9,0.4-1.3c0.3-0.4,0.7-0.9,1.2-1.3
			c0.3,0.1,0.7,0.2,1,0.2c0.4,0,0.7,0.1,1,0.1h2.8c1,0,1.8,0.1,2.4,0.4C497.3,25.2,497.6,25.7,497.6,26.4z"/>
		<path class="st0" d="M147.3,47.6c-0.7-0.7-1.5-1.3-2.4-1.7s-1.9-0.6-2.9-0.6s-2,0.2-2.9,0.6s-1.7,0.9-2.4,1.7
			c-0.7,0.7-1.2,1.6-1.7,2.7c-0.4,1.1-0.6,2.3-0.6,3.6s0.2,2.5,0.6,3.6s1,2,1.7,2.7s1.5,1.3,2.4,1.7s1.9,0.6,2.9,0.6s2-0.2,2.9-0.6
			c0.9-0.4,1.7-0.9,2.4-1.7c0.7-0.7,1.2-1.6,1.7-2.7c0.4-1.1,0.6-2.3,0.6-3.6s-0.2-2.6-0.6-3.6C148.5,49.3,148,48.4,147.3,47.6z
			 M146.5,53.9c0,0.9-0.1,1.7-0.3,2.5c-0.2,0.7-0.5,1.4-0.9,1.9s-0.9,0.9-1.4,1.2c-0.6,0.3-1.2,0.4-1.8,0.4c-0.7,0-1.3-0.1-1.8-0.4
			c-0.6-0.3-1-0.7-1.4-1.2s-0.7-1.2-0.9-1.9c-0.2-0.7-0.3-1.6-0.3-2.5s0.1-1.8,0.3-2.5c0.2-0.7,0.5-1.4,0.9-1.9s0.9-1,1.4-1.2
			c0.6-0.3,1.2-0.4,1.8-0.4c0.7,0,1.3,0.1,1.8,0.4c0.6,0.3,1,0.7,1.4,1.2s0.7,1.2,0.9,1.9C146.4,52.2,146.5,53,146.5,53.9z"/>
		<path class="st0" d="M165.8,60.8c-0.9-0.6-2.4-0.9-4.3-0.9h-3.1c-1.1,0-1.8-0.2-2.2-0.5c-0.4-0.3-0.6-0.7-0.6-1.2
			c0-0.4,0.1-0.8,0.3-1.1c0.2-0.3,0.4-0.5,0.7-0.7c0.4,0.2,0.7,0.3,1.1,0.4c0.4,0.1,0.8,0.2,1.2,0.2c0.8,0,1.6-0.1,2.3-0.4
			c0.7-0.3,1.4-0.6,1.9-1.1s1-1.1,1.3-1.8s0.5-1.5,0.5-2.4c0-0.7-0.1-1.3-0.4-1.9c-0.2-0.5-0.5-0.9-0.8-1.3h3.2v-2.3h-5.7
			c-0.3-0.1-0.7-0.2-1-0.3c-0.4-0.1-0.8-0.1-1.3-0.1c-0.8,0-1.6,0.1-2.4,0.4c-0.7,0.3-1.4,0.7-2,1.2s-1,1.1-1.3,1.8
			s-0.5,1.5-0.5,2.4c0,1,0.2,1.9,0.7,2.6c0.4,0.7,0.9,1.3,1.4,1.8l0,0c-0.4,0.3-0.8,0.7-1.2,1.2c-0.4,0.5-0.6,1.1-0.6,1.8
			s0.1,1.2,0.4,1.7c0.3,0.4,0.6,0.8,1,1l0,0c-0.7,0.5-1.3,1.1-1.7,1.7c-0.4,0.6-0.6,1.3-0.6,2s0.2,1.4,0.5,1.9s0.8,1,1.4,1.4
			s1.3,0.7,2.1,0.9c0.8,0.2,1.7,0.3,2.7,0.3c1.3,0,2.4-0.2,3.4-0.5s1.9-0.7,2.6-1.2s1.3-1.1,1.6-1.8c0.4-0.7,0.6-1.4,0.6-2.2
			C167.3,62.4,166.8,61.4,165.8,60.8z M155.8,51.2c0-1.2,0.3-2.1,1-2.7c0.6-0.6,1.4-0.9,2.3-0.9s1.7,0.3,2.3,0.9
			c0.6,0.6,1,1.5,1,2.7c0,0.6-0.1,1.1-0.3,1.6c-0.2,0.5-0.4,0.9-0.7,1.2s-0.7,0.6-1.1,0.7c-0.8,0.3-1.7,0.3-2.5,0
			c-0.4-0.2-0.8-0.4-1.1-0.7c-0.3-0.3-0.6-0.7-0.7-1.2C155.9,52.3,155.8,51.8,155.8,51.2z M164.4,64.2c0,0.4-0.1,0.8-0.3,1.2
			c-0.2,0.4-0.6,0.7-1,1s-1,0.5-1.6,0.7s-1.3,0.3-2.1,0.3c-1.4,0-2.6-0.3-3.4-0.7c-0.8-0.5-1.2-1.1-1.2-2c0-0.4,0.1-0.9,0.4-1.3
			c0.3-0.4,0.7-0.9,1.2-1.3c0.3,0.1,0.7,0.2,1,0.2c0.4,0,0.7,0.1,1,0.1h2.8c1,0,1.8,0.1,2.4,0.4C164.2,63,164.4,63.5,164.4,64.2z"/>
		<path class="st0" d="M189.9,45l-1.6,2c-0.6-0.5-1.3-0.9-2.1-1.2c-0.8-0.3-1.6-0.4-2.5-0.4c-1,0-2,0.2-2.9,0.6s-1.7,0.9-2.4,1.7
			c-0.7,0.7-1.2,1.6-1.7,2.7c-0.4,1.1-0.6,2.3-0.6,3.6c0,1.2,0.2,2.3,0.5,3.2s0.7,1.7,1.3,2.4l-1.8,2.2l1.4,1.1l1.6-2
			c1.3,1,2.9,1.6,4.6,1.6c1,0,2-0.2,2.9-0.6c0.9-0.4,1.7-0.9,2.4-1.7c0.7-0.7,1.2-1.6,1.7-2.7c0.4-1.1,0.6-2.3,0.6-3.6
			c0-1.2-0.2-2.3-0.5-3.2s-0.7-1.8-1.3-2.5l1.8-2.2L189.9,45z M186.6,49l-6.9,8.4c-0.5-1-0.7-2.2-0.7-3.5c0-0.9,0.1-1.7,0.4-2.5
			c0.2-0.7,0.6-1.4,1-1.9s0.9-0.9,1.5-1.2s1.2-0.4,1.9-0.4C184.9,47.8,185.8,48.2,186.6,49z M188.3,54c0,0.9-0.1,1.7-0.3,2.4
			c-0.2,0.7-0.6,1.4-1,1.9s-0.9,0.9-1.5,1.2s-1.2,0.4-1.9,0.4c-1.1,0-2.1-0.4-2.9-1.2l6.9-8.4C188.1,51.5,188.3,52.7,188.3,54z"/>
		<polygon class="st0" points="208,46 208.2,45.8 204.9,45.8 198.1,54.2 198.1,38.3 195.2,38.3 195.2,62 198.1,62 198.1,57.7
			201,54.4 205.6,62 208.9,62 202.7,52.3 		"/>
		<path class="st0" d="M222.6,47.6c-0.7-0.7-1.5-1.3-2.4-1.7s-1.9-0.6-2.9-0.6s-2,0.2-2.9,0.6s-1.7,0.9-2.4,1.7
			c-0.7,0.7-1.2,1.6-1.7,2.7c-0.4,1.1-0.6,2.3-0.6,3.6s0.2,2.5,0.6,3.6s1,2,1.7,2.7s1.5,1.3,2.4,1.7s1.9,0.6,2.9,0.6s2-0.2,2.9-0.6
			c0.9-0.4,1.7-0.9,2.4-1.7c0.7-0.7,1.2-1.6,1.7-2.7c0.4-1.1,0.6-2.3,0.6-3.6s-0.2-2.6-0.6-3.6C223.8,49.3,223.3,48.4,222.6,47.6z
			 M221.8,53.9c0,0.9-0.1,1.7-0.3,2.5c-0.2,0.7-0.5,1.4-0.9,1.9s-0.9,0.9-1.4,1.2c-0.6,0.3-1.2,0.4-1.8,0.4c-0.7,0-1.3-0.1-1.8-0.4
			c-0.6-0.3-1-0.7-1.4-1.2s-0.7-1.2-0.9-1.9c-0.2-0.7-0.3-1.6-0.3-2.5s0.1-1.8,0.3-2.5c0.2-0.7,0.5-1.4,0.9-1.9s0.9-1,1.4-1.2
			c0.6-0.3,1.2-0.4,1.8-0.4c0.7,0,1.3,0.1,1.8,0.4c0.6,0.3,1,0.7,1.4,1.2s0.7,1.2,0.9,1.9C221.7,52.2,221.8,53,221.8,53.9z"/>
		<path class="st0" d="M236.9,45.4c-1.1,0-2.1,0.3-3,0.8c-0.8,0.5-1.6,1.1-2.4,1.9l-0.2-2.3h-2.4V62h2.9V50.3
			c0.8-0.8,1.5-1.4,2.1-1.8c0.6-0.4,1.3-0.6,2.2-0.6c1,0,1.8,0.3,2.2,1c0.5,0.7,0.7,1.7,0.7,3.2V62h2.9V51.7c0-2.1-0.4-3.7-1.2-4.7
			C239.9,45.9,238.6,45.4,236.9,45.4z"/>
		<path class="st0" d="M258.5,47.6c-0.7-0.7-1.5-1.3-2.4-1.7s-1.9-0.6-2.9-0.6s-2,0.2-2.9,0.6s-1.7,0.9-2.4,1.7
			c-0.7,0.7-1.2,1.6-1.7,2.7c-0.4,1.1-0.6,2.3-0.6,3.6s0.2,2.5,0.6,3.6s1,2,1.7,2.7s1.5,1.3,2.4,1.7s1.9,0.6,2.9,0.6s2-0.2,2.9-0.6
			c0.9-0.4,1.7-0.9,2.4-1.7c0.7-0.7,1.2-1.6,1.7-2.7c0.4-1.1,0.6-2.3,0.6-3.6s-0.2-2.6-0.6-3.6S259.2,48.4,258.5,47.6z M257.8,53.9
			c0,0.9-0.1,1.7-0.3,2.5c-0.2,0.7-0.5,1.4-0.9,1.9s-0.9,0.9-1.4,1.2c-0.6,0.3-1.2,0.4-1.8,0.4c-0.7,0-1.3-0.1-1.8-0.4
			c-0.6-0.3-1-0.7-1.4-1.2s-0.7-1.2-0.9-1.9c-0.2-0.7-0.3-1.6-0.3-2.5s0.1-1.8,0.3-2.5c0.2-0.7,0.5-1.4,0.9-1.9s0.9-1,1.4-1.2
			c0.6-0.3,1.2-0.4,1.8-0.4c0.7,0,1.3,0.1,1.8,0.4c0.6,0.3,1,0.7,1.4,1.2s0.7,1.2,0.9,1.9C257.7,52.2,257.8,53,257.8,53.9z"/>
		<path class="st0" d="M282.2,45.4c-1,0-2,0.3-2.8,0.9c-0.8,0.5-1.6,1.2-2.4,2.1c-0.3-0.9-0.8-1.6-1.5-2.1c-0.7-0.6-1.7-0.8-2.9-0.8
			c-1,0-1.9,0.3-2.7,0.8c-0.8,0.5-1.6,1.1-2.3,1.9l-0.2-2.3H265v16.2h2.9V50.4c1.4-1.6,2.8-2.4,3.9-2.4c1,0,1.7,0.3,2.2,1
			s0.7,1.7,0.7,3.2v9.9h2.9V50.4c1.4-1.6,2.8-2.4,3.9-2.4c1,0,1.7,0.3,2.2,1s0.7,1.7,0.7,3.2v9.9h2.9V51.8c0-2.1-0.4-3.7-1.2-4.7
			C285.1,45.9,283.8,45.4,282.2,45.4z"/>
		<rect x="292.2" y="45.8" class="st0" width="2.9" height="16.2"/>
		<path class="st0" d="M293.6,39c-0.6,0-1,0.2-1.4,0.5s-0.6,0.8-0.6,1.3s0.2,1,0.6,1.3s0.9,0.5,1.4,0.5c0.6,0,1-0.2,1.4-0.5
			s0.6-0.8,0.6-1.3c0-0.6-0.2-1-0.6-1.3C294.7,39.2,294.2,39,293.6,39z"/>
		<path class="st0" d="M308.9,54.2c-0.5-0.4-1-0.7-1.6-0.9s-1.2-0.5-1.7-0.7s-0.9-0.3-1.3-0.5s-0.8-0.3-1.1-0.6
			c-0.3-0.2-0.6-0.4-0.8-0.7c-0.2-0.3-0.3-0.6-0.3-0.9c0-0.6,0.2-1.1,0.7-1.5s1.2-0.7,2.2-0.7c0.7,0,1.3,0.1,1.9,0.4
			c0.6,0.3,1.2,0.6,1.7,1l0.1,0.1l1.4-1.9l-0.1-0.1c-0.6-0.5-1.4-0.9-2.2-1.3c-0.9-0.4-1.8-0.5-2.8-0.5c-0.9,0-1.7,0.1-2.3,0.4
			c-0.7,0.2-1.3,0.6-1.8,1s-0.9,0.9-1.1,1.5s-0.4,1.2-0.4,1.8c0,0.7,0.1,1.3,0.4,1.8s0.7,0.9,1.1,1.3c0.5,0.4,1,0.7,1.6,0.9
			c0.6,0.3,1.1,0.5,1.7,0.7l1.3,0.5c0.4,0.2,0.8,0.4,1.2,0.6c0.3,0.2,0.6,0.5,0.8,0.8c0.2,0.3,0.3,0.6,0.3,1c0,0.7-0.3,1.2-0.8,1.7
			s-1.3,0.7-2.3,0.7c-0.9,0-1.8-0.2-2.5-0.5s-1.4-0.8-2.1-1.4l-0.1-0.1l-1.5,2l0.1,0.1c0.8,0.6,1.7,1.2,2.7,1.6
			c1,0.4,2.2,0.6,3.3,0.6c1,0,1.8-0.1,2.6-0.4c0.7-0.3,1.4-0.6,1.9-1.1c0.5-0.4,0.9-1,1.1-1.6s0.4-1.2,0.4-1.9c0-0.8-0.2-1.4-0.5-2
			C309.8,55,309.4,54.6,308.9,54.2z"/>
		<path class="st0" d="M321,59.6c-0.3,0.1-0.6,0.2-0.9,0.3s-0.6,0.1-0.9,0.1c-0.9,0-1.5-0.3-1.8-0.8s-0.5-1.3-0.5-2.2v-8.8h4.3v-2.4
			h-4.3v-4.5h-2.5l-0.3,4.5l-2.5,0.2v2.2h2.4V57c0,0.8,0.1,1.5,0.2,2.2c0.2,0.7,0.4,1.3,0.8,1.7c0.4,0.5,0.9,0.8,1.5,1.1
			s1.3,0.4,2.2,0.4c0.5,0,1-0.1,1.6-0.2c0.5-0.1,1-0.3,1.4-0.4h0.1l-0.6-2.2L321,59.6z"/>
		<path class="st0" d="M332,54.7c-0.2,0.7-0.4,1.5-0.7,2.2c-0.2,0.7-0.4,1.5-0.7,2.2c-0.2-0.7-0.5-1.5-0.7-2.2
			c-0.3-0.8-0.5-1.5-0.8-2.2l-3.3-8.9v-0.1h-3l6.5,16.2l-0.4,1.2c-0.3,1-0.8,1.8-1.3,2.4c-0.6,0.6-1.3,0.9-2.2,0.9
			c-0.2,0-0.4,0-0.6-0.1l-0.7-0.2l-0.6,2.3h0.1c0.3,0.1,0.6,0.2,0.9,0.3s0.7,0.1,1,0.1c0.8,0,1.6-0.1,2.2-0.4
			c0.6-0.3,1.2-0.7,1.7-1.2s0.9-1.1,1.3-1.8s0.7-1.4,1-2.2l6-17.4v-0.1h-2.9L332,54.7z"/>
		<path class="st0" d="M347.2,45.4c-0.9,0-1.8,0.3-2.6,0.9c-0.8,0.6-1.4,1.3-1.9,2.3l-0.2-2.7v-0.1h-2.4V62h2.9V51.6
			c0.5-1.3,1.2-2.3,1.9-2.8s1.4-0.8,2.1-0.8c0.3,0,0.6,0,0.8,0.1c0.2,0,0.5,0.1,0.7,0.2h0.1l0.6-2.6h-0.1
			C348.5,45.5,347.9,45.4,347.2,45.4z"/>
		<path class="st0" d="M353.2,39c-0.6,0-1,0.2-1.4,0.5s-0.6,0.8-0.6,1.3s0.2,1,0.6,1.3c0.4,0.3,0.9,0.5,1.4,0.5c0.6,0,1-0.2,1.4-0.5
			s0.6-0.8,0.6-1.3c0-0.6-0.2-1-0.6-1.3C354.3,39.2,353.8,39,353.2,39z"/>
		<rect x="351.7" y="45.8" class="st0" width="2.9" height="16.2"/>
		<path class="st0" d="M367.6,45.4c-1.1,0-2.1,0.3-3,0.8c-0.8,0.5-1.6,1.1-2.4,1.9l-0.2-2.3h-2.4V62h2.9V50.3
			c0.8-0.8,1.5-1.4,2.1-1.8c0.6-0.4,1.3-0.6,2.2-0.6c1,0,1.8,0.3,2.2,1c0.5,0.7,0.7,1.7,0.7,3.2V62h2.9V51.7c0-2.1-0.4-3.7-1.2-4.7
			C370.6,45.9,369.4,45.4,367.6,45.4z"/>
		<path class="st0" d="M389.6,60.8c-0.9-0.6-2.4-0.9-4.3-0.9h-3.1c-1.1,0-1.8-0.2-2.2-0.5s-0.6-0.7-0.6-1.2c0-0.4,0.1-0.8,0.3-1.1
			s0.4-0.5,0.7-0.7c0.4,0.2,0.7,0.3,1.1,0.4c0.4,0.1,0.8,0.2,1.2,0.2c0.8,0,1.6-0.1,2.3-0.4c0.7-0.3,1.4-0.6,1.9-1.1s1-1.1,1.3-1.8
			s0.5-1.5,0.5-2.4c0-0.7-0.1-1.3-0.4-1.9c-0.2-0.5-0.5-0.9-0.8-1.3h3.2v-2.3H385c-0.3-0.1-0.7-0.2-1-0.3c-0.4-0.1-0.8-0.1-1.3-0.1
			c-0.8,0-1.6,0.1-2.4,0.4c-0.7,0.3-1.4,0.7-2,1.2s-1,1.1-1.3,1.8s-0.5,1.5-0.5,2.4c0,1,0.2,1.9,0.7,2.6c0.4,0.7,0.9,1.3,1.4,1.8
			l0,0c-0.4,0.3-0.8,0.7-1.2,1.2s-0.6,1.1-0.6,1.8s0.1,1.2,0.4,1.7c0.3,0.4,0.6,0.8,1,1l0,0c-0.7,0.5-1.3,1.1-1.7,1.7
			c-0.4,0.6-0.6,1.3-0.6,2s0.2,1.4,0.5,1.9s0.8,1,1.4,1.4c0.6,0.4,1.3,0.7,2.1,0.9s1.7,0.3,2.7,0.3c1.3,0,2.4-0.2,3.4-0.5
			s1.9-0.7,2.6-1.2c0.7-0.5,1.3-1.1,1.6-1.8c0.4-0.7,0.6-1.4,0.6-2.2C391.1,62.4,390.6,61.4,389.6,60.8z M379.6,51.2
			c0-1.2,0.3-2.1,1-2.7c0.6-0.6,1.4-0.9,2.3-0.9s1.7,0.3,2.3,0.9c0.6,0.6,1,1.5,1,2.7c0,0.6-0.1,1.1-0.3,1.6s-0.4,0.9-0.7,1.2
			s-0.7,0.6-1.1,0.7c-0.8,0.3-1.7,0.3-2.5,0c-0.4-0.2-0.8-0.4-1.1-0.7s-0.6-0.7-0.7-1.2C379.6,52.3,379.6,51.8,379.6,51.2z
			 M388.2,64.2c0,0.4-0.1,0.8-0.3,1.2s-0.6,0.7-1,1s-1,0.5-1.6,0.7s-1.3,0.3-2.1,0.3c-1.4,0-2.6-0.3-3.4-0.7c-0.8-0.5-1.2-1.1-1.2-2
			c0-0.4,0.1-0.9,0.4-1.3c0.3-0.4,0.7-0.9,1.2-1.3c0.3,0.1,0.7,0.2,1,0.2c0.4,0,0.7,0.1,1,0.1h2.8c1,0,1.8,0.1,2.4,0.4
			C388,63,388.2,63.5,388.2,64.2z"/>
	</g>
	<g>
		<rect x="68" y="2.5" class="st1" width="51" height="17"/>
		<g>
			<polyline class="st2" points="119.1,45.1 34,45.1 34,62.1 119.1,62.1 119.1,45.1 			"/>
		</g>
		<rect x="0" y="23.8" class="st0" width="119.1" height="17"/>
	</g>
</g>
</svg>
