<svg width="642" height="69" viewBox="0 0 642 69" fill="none" xmlns="http://www.w3.org/2000/svg">
<path d="M140.5 23.5V4.2H134V1.8H149.8V4.1H143.3V23.4H140.5V23.5Z" fill="#012A4C"/>
<path d="M143.4 23.6H140.4V4.3H133.9V1.7H149.9V4.2H143.4V23.6ZM140.6 23.4H143.2V4.1H149.7V1.9H134.1V4H140.6V23.4Z" fill="#012A4C"/>
<path d="M153.4 23.5V0H156.1V6.4L156 9.7C156.8 9 157.6 8.4 158.4 7.8C159.2 7.3 160.2 7 161.3 7C163 7 164.2 7.5 165 8.6C165.8 9.7 166.2 11.2 166.2 13.3V23.5H163.5V13.7C163.5 12.2 163.3 11.1 162.8 10.4C162.3 9.7 161.5 9.4 160.5 9.4C159.7 9.4 158.9 9.6 158.3 10C157.7 10.4 156.9 11 156.1 11.8V23.4H153.4V23.5Z" fill="#012A4C"/>
<path d="M166.3 23.6H163.4V13.7C163.4 12.2 163.2 11.1 162.7 10.5C162.2 9.89999 161.5 9.49999 160.5 9.49999C159.7 9.49999 159 9.69999 158.3 10.1C157.7 10.5 157 11.1 156.2 11.9V23.6H153.3V-0.100006H156.2V6.39999L156.1 9.49999C156.8 8.79999 157.6 8.29999 158.3 7.79999C159.1 7.29999 160.2 6.99999 161.3 6.99999C163 6.99999 164.3 7.49999 165.1 8.59999C165.9 9.69999 166.3 11.3 166.3 13.3V23.6V23.6ZM163.6 23.4H166.1V13.3C166.1 11.3 165.7 9.69999 164.9 8.69999C164.1 7.69999 162.9 7.19999 161.3 7.19999C160.2 7.19999 159.2 7.49999 158.4 7.99999C157.6 8.49999 156.8 9.09999 156 9.89999L155.8 10.1L155.9 6.59999V0.0999939H153.4V23.4H155.9V11.8C156.7 11 157.5 10.4 158.1 9.89999C158.8 9.49999 159.5 9.29999 160.4 9.29999C161.5 9.29999 162.3 9.69999 162.8 10.3C163.3 11 163.5 12.1 163.5 13.6V23.4H163.6Z" fill="#012A4C"/>
<path d="M177.8 23.9C176.7 23.9 175.7 23.7 174.8 23.3C173.9 22.9 173.1 22.4 172.4 21.7C171.7 21 171.2 20.1 170.8 19.1C170.4 18.1 170.2 16.9 170.2 15.6C170.2 14.3 170.4 13.1 170.8 12.1C171.2 11.1 171.7 10.2 172.4 9.39999C173.1 8.59999 173.8 8.09999 174.7 7.69999C175.6 7.29999 176.4 7.09999 177.4 7.09999C178.4 7.09999 179.3 7.29999 180.1 7.59999C180.9 7.99999 181.6 8.49999 182.1 9.09999C182.6 9.79999 183.1 10.6 183.3 11.5C183.6 12.4 183.7 13.5 183.7 14.6C183.7 14.9 183.7 15.2 183.7 15.4C183.7 15.7 183.7 15.9 183.6 16.1H172.8C172.9 17.8 173.4 19.2 174.4 20.2C175.4 21.2 176.6 21.7 178.1 21.7C178.9 21.7 179.6 21.6 180.2 21.4C180.8 21.2 181.5 20.9 182.1 20.5L183.1 22.3C182.4 22.7 181.6 23.1 180.8 23.5C179.9 23.7 178.9 23.9 177.8 23.9ZM172.7 14.2H181.3C181.3 12.6 181 11.3 180.3 10.5C179.6 9.69999 178.6 9.19999 177.4 9.19999C176.8 9.19999 176.3 9.29999 175.8 9.49999C175.3 9.69999 174.8 9.99999 174.4 10.5C174 10.9 173.6 11.5 173.4 12.1C173 12.7 172.8 13.4 172.7 14.2Z" fill="#012A4C"/>
<path d="M177.8 24C176.7 24 175.7 23.8 174.7 23.4C173.8 23 172.9 22.5 172.2 21.7C171.5 21 170.9 20.1 170.5 19C170.1 18 169.9 16.8 169.9 15.4C169.9 14.1 170.1 12.9 170.5 11.8C170.9 10.7 171.5 9.79999 172.1 9.09999C172.8 8.39999 173.6 7.79999 174.4 7.39999C175.3 6.99999 176.2 6.79999 177.1 6.79999C178.1 6.79999 179 6.99999 179.9 7.29999C180.7 7.69999 181.4 8.19999 182 8.79999C182.5 9.49999 183 10.3 183.3 11.2C183.6 12.1 183.7 13.2 183.7 14.3C183.7 14.6 183.7 14.9 183.7 15.1C183.7 15.4 183.7 15.6 183.6 15.8V15.9H172.8C172.9 17.5 173.4 18.8 174.4 19.8C175.3 20.8 176.6 21.3 178.1 21.3C178.9 21.3 179.6 21.2 180.2 21C180.8 20.8 181.5 20.5 182 20.1L182.1 20L183.2 22H183.1C182.4 22.4 181.6 22.8 180.7 23.2C179.9 23.8 178.9 24 177.8 24ZM177.3 7.19999C176.4 7.19999 175.5 7.39999 174.7 7.79999C173.9 8.19999 173.1 8.69999 172.4 9.39999C171.7 10.1 171.2 11 170.8 12C170.4 13 170.2 14.2 170.2 15.5C170.2 16.8 170.4 18 170.8 19C171.2 20 171.7 20.9 172.4 21.6C173.1 22.3 173.9 22.8 174.8 23.2C175.7 23.6 176.7 23.8 177.8 23.8C178.9 23.8 179.9 23.6 180.7 23.3C181.5 23 182.3 22.6 182.9 22.2L182 20.6C181.4 21 180.8 21.2 180.2 21.5C179.5 21.7 178.8 21.9 178 21.9C176.4 21.9 175.2 21.4 174.2 20.4C173.2 19.4 172.7 18 172.6 16.3V16.2H183.4C183.4 16 183.5 15.8 183.5 15.6C183.5 15.3 183.5 15 183.5 14.8C183.5 13.7 183.4 12.6 183.1 11.7C182.8 10.8 182.4 9.99999 181.9 9.39999C181.4 8.79999 180.7 8.29999 179.9 7.89999C179.2 7.29999 178.3 7.19999 177.3 7.19999ZM181.4 14.3H172.6V14.2C172.7 13.4 172.9 12.7 173.2 12.1C173.5 11.5 173.8 10.9 174.3 10.5C174.7 10.1 175.2 9.69999 175.7 9.49999C176.2 9.29999 176.8 9.19999 177.4 9.19999C178.7 9.19999 179.7 9.59999 180.4 10.5C181.1 11.4 181.5 12.6 181.5 14.3H181.4ZM172.8 14.1H181.2C181.2 12.6 180.8 11.4 180.2 10.6C179.5 9.79999 178.6 9.39999 177.4 9.39999C176.8 9.39999 176.3 9.49999 175.8 9.69999C175.3 9.89999 174.8 10.2 174.4 10.7C174 11.1 173.6 11.6 173.4 12.2C173.1 12.7 172.9 13.4 172.8 14.1Z" fill="#012A4C"/>
<path d="M194.4 23.5V1.8H197.2L205 15.4L207.3 19.9H207.4C207.3 18.8 207.3 17.7 207.2 16.5C207.1 15.3 207.1 14.2 207.1 13V1.8H209.7V23.4H206.9L199 9.8L196.7 5.3H196.6C196.7 6.4 196.8 7.5 196.8 8.6C196.9 9.7 196.9 10.9 196.9 12V23.3H194.4V23.5Z" fill="#012A4C"/>
<path d="M209.9 23.6H206.9V23.5L199 9.9L196.7 5.6C196.8 6.6 196.9 7.6 196.9 8.8C197 9.9 197 11.1 197 12.2V23.6H194.2V1.7H197.2V1.8L205 15.4L207.3 19.8C207.2 18.8 207.2 17.7 207.1 16.6C207 15.4 207 14.3 207 13.1V1.7H209.8V23.6H209.9ZM207 23.4H209.7V1.9H207.3V13C207.3 14.1 207.3 15.3 207.4 16.5C207.5 17.7 207.5 18.8 207.6 19.9V20H207.3V19.9L205 15.4L197.2 1.9H194.5V23.3H196.9V12.2C196.9 11.1 196.9 9.9 196.8 8.8C196.7 7.6 196.6 6.5 196.6 5.5V5.4H196.9V5.5L199.2 10L207 23.4Z" fill="#012A4C"/>
<path d="M221.6 23.9C220.6 23.9 219.7 23.7 218.8 23.3C217.9 22.9 217.1 22.4 216.4 21.7C215.7 21 215.2 20.1 214.8 19.1C214.4 18.1 214.2 16.9 214.2 15.6C214.2 14.3 214.4 13.1 214.8 12C215.2 11 215.8 10.1 216.4 9.29999C217 8.49999 217.9 7.99999 218.8 7.69999C219.7 7.29999 220.6 7.09999 221.6 7.09999C222.6 7.09999 223.5 7.29999 224.4 7.69999C225.3 8.09999 226.1 8.59999 226.8 9.29999C227.5 9.99999 228 10.9 228.4 12C228.8 13 229 14.2 229 15.6C229 16.9 228.8 18.1 228.4 19.1C228 20.1 227.4 21 226.8 21.7C226.1 22.4 225.3 23 224.4 23.3C223.6 23.7 222.6 23.9 221.6 23.9ZM221.6 21.6C222.3 21.6 222.9 21.5 223.5 21.2C224.1 20.9 224.6 20.5 225 19.9C225.4 19.4 225.7 18.7 225.9 18C226.1 17.3 226.2 16.4 226.2 15.5C226.2 14.6 226.1 13.7 225.9 13C225.7 12.2 225.4 11.6 225 11C224.6 10.5 224.1 9.99999 223.5 9.69999C222.9 9.39999 222.3 9.29999 221.6 9.29999C220.9 9.29999 220.3 9.39999 219.7 9.69999C219.1 9.99999 218.6 10.4 218.2 11C217.8 11.6 217.5 12.2 217.3 13C217.1 13.8 217 14.6 217 15.5C217 16.4 217.1 17.3 217.3 18C217.5 18.7 217.8 19.4 218.2 19.9C218.6 20.4 219.1 20.9 219.7 21.2C220.3 21.5 220.9 21.6 221.6 21.6Z" fill="#012A4C"/>
<path d="M221.6 24C220.6 24 219.6 23.8 218.7 23.4C217.8 23 217 22.5 216.3 21.7C215.6 21 215.1 20.1 214.6 19C214.2 18 214 16.7 214 15.4C214 14 214.2 12.8 214.6 11.8C215 10.7 215.6 9.79999 216.3 9.09999C217 8.39999 217.8 7.79999 218.7 7.39999C219.6 6.99999 220.6 6.79999 221.6 6.79999C222.6 6.79999 223.6 6.99999 224.5 7.39999C225.4 7.79999 226.2 8.29999 226.9 9.09999C227.6 9.89999 228.1 10.7 228.6 11.8C229 12.9 229.2 14.1 229.2 15.4C229.2 16.7 229 17.9 228.6 19C228.2 20.1 227.6 21 226.9 21.7C226.2 22.4 225.4 23 224.5 23.4C223.6 23.8 222.6 24 221.6 24ZM221.6 7.19999C220.6 7.19999 219.7 7.39999 218.8 7.79999C217.9 8.19999 217.1 8.69999 216.5 9.39999C215.8 10.1 215.3 11 214.9 12C214.5 13 214.3 14.2 214.3 15.5C214.3 16.8 214.5 18 214.9 19C215.3 20 215.8 20.9 216.5 21.6C217.2 22.3 218 22.8 218.8 23.2C219.7 23.6 220.6 23.8 221.6 23.8C222.6 23.8 223.5 23.6 224.4 23.2C225.3 22.8 226.1 22.3 226.7 21.6C227.4 20.9 227.9 20 228.3 19C228.7 18 228.9 16.8 228.9 15.5C228.9 14.2 228.7 13 228.3 12C227.9 11 227.4 10.1 226.7 9.39999C226 8.69999 225.2 8.09999 224.4 7.79999C223.5 7.29999 222.6 7.19999 221.6 7.19999ZM221.6 21.7C220.9 21.7 220.3 21.5 219.7 21.2C219.1 20.9 218.6 20.5 218.2 19.9C217.8 19.4 217.5 18.7 217.2 17.9C217 17.1 216.9 16.3 216.9 15.4C216.9 14.5 217 13.6 217.2 12.8C217.4 12 217.7 11.4 218.2 10.8C218.6 10.2 219.1 9.79999 219.7 9.49999C220.3 9.19999 220.9 8.99999 221.6 8.99999C222.3 8.99999 222.9 9.19999 223.5 9.49999C224.1 9.79999 224.6 10.2 225 10.8C225.4 11.4 225.7 12 226 12.8C226.2 13.6 226.3 14.4 226.3 15.4C226.3 16.3 226.2 17.2 226 17.9C225.8 18.7 225.5 19.3 225 19.9C224.6 20.4 224.1 20.9 223.5 21.2C223 21.6 222.3 21.7 221.6 21.7ZM221.6 9.39999C220.9 9.39999 220.3 9.49999 219.8 9.79999C219.2 10.1 218.8 10.5 218.4 11C218 11.5 217.7 12.2 217.5 12.9C217.3 13.6 217.2 14.5 217.2 15.4C217.2 16.3 217.3 17.1 217.5 17.9C217.7 18.6 218 19.3 218.4 19.8C218.8 20.3 219.3 20.7 219.8 21C220.4 21.3 221 21.4 221.6 21.4C222.3 21.4 222.9 21.3 223.4 21C224 20.7 224.4 20.3 224.8 19.8C225.2 19.3 225.5 18.6 225.7 17.9C225.9 17.2 226 16.3 226 15.4C226 14.5 225.9 13.7 225.7 12.9C225.5 12.2 225.2 11.5 224.8 11C224.4 10.5 223.9 9.99999 223.4 9.79999C222.9 9.59999 222.3 9.39999 221.6 9.39999Z" fill="#012A4C"/>
<path d="M233.2 23.5V7.50001H235.4L235.6 10.4H235.7C236.2 9.40001 236.9 8.60001 237.7 8.00001C238.5 7.40001 239.3 7.10001 240.3 7.10001C240.9 7.10001 241.5 7.20001 242 7.40001L241.5 9.80001C241.2 9.70001 241 9.60001 240.8 9.60001C240.6 9.60001 240.3 9.50001 240 9.50001C239.3 9.50001 238.6 9.80001 237.9 10.3C237.2 10.9 236.5 11.8 236 13.2V23.5H233.2Z" fill="#012A4C"/>
<path d="M236 23.6H233.1V7.4H235.5L235.7 10.2C236.2 9.2 236.9 8.5 237.6 7.9C238.4 7.3 239.3 7 240.2 7C240.8 7 241.4 7.1 242 7.3H242.1L241.5 9.9H241.4C241.1 9.8 240.9 9.7 240.7 9.7C240.5 9.7 240.2 9.6 239.9 9.6C239.2 9.6 238.5 9.9 237.8 10.4C237.1 10.9 236.4 11.9 235.9 13.2V23.6H236ZM233.3 23.4H235.8V13.2C236.4 11.8 237 10.8 237.8 10.3C238.6 9.7 239.3 9.5 240 9.5C240.3 9.5 240.6 9.5 240.8 9.6C241 9.6 241.2 9.7 241.4 9.8L241.9 7.6C241.4 7.4 240.9 7.3 240.3 7.3C239.4 7.3 238.6 7.6 237.8 8.2C237 8.8 236.4 9.6 235.8 10.6V10.7H235.5L235.3 7.8H233.2V23.4H233.3Z" fill="#012A4C"/>
<path d="M247.8 23.5L243.3 7.49998H246.1L248.5 16.8C248.7 17.6 248.8 18.3 249 19C249.2 19.7 249.3 20.5 249.5 21.2H249.6C249.8 20.5 250 19.7 250.1 19C250.3 18.3 250.5 17.5 250.7 16.8L253.2 7.49998H255.8L258.3 16.8C258.5 17.6 258.7 18.3 258.9 19C259.1 19.7 259.3 20.5 259.4 21.2H259.5C259.7 20.5 259.8 19.7 260 19C260.2 18.3 260.3 17.5 260.5 16.8L262.8 7.49998H265.4L261.1 23.5H257.8L255.5 14.9C255.3 14.1 255.1 13.4 255 12.6C254.8 11.9 254.7 11.1 254.5 10.3H254.4C254.2 11.1 254 11.9 253.9 12.7C253.7 13.5 253.5 14.2 253.3 15L251.1 23.6H247.8V23.5Z" fill="#012A4C"/>
<path d="M261.2 23.6H257.7V23.5L255.4 14.9C255.2 14.1 255 13.4 254.9 12.6C254.7 11.9 254.6 11.2 254.4 10.4C254.2 11.2 254.1 11.9 253.9 12.6C253.7 13.4 253.5 14.1 253.3 14.9L251 23.6H247.7V23.5L243.2 7.29999H246.2V7.39999L248.6 16.7C248.8 17.5 248.9 18.2 249.1 18.9C249.2 19.6 249.4 20.3 249.5 21C249.7 20.3 249.8 19.6 250 18.9C250.2 18.2 250.4 17.4 250.6 16.7L253.1 7.39999H255.9L258.6 17.6L259 19C259.2 19.7 259.3 20.4 259.5 21.1C259.7 20.4 259.8 19.7 260 19C260.2 18.3 260.3 17.5 260.5 16.8L262.9 7.39999H265.7L261.2 23.6ZM257.9 23.4H261L265.2 7.59999H262.8L260.5 16.8C260.3 17.6 260.2 18.3 260 19C259.8 19.7 259.7 20.5 259.5 21.2V21.3H259.2V21.2C259 20.5 258.8 19.7 258.7 19L258.1 16.8L255.6 7.59999H253.1L250.6 16.8C250.4 17.6 250.2 18.3 250 19C249.8 19.7 249.6 20.5 249.5 21.2V21.3H249.2V21.2C249 20.5 248.9 19.7 248.7 19C248.6 18.3 248.4 17.6 248.2 16.8L246 7.59999H243.4L247.8 23.4H250.8L253 14.9C253.2 14.1 253.4 13.4 253.6 12.6C253.8 11.9 253.9 11.1 254.1 10.2V10.1H254.4V10.2C254.6 11 254.8 11.8 254.9 12.5C255.1 13.2 255.2 14 255.4 14.8L257.9 23.4Z" fill="#012A4C"/>
<path d="M275.2 23.9C274.1 23.9 273.1 23.7 272.2 23.3C271.3 22.9 270.5 22.4 269.8 21.7C269.1 21 268.6 20.1 268.2 19.1C267.8 18.1 267.6 16.9 267.6 15.6C267.6 14.3 267.8 13.1 268.2 12.1C268.6 11.1 269.1 10.2 269.8 9.39999C270.5 8.59999 271.2 8.09999 272.1 7.69999C273 7.29999 273.8 7.09999 274.8 7.09999C275.8 7.09999 276.7 7.29999 277.5 7.59999C278.3 7.99999 279 8.49999 279.5 9.09999C280 9.79999 280.5 10.6 280.7 11.5C281 12.4 281.1 13.5 281.1 14.6C281.1 14.9 281.1 15.2 281.1 15.4C281.1 15.7 281.1 15.9 281 16.1H270.2C270.3 17.8 270.8 19.2 271.8 20.2C272.8 21.2 274 21.7 275.5 21.7C276.3 21.7 277 21.6 277.6 21.4C278.2 21.2 278.9 20.9 279.5 20.5L280.5 22.3C279.8 22.7 279 23.1 278.2 23.5C277.3 23.7 276.3 23.9 275.2 23.9ZM270.2 14.2H278.8C278.8 12.6 278.5 11.3 277.8 10.5C277.1 9.69999 276.1 9.19999 274.9 9.19999C274.3 9.19999 273.8 9.29999 273.3 9.49999C272.8 9.69999 272.3 9.99999 271.9 10.5C271.5 10.9 271.1 11.5 270.9 12.1C270.4 12.7 270.3 13.4 270.2 14.2Z" fill="#012A4C"/>
<path d="M275.2 24C274.1 24 273.1 23.8 272.1 23.4C271.2 23 270.3 22.5 269.6 21.7C268.9 21 268.3 20.1 267.9 19C267.5 18 267.3 16.8 267.3 15.4C267.3 14.1 267.5 12.9 267.9 11.8C268.3 10.7 268.9 9.79999 269.5 9.09999C270.2 8.39999 271 7.79999 271.8 7.39999C272.7 6.99999 273.6 6.79999 274.5 6.79999C275.5 6.79999 276.4 6.99999 277.3 7.29999C278.1 7.69999 278.8 8.19999 279.4 8.79999C279.9 9.49999 280.4 10.3 280.7 11.2C281 12.1 281.1 13.2 281.1 14.3C281.1 14.6 281.1 14.9 281.1 15.1C281.1 15.4 281.1 15.6 281 15.8V15.9H270.2C270.3 17.5 270.8 18.8 271.8 19.8C272.7 20.8 274 21.3 275.5 21.3C276.3 21.3 277 21.2 277.6 21C278.2 20.8 278.9 20.5 279.4 20.1L279.5 20L280.6 22H280.5C279.8 22.4 279 22.8 278.1 23.2C277.3 23.8 276.3 24 275.2 24ZM274.7 7.19999C273.8 7.19999 272.9 7.39999 272.1 7.79999C271.3 8.19999 270.5 8.69999 269.8 9.39999C269.1 10.1 268.6 11 268.2 12C267.8 13 267.6 14.2 267.6 15.5C267.6 16.8 267.8 18 268.2 19C268.6 20 269.1 20.9 269.8 21.6C270.5 22.3 271.3 22.8 272.2 23.2C273.1 23.6 274.1 23.8 275.2 23.8C276.3 23.8 277.3 23.6 278.1 23.3C278.9 23 279.7 22.6 280.3 22.2L279.4 20.6C278.8 21 278.2 21.2 277.6 21.5C276.9 21.7 276.2 21.9 275.4 21.9C273.8 21.9 272.6 21.4 271.6 20.4C270.6 19.4 270.1 18 270 16.3V16.2H280.8C280.8 16 280.9 15.8 280.9 15.6C280.9 15.3 280.9 15 280.9 14.8C280.9 13.7 280.8 12.6 280.5 11.7C280.2 10.8 279.8 9.99999 279.3 9.39999C278.8 8.79999 278.1 8.29999 277.3 7.89999C276.6 7.29999 275.7 7.19999 274.7 7.19999ZM278.8 14.3H270V14.2C270.1 13.4 270.3 12.7 270.6 12.1C270.9 11.5 271.2 10.9 271.7 10.5C272.1 10.1 272.6 9.69999 273.1 9.49999C273.6 9.29999 274.2 9.19999 274.8 9.19999C276.1 9.19999 277.1 9.59999 277.8 10.5C278.5 11.4 278.9 12.6 278.9 14.3H278.8ZM270.3 14.1H278.7C278.7 12.6 278.3 11.4 277.7 10.6C277 9.79999 276.1 9.39999 274.9 9.39999C274.3 9.39999 273.8 9.49999 273.3 9.69999C272.8 9.89999 272.3 10.2 271.9 10.7C271.5 11.1 271.1 11.6 270.9 12.2C270.5 12.7 270.4 13.4 270.3 14.1Z" fill="#012A4C"/>
<path d="M290.1 30.9C289.1 30.9 288.2 30.8 287.4 30.6C286.6 30.4 285.9 30.1 285.3 29.8C284.7 29.4 284.3 29 283.9 28.4C283.6 27.9 283.4 27.3 283.4 26.6C283.4 25.9 283.6 25.3 284 24.7C284.4 24.1 285 23.5 285.7 23V22.9C285.3 22.7 285 22.3 284.7 21.9C284.4 21.5 284.3 20.9 284.3 20.3C284.3 19.6 284.5 19 284.9 18.5C285.3 18 285.7 17.6 286.1 17.3V17.2C285.6 16.8 285.1 16.2 284.7 15.4C284.3 14.7 284.1 13.8 284.1 12.8C284.1 11.9 284.3 11.1 284.6 10.4C284.9 9.69999 285.4 9.09999 285.9 8.59999C286.4 8.09999 287.1 7.69999 287.8 7.49999C288.5 7.19999 289.3 7.09999 290.1 7.09999C290.5 7.09999 291 7.09999 291.3 7.19999C291.6 7.29999 292 7.39999 292.3 7.49999H297.9V9.59999H294.6C295 9.99999 295.3 10.4 295.5 11C295.8 11.6 295.9 12.2 295.9 12.9C295.9 13.8 295.7 14.5 295.4 15.2C295.1 15.9 294.7 16.5 294.1 16.9C293.6 17.4 292.9 17.7 292.2 18C291.5 18.3 290.7 18.4 289.9 18.4C289.5 18.4 289.1 18.4 288.7 18.3C288.3 18.2 287.9 18.1 287.5 17.9C287.2 18.1 287 18.4 286.8 18.7C286.6 19 286.5 19.4 286.5 19.8C286.5 20.3 286.7 20.7 287.1 21.1C287.5 21.4 288.2 21.6 289.3 21.6H292.4C294.3 21.6 295.7 21.9 296.6 22.5C297.5 23.1 298 24.1 298 25.4C298 26.1 297.8 26.9 297.4 27.5C297 28.2 296.5 28.8 295.8 29.3C295.1 29.8 294.2 30.2 293.2 30.5C292.5 30.7 291.4 30.9 290.1 30.9ZM290.5 29C291.3 29 292 28.9 292.6 28.7C293.2 28.5 293.8 28.3 294.2 28C294.6 27.7 295 27.4 295.2 27C295.4 26.6 295.6 26.2 295.6 25.8C295.6 25.1 295.3 24.5 294.8 24.2C294.2 23.9 293.4 23.8 292.4 23.8H289.6C289.3 23.8 289 23.8 288.6 23.8C288.2 23.8 287.9 23.7 287.5 23.6C286.9 24 286.5 24.5 286.2 24.9C285.9 25.4 285.8 25.8 285.8 26.3C285.8 27.2 286.2 27.8 287 28.3C287.9 28.8 289 29 290.5 29ZM290.1 16.6C290.6 16.6 291 16.5 291.4 16.3C291.8 16.1 292.2 15.9 292.5 15.5C292.8 15.2 293.1 14.8 293.2 14.3C293.4 13.8 293.5 13.3 293.5 12.7C293.5 11.5 293.2 10.6 292.5 9.89999C291.8 9.29999 291 8.89999 290.1 8.89999C289.2 8.89999 288.4 9.19999 287.7 9.89999C287 10.6 286.7 11.5 286.7 12.7C286.7 13.3 286.8 13.8 287 14.3C287.2 14.8 287.4 15.2 287.7 15.5C288 15.8 288.4 16.1 288.8 16.3C289.2 16.5 289.6 16.6 290.1 16.6Z" fill="#012A4C"/>
<path d="M290.1 31C289.1 31 288.2 30.9 287.4 30.7C286.6 30.5 285.9 30.2 285.3 29.8C284.7 29.4 284.2 29 283.9 28.4C283.6 27.9 283.4 27.2 283.4 26.5C283.4 25.8 283.6 25.1 284 24.5C284.4 23.9 285 23.3 285.7 22.8C285.3 22.6 285 22.2 284.7 21.8C284.4 21.4 284.3 20.8 284.3 20.1C284.3 19.4 284.5 18.8 284.9 18.3C285.3 17.8 285.7 17.4 286.1 17.1C285.6 16.7 285.1 16.1 284.7 15.3C284.3 14.6 284 13.7 284 12.7C284 11.8 284.2 11 284.5 10.3C284.8 9.59999 285.3 8.99999 285.8 8.49999C286.4 7.99999 287 7.59999 287.8 7.29999C288.5 6.99999 289.3 6.89999 290.2 6.89999C290.6 6.89999 291.1 6.89999 291.5 6.99999C291.9 7.09999 292.2 7.19999 292.5 7.29999H298.2V9.59999H295C295.3 9.99999 295.6 10.4 295.8 10.9C296.1 11.5 296.2 12.1 296.2 12.8C296.2 13.7 296 14.5 295.7 15.2C295.4 15.9 295 16.5 294.4 17C293.9 17.5 293.2 17.9 292.5 18.1C291.8 18.4 291 18.5 290.2 18.5C289.8 18.5 289.4 18.4 289 18.3C288.6 18.2 288.2 18.1 287.9 17.9C287.6 18.1 287.4 18.4 287.2 18.6C287 18.9 286.9 19.2 286.9 19.7C286.9 20.2 287.1 20.6 287.5 20.9C287.9 21.2 288.6 21.4 289.7 21.4H292.8C294.7 21.4 296.1 21.7 297.1 22.3C298.1 22.9 298.5 23.9 298.5 25.3C298.5 26.1 298.3 26.8 297.9 27.5C297.5 28.2 297 28.8 296.3 29.3C295.6 29.8 294.7 30.2 293.7 30.5C292.5 30.8 291.4 31 290.1 31ZM290.1 7.19999C289.3 7.19999 288.5 7.29999 287.8 7.59999C287.1 7.89999 286.4 8.19999 285.9 8.69999C285.4 9.19999 284.9 9.79999 284.6 10.5C284.3 11.2 284.1 12 284.1 12.8C284.1 13.7 284.3 14.6 284.7 15.3C285.1 16 285.6 16.6 286.1 17V17.2C285.7 17.5 285.3 17.9 284.9 18.4C284.5 18.9 284.4 19.5 284.4 20.1C284.4 20.7 284.5 21.2 284.8 21.6C285.1 22 285.4 22.3 285.8 22.6V23C285.1 23.5 284.5 24.1 284.1 24.7C283.7 25.3 283.5 25.9 283.5 26.6C283.5 27.3 283.7 27.9 284 28.4C284.3 28.9 284.8 29.4 285.3 29.7C285.9 30.1 286.6 30.3 287.4 30.5C288.2 30.7 289.1 30.8 290.1 30.8C291.3 30.8 292.5 30.7 293.5 30.4C294.5 30.1 295.3 29.7 296 29.2C296.7 28.7 297.2 28.1 297.6 27.5C298 26.8 298.1 26.1 298.1 25.4C298.1 24.1 297.6 23.1 296.7 22.6C295.8 22 294.4 21.7 292.5 21.7H289.4C288.3 21.7 287.5 21.5 287.1 21.2C286.7 20.9 286.5 20.4 286.5 19.9C286.5 19.4 286.6 19.1 286.8 18.7C287 18.4 287.3 18.1 287.5 17.9H287.6C288 18.1 288.4 18.2 288.8 18.3C289.2 18.4 289.6 18.4 290 18.4C290.8 18.4 291.6 18.3 292.3 18C293 17.7 293.6 17.4 294.1 16.9C294.6 16.4 295 15.9 295.3 15.2C295.6 14.5 295.8 13.8 295.8 12.9C295.8 12.2 295.7 11.6 295.4 11.1C295.2 10.5 294.8 10.1 294.5 9.69999L294.3 9.49999H297.7V7.59999H292.2C291.9 7.49999 291.6 7.39999 291.2 7.29999C290.9 7.19999 290.5 7.19999 290.1 7.19999ZM290.5 29.1C289 29.1 287.9 28.8 287 28.3C286.1 27.8 285.7 27.1 285.7 26.2C285.7 25.7 285.8 25.2 286.1 24.8C286.4 24.3 286.8 23.9 287.4 23.4C287.7 23.5 288.1 23.6 288.5 23.6C288.9 23.6 289.2 23.6 289.5 23.6H292.3C293.4 23.6 294.2 23.7 294.8 24C295.4 24.3 295.7 24.9 295.7 25.6C295.7 26 295.6 26.5 295.3 26.9C295.1 27.3 294.7 27.7 294.2 28C293.8 28.3 293.2 28.6 292.6 28.7C292 29 291.3 29.1 290.5 29.1ZM287.5 23.6C287 24 286.6 24.4 286.3 24.9C286 25.3 285.9 25.8 285.9 26.2C285.9 27 286.3 27.7 287.1 28.2C287.9 28.7 289 28.9 290.5 28.9C291.3 28.9 292 28.8 292.6 28.6C293.2 28.4 293.7 28.2 294.2 27.9C294.6 27.6 295 27.3 295.2 26.9C295.4 26.5 295.5 26.1 295.5 25.7C295.5 25 295.2 24.5 294.7 24.2C294.2 23.9 293.4 23.8 292.3 23.8H289.5C289.2 23.8 288.8 23.8 288.5 23.7C288.2 23.8 287.9 23.7 287.5 23.6ZM290.1 16.7C289.6 16.7 289.2 16.6 288.8 16.4C288.4 16.2 288 16 287.7 15.6C287.4 15.3 287.1 14.8 286.9 14.4C286.7 13.9 286.6 13.4 286.6 12.8C286.6 11.6 286.9 10.6 287.6 9.99999C288.3 9.29999 289.1 8.99999 290.1 8.99999C291.1 8.99999 291.9 9.29999 292.6 9.99999C293.3 10.7 293.6 11.6 293.6 12.8C293.6 13.4 293.5 14 293.3 14.4C293.1 14.9 292.9 15.3 292.5 15.6C292.2 15.9 291.8 16.2 291.4 16.4C291 16.6 290.6 16.7 290.1 16.7ZM290.1 9.09999C289.2 9.09999 288.4 9.39999 287.8 9.99999C287.2 10.6 286.8 11.5 286.8 12.7C286.8 13.3 286.9 13.8 287.1 14.3C287.3 14.8 287.5 15.2 287.8 15.5C288.1 15.8 288.5 16.1 288.9 16.2C289.7 16.5 290.6 16.5 291.4 16.2C291.8 16 292.1 15.8 292.5 15.5C292.8 15.2 293 14.8 293.2 14.3C293.4 13.8 293.5 13.3 293.5 12.7C293.5 11.5 293.2 10.6 292.5 9.99999C291.8 9.49999 291 9.09999 290.1 9.09999Z" fill="#012A4C"/>
<path d="M302.6 4.19999C302.1 4.19999 301.6 3.99999 301.3 3.69999C300.9 3.39999 300.8 2.99999 300.8 2.39999C300.8 1.89999 301 1.39999 301.3 1.09999C301.7 0.799991 302.1 0.599991 302.6 0.599991C303.1 0.599991 303.6 0.799991 303.9 1.09999C304.3 1.39999 304.4 1.79999 304.4 2.39999C304.4 2.89999 304.2 3.29999 303.9 3.69999C303.6 3.99999 303.2 4.19999 302.6 4.19999ZM301.3 23.5V7.49999H304V23.5H301.3Z" fill="#012A4C"/>
<path d="M304.1 23.6H301.2V7.4H304.1V23.6ZM301.4 23.4H303.9V7.6H301.4V23.4ZM302.6 4.3C302 4.3 301.6 4.1 301.2 3.8C300.8 3.5 300.6 3 300.6 2.5C300.6 1.9 300.8 1.5 301.2 1.2C301.6 0.899997 302.1 0.699997 302.6 0.699997C303.2 0.699997 303.6 0.899997 304 1.2C304.4 1.5 304.6 2 304.6 2.5C304.6 3 304.4 3.5 304 3.8C303.7 4.1 303.2 4.3 302.6 4.3ZM302.6 0.799997C302.1 0.799997 301.7 0.999997 301.3 1.3C301 1.6 300.8 2 300.8 2.5C300.8 3 301 3.4 301.3 3.7C301.6 4 302.1 4.2 302.6 4.2C303.1 4.2 303.5 4 303.9 3.7C304.2 3.4 304.4 3 304.4 2.5C304.4 2 304.2 1.6 303.9 1.3C303.6 0.899997 303.1 0.799997 302.6 0.799997Z" fill="#012A4C"/>
<path d="M313 23.9C311.7 23.9 310.5 23.5 309.7 22.7C308.8 21.9 308.4 20.8 308.4 19.3C308.4 17.5 309.2 16.2 310.7 15.3C312.3 14.4 314.8 13.7 318.2 13.3C318.2 12.8 318.2 12.3 318.1 11.8C318 11.3 317.8 10.9 317.6 10.5C317.4 10.1 317 9.8 316.6 9.6C316.2 9.4 315.6 9.3 315 9.3C314.1 9.3 313.2 9.5 312.4 9.8C311.6 10.2 310.9 10.5 310.2 11L309 9.1C309.7 8.6 310.7 8.1 311.7 7.7C312.8 7.2 314 7 315.3 7C317.3 7 318.7 7.6 319.6 8.8C320.5 10 320.9 11.6 320.9 13.6V23.4H318.7L318.5 21.5H318.4C317.6 22.1 316.8 22.7 315.9 23.1C315 23.7 314 23.9 313 23.9ZM313.8 21.7C314.6 21.7 315.3 21.5 316 21.2C316.7 20.8 317.4 20.3 318.2 19.6V15.1C316.9 15.3 315.7 15.5 314.8 15.7C313.9 15.9 313.1 16.2 312.6 16.6C312 16.9 311.6 17.3 311.4 17.7C311.1 18.1 311 18.6 311 19.1C311 20 311.3 20.7 311.8 21.1C312.3 21.5 313 21.7 313.8 21.7Z" fill="#012A4C"/>
<path d="M313 24C311.6 24 310.5 23.6 309.6 22.8C308.7 22 308.2 20.8 308.2 19.4C308.2 17.6 309 16.2 310.6 15.3C312.2 14.4 314.7 13.7 318 13.3C318 12.8 317.9 12.4 317.9 11.9C317.8 11.4 317.6 11 317.4 10.6C317.2 10.2 316.8 9.89999 316.4 9.69999C316 9.49999 315.5 9.39999 314.8 9.39999C313.9 9.39999 313 9.59999 312.2 9.89999C311.4 10.2 310.7 10.6 310 11.1L309.9 11.2L308.7 9.09999L308.8 8.99999C309.5 8.49999 310.5 7.99999 311.6 7.59999C312.7 7.09999 313.9 6.89999 315.2 6.89999C317.2 6.89999 318.6 7.49999 319.5 8.69999C320.4 9.89999 320.8 11.5 320.8 13.6V23.5H318.4L318.2 21.6C317.4 22.2 316.6 22.8 315.8 23.2C315 23.8 314 24 313 24ZM314.9 9.19999C315.6 9.19999 316.1 9.29999 316.6 9.59999C317 9.79999 317.4 10.2 317.6 10.5C317.8 10.9 318 11.3 318.1 11.8C318.2 12.3 318.3 12.8 318.3 13.3V13.4H318.2C314.8 13.8 312.3 14.4 310.7 15.3C309.2 16.2 308.4 17.5 308.4 19.3C308.4 20.7 308.8 21.8 309.7 22.6C310.6 23.4 311.7 23.8 313 23.8C314 23.8 314.9 23.6 315.8 23.1C316.7 22.7 317.5 22.1 318.3 21.5H318.5L318.7 23.4H320.8V13.7C320.8 11.7 320.4 10.1 319.5 8.99999C318.6 7.79999 317.2 7.19999 315.3 7.19999C314 7.19999 312.8 7.39999 311.8 7.89999C310.8 8.29999 309.9 8.79999 309.2 9.19999L310.2 10.9C310.8 10.5 311.5 10.1 312.3 9.79999C313 9.39999 313.9 9.19999 314.9 9.19999ZM313.8 21.8C313 21.8 312.3 21.6 311.7 21.2C311.1 20.8 310.8 20.1 310.8 19.1C310.8 18.6 310.9 18.1 311.2 17.6C311.5 17.2 311.9 16.8 312.5 16.4C313.1 16.1 313.8 15.8 314.7 15.5C315.6 15.3 316.7 15 318.1 14.9H318.2V19.5C317.4 20.2 316.7 20.7 316 21.1C315.3 21.6 314.6 21.8 313.8 21.8ZM318.1 15.2C316.8 15.4 315.7 15.6 314.8 15.8C313.9 16 313.2 16.3 312.6 16.6C312.1 16.9 311.7 17.3 311.4 17.7C311.2 18.1 311 18.6 311 19.1C311 20 311.3 20.6 311.8 21C312.3 21.4 313 21.6 313.8 21.6C314.5 21.6 315.3 21.4 315.9 21.1C316.6 20.7 317.3 20.2 318 19.5V15.2H318.1Z" fill="#012A4C"/>
<path d="M325.9 23.5V7.50001H328.1L328.3 9.80001H328.4C329.2 9.00001 330 8.40001 330.8 7.90001C331.6 7.40001 332.6 7.10001 333.8 7.10001C335.5 7.10001 336.7 7.60001 337.5 8.70001C338.3 9.80001 338.7 11.3 338.7 13.4V23.6H336V13.8C336 12.3 335.8 11.2 335.3 10.5C334.8 9.80001 334 9.50001 333 9.50001C332.2 9.50001 331.4 9.70001 330.8 10.1C330.2 10.5 329.4 11.1 328.6 11.9V23.5H325.9Z" fill="#012A4C"/>
<path d="M338.8 23.6H335.9V13.7C335.9 12.2 335.7 11.1 335.2 10.5C334.7 9.9 334 9.5 333 9.5C332.2 9.5 331.5 9.7 330.8 10.1C330.2 10.5 329.5 11.1 328.7 11.9V23.6H325.8V7.4H328.2L328.4 9.7C329.2 9 330 8.3 330.8 7.8C331.7 7.3 332.7 7 333.8 7C335.5 7 336.8 7.5 337.6 8.6C338.4 9.7 338.8 11.3 338.8 13.3V23.6ZM336.1 23.4H338.6V13.3C338.6 11.3 338.2 9.7 337.4 8.7C336.6 7.7 335.4 7.2 333.8 7.2C332.7 7.2 331.7 7.5 330.9 8C330.1 8.5 329.3 9.2 328.5 9.9H328.3L328 7.6H326V23.4H328.5V11.8C329.3 11 330.1 10.4 330.7 9.9C331.4 9.5 332.1 9.3 333 9.3C334.1 9.3 334.9 9.7 335.4 10.3C335.9 11 336.1 12.1 336.1 13.6V23.4V23.4Z" fill="#012A4C"/>
<path d="M347.8 23.5L355.1 1.89999H358.2L365.5 23.5H362.6L360.6 16.9H352.7L350.6 23.5H347.8ZM354.4 11.4L353.4 14.7H359.9L358.9 11.4C358.5 10.2 358.1 8.99999 357.8 7.79999C357.4 6.59999 357.1 5.39999 356.7 4.09999H356.6C356.3 5.39999 355.9 6.59999 355.6 7.79999C355.2 8.99999 354.8 10.2 354.4 11.4Z" fill="#012A4C"/>
<path d="M365.7 23.6H362.6V23.5L360.6 17H352.9L350.8 23.6H347.8V23.5L355 1.7H358.2V1.8L365.7 23.6ZM362.7 23.4H365.4L358.1 2H355.1L347.8 23.4H350.4L352.5 16.8H360.5V16.9L362.7 23.4ZM360 14.8H353.2L354.3 11.4C354.7 10.2 355.1 9 355.4 7.8C355.7 6.6 356.1 5.4 356.4 4.1V4H356.7V4.1C357.1 5.4 357.4 6.6 357.8 7.8C358.1 9 358.5 10.2 358.9 11.4L360 14.8ZM353.5 14.6H359.7L358.7 11.4C358.3 10.2 357.9 9 357.6 7.8C357.3 6.7 356.9 5.5 356.6 4.2C356.3 5.4 355.9 6.6 355.6 7.8C355.2 9 354.9 10.2 354.5 11.4L353.5 14.6Z" fill="#012A4C"/>
<path d="M373.7 30.9C372.7 30.9 371.8 30.8 371 30.6C370.2 30.4 369.5 30.1 368.9 29.8C368.3 29.4 367.9 29 367.5 28.4C367.2 27.9 367 27.3 367 26.6C367 25.9 367.2 25.3 367.6 24.7C368 24.1 368.6 23.5 369.3 23V22.9C368.9 22.7 368.6 22.3 368.3 21.9C368 21.5 367.9 20.9 367.9 20.3C367.9 19.6 368.1 19 368.5 18.5C368.9 18 369.3 17.6 369.7 17.3V17.2C369.2 16.8 368.7 16.2 368.3 15.4C367.9 14.7 367.7 13.8 367.7 12.8C367.7 11.9 367.9 11.1 368.2 10.4C368.5 9.69999 369 9.09999 369.5 8.59999C370 8.09999 370.7 7.69999 371.4 7.49999C372.1 7.19999 372.9 7.09999 373.7 7.09999C374.1 7.09999 374.6 7.09999 374.9 7.19999C375.2 7.29999 375.6 7.39999 375.9 7.49999H381.5V9.59999H378.2C378.6 9.99999 378.9 10.4 379.1 11C379.4 11.6 379.5 12.2 379.5 12.9C379.5 13.8 379.3 14.5 379 15.2C378.7 15.9 378.3 16.5 377.7 16.9C377.2 17.4 376.5 17.7 375.8 18C375.1 18.3 374.3 18.4 373.5 18.4C373.1 18.4 372.7 18.4 372.3 18.3C371.9 18.2 371.5 18.1 371.1 17.9C370.8 18.1 370.6 18.4 370.4 18.7C370.2 19 370.1 19.4 370.1 19.8C370.1 20.3 370.3 20.7 370.7 21.1C371.1 21.4 371.8 21.6 372.9 21.6H376C377.9 21.6 379.3 21.9 380.2 22.5C381.1 23.1 381.6 24.1 381.6 25.4C381.6 26.1 381.4 26.9 381 27.5C380.6 28.2 380.1 28.8 379.4 29.3C378.7 29.8 377.8 30.2 376.8 30.5C376.1 30.7 374.9 30.9 373.7 30.9ZM374.1 29C374.9 29 375.6 28.9 376.2 28.7C376.8 28.5 377.4 28.3 377.8 28C378.2 27.7 378.6 27.4 378.8 27C379 26.6 379.2 26.2 379.2 25.8C379.2 25.1 378.9 24.5 378.4 24.2C377.8 23.9 377 23.8 376 23.8H373.2C372.9 23.8 372.6 23.8 372.2 23.8C371.8 23.8 371.5 23.7 371.1 23.6C370.5 24 370.1 24.5 369.8 24.9C369.5 25.4 369.4 25.8 369.4 26.3C369.4 27.2 369.8 27.8 370.6 28.3C371.5 28.8 372.6 29 374.1 29ZM373.7 16.6C374.2 16.6 374.6 16.5 375 16.3C375.4 16.1 375.8 15.9 376.1 15.5C376.4 15.2 376.7 14.8 376.8 14.3C377 13.8 377.1 13.3 377.1 12.7C377.1 11.5 376.8 10.6 376.1 9.89999C375.4 9.29999 374.6 8.89999 373.7 8.89999C372.8 8.89999 372 9.19999 371.3 9.89999C370.6 10.6 370.3 11.5 370.3 12.7C370.3 13.3 370.4 13.8 370.6 14.3C370.8 14.8 371 15.2 371.3 15.5C371.6 15.8 372 16.1 372.4 16.3C372.8 16.5 373.2 16.6 373.7 16.6Z" fill="#012A4C"/>
<path d="M373.7 31C372.7 31 371.8 30.9 371 30.7C370.2 30.5 369.5 30.2 368.9 29.8C368.3 29.4 367.8 29 367.5 28.4C367.2 27.9 367 27.2 367 26.5C367 25.8 367.2 25.1 367.6 24.5C368 23.9 368.6 23.3 369.3 22.8C368.9 22.6 368.6 22.2 368.3 21.8C368 21.4 367.9 20.8 367.9 20.1C367.9 19.4 368.1 18.8 368.5 18.3C368.9 17.8 369.3 17.4 369.7 17.1C369.2 16.7 368.7 16.1 368.3 15.3C367.9 14.6 367.6 13.7 367.6 12.7C367.6 11.8 367.8 11 368.1 10.3C368.4 9.59999 368.9 8.99999 369.4 8.49999C370 7.99999 370.6 7.59999 371.4 7.29999C372.1 6.99999 372.9 6.89999 373.8 6.89999C374.2 6.89999 374.7 6.89999 375.1 6.99999C375.5 7.09999 375.8 7.19999 376.1 7.29999H381.8V9.59999H378.6C378.9 9.99999 379.2 10.4 379.4 10.9C379.7 11.5 379.8 12.1 379.8 12.8C379.8 13.7 379.6 14.5 379.3 15.2C379 15.9 378.6 16.5 378 17C377.5 17.5 376.8 17.9 376.1 18.1C375.4 18.4 374.6 18.5 373.8 18.5C373.4 18.5 373 18.4 372.6 18.3C372.2 18.2 371.8 18.1 371.5 17.9C371.2 18.1 371 18.4 370.8 18.6C370.6 18.9 370.5 19.2 370.5 19.7C370.5 20.2 370.7 20.6 371.1 20.9C371.5 21.2 372.2 21.4 373.3 21.4H376.4C378.3 21.4 379.7 21.7 380.7 22.3C381.7 22.9 382.1 23.9 382.1 25.3C382.1 26.1 381.9 26.8 381.5 27.5C381.1 28.2 380.6 28.8 379.9 29.3C379.2 29.8 378.3 30.2 377.3 30.5C376.1 30.8 374.9 31 373.7 31ZM373.7 7.19999C372.9 7.19999 372.1 7.29999 371.4 7.59999C370.7 7.89999 370 8.19999 369.5 8.69999C369 9.19999 368.5 9.79999 368.2 10.5C367.9 11.2 367.7 12 367.7 12.8C367.7 13.7 367.9 14.6 368.3 15.3C368.7 16 369.2 16.6 369.7 17V17.2C369.3 17.5 368.9 17.9 368.5 18.4C368.1 18.9 368 19.5 368 20.1C368 20.7 368.1 21.2 368.4 21.6C368.7 22 369 22.3 369.4 22.6V23C368.7 23.5 368.1 24.1 367.7 24.7C367.3 25.3 367.1 25.9 367.1 26.6C367.1 27.3 367.3 27.9 367.6 28.4C367.9 28.9 368.4 29.4 368.9 29.7C369.5 30.1 370.2 30.3 371 30.5C371.8 30.7 372.7 30.8 373.7 30.8C374.9 30.8 376.1 30.7 377.1 30.4C378.1 30.1 378.9 29.7 379.6 29.2C380.3 28.7 380.8 28.1 381.2 27.5C381.6 26.8 381.7 26.1 381.7 25.4C381.7 24.1 381.2 23.1 380.3 22.6C379.4 22 378 21.7 376.1 21.7H373C371.9 21.7 371.1 21.5 370.7 21.2C370.3 20.9 370.1 20.4 370.1 19.9C370.1 19.4 370.2 19.1 370.4 18.7C370.6 18.4 370.9 18.1 371.1 17.9H371.2C371.6 18.1 372 18.2 372.4 18.3C372.8 18.4 373.2 18.4 373.6 18.4C374.4 18.4 375.2 18.3 375.9 18C376.6 17.7 377.2 17.4 377.7 16.9C378.2 16.4 378.6 15.9 378.9 15.2C379.2 14.5 379.4 13.8 379.4 12.9C379.4 12.2 379.3 11.6 379 11.1C378.8 10.5 378.4 10.1 378.1 9.69999L378 9.39999H381.4V7.59999H375.9C375.6 7.49999 375.3 7.39999 374.9 7.29999C374.5 7.19999 374.1 7.19999 373.7 7.19999ZM374.1 29.1C372.6 29.1 371.5 28.8 370.6 28.3C369.7 27.8 369.3 27.1 369.3 26.2C369.3 25.7 369.4 25.2 369.7 24.8C370 24.3 370.4 23.9 371 23.4C371.3 23.5 371.7 23.6 372.1 23.6C372.5 23.6 372.8 23.6 373.1 23.6H375.9C377 23.6 377.8 23.7 378.4 24C379 24.3 379.3 24.9 379.3 25.6C379.3 26 379.2 26.5 378.9 26.9C378.7 27.3 378.3 27.7 377.8 28C377.4 28.3 376.8 28.6 376.2 28.7C375.6 29 374.9 29.1 374.1 29.1ZM371.1 23.6C370.6 24 370.2 24.4 369.9 24.9C369.6 25.3 369.5 25.8 369.5 26.2C369.5 27 369.9 27.7 370.7 28.2C371.5 28.7 372.6 28.9 374.1 28.9C374.9 28.9 375.6 28.8 376.2 28.6C376.8 28.4 377.3 28.2 377.8 27.9C378.2 27.6 378.6 27.3 378.8 26.9C379 26.5 379.1 26.1 379.1 25.7C379.1 25 378.8 24.5 378.3 24.2C377.8 23.9 377 23.8 375.9 23.8H373.1C372.8 23.8 372.4 23.8 372.1 23.7C371.8 23.8 371.4 23.7 371.1 23.6ZM373.7 16.7C373.2 16.7 372.8 16.6 372.4 16.4C372 16.2 371.6 16 371.3 15.6C371 15.3 370.7 14.8 370.5 14.4C370.3 13.9 370.2 13.4 370.2 12.8C370.2 11.6 370.5 10.6 371.2 9.99999C371.9 9.29999 372.7 8.99999 373.7 8.99999C374.7 8.99999 375.5 9.29999 376.2 9.99999C376.9 10.7 377.2 11.6 377.2 12.8C377.2 13.4 377.1 14 376.9 14.4C376.7 14.9 376.5 15.3 376.1 15.6C375.8 15.9 375.4 16.2 375 16.4C374.6 16.6 374.2 16.7 373.7 16.7ZM373.7 9.09999C372.8 9.09999 372 9.39999 371.4 9.99999C370.8 10.6 370.4 11.5 370.4 12.7C370.4 13.3 370.5 13.8 370.7 14.3C370.9 14.8 371.1 15.2 371.4 15.5C371.7 15.8 372.1 16.1 372.5 16.2C373.3 16.5 374.2 16.5 375 16.2C375.4 16 375.7 15.8 376.1 15.5C376.5 15.2 376.6 14.8 376.8 14.3C377 13.8 377.1 13.3 377.1 12.7C377.1 11.5 376.8 10.6 376.1 9.99999C375.4 9.49999 374.6 9.09999 373.7 9.09999Z" fill="#012A4C"/>
<path d="M390.9 23.9C389.8 23.9 388.8 23.7 387.9 23.3C387 22.9 386.2 22.4 385.5 21.7C384.8 21 384.3 20.1 383.9 19.1C383.5 18.1 383.3 16.9 383.3 15.6C383.3 14.3 383.5 13.1 383.9 12.1C384.3 11.1 384.8 10.2 385.5 9.39999C386.2 8.59999 386.9 8.09999 387.8 7.69999C388.7 7.29999 389.5 7.09999 390.5 7.09999C391.5 7.09999 392.4 7.29999 393.2 7.59999C394 7.99999 394.7 8.49999 395.2 9.09999C395.7 9.79999 396.2 10.6 396.4 11.5C396.7 12.4 396.8 13.5 396.8 14.6C396.8 14.9 396.8 15.2 396.8 15.4C396.8 15.7 396.8 15.9 396.7 16.1H385.9C386 17.8 386.5 19.2 387.5 20.2C388.5 21.2 389.7 21.7 391.2 21.7C392 21.7 392.7 21.6 393.3 21.4C393.9 21.2 394.6 20.9 395.2 20.5L396.2 22.3C395.5 22.7 394.7 23.1 393.9 23.5C393 23.7 392 23.9 390.9 23.9ZM385.8 14.2H394.4C394.4 12.6 394.1 11.3 393.4 10.5C392.7 9.69999 391.7 9.19999 390.5 9.19999C389.9 9.19999 389.4 9.29999 388.9 9.49999C388.4 9.69999 387.9 9.99999 387.5 10.5C387.1 10.9 386.7 11.5 386.5 12.1C386.1 12.7 385.9 13.4 385.8 14.2Z" fill="#012A4C"/>
<path d="M390.9 24C389.8 24 388.8 23.8 387.8 23.4C386.9 23 386 22.5 385.3 21.7C384.6 21 384 20.1 383.6 19C383.2 18 383 16.8 383 15.4C383 14.1 383.2 12.9 383.6 11.8C384 10.7 384.6 9.79999 385.2 9.09999C385.9 8.39999 386.7 7.79999 387.5 7.39999C388.4 6.99999 389.3 6.79999 390.2 6.79999C391.2 6.79999 392.2 6.99999 393 7.29999C393.8 7.69999 394.5 8.19999 395 8.79999C395.5 9.49999 396 10.3 396.3 11.2C396.6 12.1 396.7 13.2 396.7 14.3C396.7 14.6 396.7 14.9 396.7 15.1C396.7 15.4 396.7 15.6 396.6 15.8V15.9H386C386.1 17.5 386.6 18.8 387.6 19.8C388.5 20.8 389.8 21.3 391.3 21.3C392.1 21.3 392.8 21.2 393.4 21C394 20.8 394.7 20.5 395.2 20.1L395.3 20L396.4 22H396.3C395.6 22.4 394.8 22.8 393.9 23.2C393 23.8 392 24 390.9 24ZM390.4 7.19999C389.5 7.19999 388.6 7.39999 387.8 7.79999C387 8.19999 386.2 8.69999 385.5 9.39999C384.8 10.1 384.3 11 383.9 12C383.5 13 383.3 14.2 383.3 15.5C383.3 16.8 383.5 18 383.9 19C384.3 20 384.8 20.9 385.5 21.6C386.2 22.3 387 22.8 387.9 23.2C388.8 23.6 389.8 23.8 390.9 23.8C392 23.8 393 23.6 393.8 23.3C394.6 23 395.4 22.6 396 22.2L395.1 20.6C394.5 21 393.9 21.2 393.3 21.5C392.6 21.7 391.9 21.9 391.1 21.9C389.5 21.9 388.3 21.4 387.3 20.4C386.3 19.4 385.8 18 385.7 16.3V16.2H396.5C396.5 16 396.6 15.8 396.6 15.6C396.6 15.3 396.6 15 396.6 14.8C396.6 13.7 396.5 12.6 396.2 11.7C395.9 10.8 395.5 9.99999 395 9.39999C394.5 8.79999 393.8 8.29999 393 7.89999C392.3 7.29999 391.4 7.19999 390.4 7.19999ZM394.5 14.3H385.7V14.2C385.8 13.4 386 12.7 386.3 12.1C386.6 11.5 386.9 10.9 387.4 10.5C387.8 10.1 388.3 9.69999 388.8 9.49999C389.3 9.29999 389.9 9.19999 390.5 9.19999C391.8 9.19999 392.8 9.59999 393.5 10.5C394.2 11.4 394.6 12.6 394.6 14.3H394.5ZM385.9 14.1H394.3C394.3 12.6 393.9 11.4 393.3 10.6C392.6 9.79999 391.7 9.39999 390.5 9.39999C389.9 9.39999 389.4 9.49999 388.9 9.69999C388.4 9.89999 387.9 10.2 387.5 10.7C387.1 11.1 386.7 11.6 386.5 12.2C386.2 12.7 386 13.4 385.9 14.1Z" fill="#012A4C"/>
<path d="M400.7 23.5V7.50001H402.9L403.1 9.80001H403.2C404 9.00001 404.8 8.40001 405.6 7.90001C406.4 7.40001 407.4 7.10001 408.6 7.10001C410.3 7.10001 411.5 7.60001 412.3 8.70001C413.1 9.80001 413.5 11.3 413.5 13.4V23.6H410.8V13.8C410.8 12.3 410.6 11.2 410.1 10.5C409.6 9.80001 408.8 9.50001 407.8 9.50001C407 9.50001 406.2 9.70001 405.6 10.1C405 10.5 404.2 11.1 403.4 11.9V23.5H400.7Z" fill="#012A4C"/>
<path d="M413.6 23.6H410.7V13.7C410.7 12.2 410.5 11.1 410 10.5C409.5 9.9 408.8 9.5 407.8 9.5C407 9.5 406.3 9.7 405.6 10.1C405 10.5 404.3 11.1 403.5 11.9V23.6H400.6V7.4H403L403.2 9.7C404 9 404.8 8.3 405.6 7.8C406.5 7.3 407.5 7 408.6 7C410.3 7 411.6 7.5 412.4 8.6C413.2 9.7 413.6 11.3 413.6 13.3V23.6ZM410.9 23.4H413.4V13.3C413.4 11.3 413 9.7 412.2 8.7C411.4 7.7 410.2 7.2 408.6 7.2C407.5 7.2 406.5 7.5 405.7 8C404.9 8.5 404.1 9.2 403.3 9.9H403.1L402.9 7.6H400.8V23.4H403.3V11.8C404.1 11 404.9 10.4 405.5 9.9C406.2 9.5 406.9 9.3 407.8 9.3C408.9 9.3 409.7 9.7 410.2 10.3C410.7 11 410.9 12.1 410.9 13.6V23.4Z" fill="#012A4C"/>
<path d="M425 23.9C423.9 23.9 423 23.7 422 23.3C421 22.9 420.3 22.4 419.6 21.7C418.9 21 418.4 20.1 418 19.1C417.6 18.1 417.4 16.9 417.4 15.6C417.4 14.3 417.6 13.1 418 12C418.4 10.9 419 10.1 419.7 9.29999C420.4 8.49999 421.2 7.99999 422.2 7.69999C423.1 7.29999 424.1 7.09999 425.2 7.09999C426.3 7.09999 427.2 7.29999 427.9 7.69999C428.6 8.09999 429.3 8.49999 429.9 8.99999L428.5 10.8C428 10.4 427.5 9.99999 427 9.79999C426.5 9.59999 425.9 9.39999 425.3 9.39999C424.6 9.39999 423.9 9.49999 423.3 9.79999C422.7 10.1 422.2 10.5 421.7 11.1C421.3 11.7 420.9 12.3 420.7 13.1C420.4 13.9 420.3 14.7 420.3 15.6C420.3 16.5 420.4 17.4 420.7 18.1C420.9 18.8 421.3 19.5 421.7 20C422.1 20.5 422.7 21 423.3 21.3C423.9 21.6 424.6 21.7 425.3 21.7C426 21.7 426.7 21.5 427.4 21.2C428 20.9 428.6 20.5 429.1 20.1L430.3 21.9C429.6 22.5 428.8 23 427.9 23.4C426.9 23.7 426 23.9 425 23.9Z" fill="#012A4C"/>
<path d="M425 24C423.9 24 422.9 23.8 422 23.4C421.1 23 420.2 22.5 419.6 21.7C418.9 21 418.4 20.1 418 19C417.6 17.9 417.4 16.7 417.4 15.4C417.4 14.1 417.6 12.8 418 11.8C418.4 10.8 419 9.79999 419.7 9.09999C420.4 8.39999 421.2 7.79999 422.2 7.39999C423.1 6.99999 424.1 6.79999 425.2 6.79999C426.3 6.79999 427.2 6.99999 428 7.39999C428.8 7.79999 429.4 8.19999 430 8.69999L430.1 8.79999L428.6 10.7L428.5 10.6C428 10.2 427.6 9.89999 427.1 9.59999C426.6 9.29999 426 9.19999 425.4 9.19999C424.7 9.19999 424 9.29999 423.4 9.59999C422.8 9.89999 422.3 10.3 421.9 10.8C421.5 11.3 421.1 12 420.9 12.7C420.7 13.4 420.5 14.3 420.5 15.2C420.5 16.1 420.6 16.9 420.9 17.7C421.1 18.4 421.5 19.1 421.9 19.6C422.3 20.1 422.8 20.5 423.4 20.8C424 21.1 424.7 21.2 425.4 21.2C426.1 21.2 426.8 21 427.4 20.7C428 20.4 428.6 20 429.1 19.6L429.2 19.5L430.5 21.5L430.4 21.6C429.7 22.2 428.9 22.8 428 23.1C426.9 23.8 426 24 425 24ZM425.2 7.19999C424.2 7.19999 423.2 7.39999 422.3 7.79999C421.4 8.19999 420.6 8.69999 419.9 9.39999C419.2 10.1 418.6 11 418.2 12C417.8 13 417.6 14.2 417.6 15.5C417.6 16.8 417.8 18 418.2 19C418.6 20 419.1 20.9 419.8 21.6C420.5 22.3 421.3 22.8 422.2 23.2C423.1 23.6 424.1 23.8 425.1 23.8C426 23.8 427 23.6 427.8 23.3C428.6 23 429.4 22.5 430.1 21.9L429 20.3C428.5 20.7 428 21.1 427.4 21.4C426.8 21.7 426.1 21.9 425.3 21.9C424.6 21.9 423.9 21.7 423.2 21.4C422.6 21.1 422 20.7 421.6 20.1C421.2 19.6 420.8 18.9 420.6 18.1C420.4 17.3 420.2 16.5 420.2 15.6C420.2 14.7 420.3 13.8 420.6 13C420.9 12.2 421.2 11.6 421.7 11C422.1 10.4 422.7 9.99999 423.3 9.69999C423.9 9.39999 424.6 9.19999 425.4 9.19999C426.1 9.19999 426.6 9.29999 427.2 9.59999C427.7 9.89999 428.2 10.2 428.6 10.6L429.9 8.99999C429.4 8.49999 428.7 8.09999 428 7.79999C427.1 7.29999 426.2 7.19999 425.2 7.19999Z" fill="#012A4C"/>
<path d="M434.1 30.4C433.7 30.4 433.4 30.4 433.1 30.3C432.8 30.2 432.5 30.2 432.2 30.1L432.7 28C432.9 28 433.1 28.1 433.3 28.1C433.5 28.2 433.7 28.2 433.9 28.2C434.8 28.2 435.6 27.9 436.2 27.2C436.8 26.6 437.2 25.7 437.6 24.7L438 23.5L431.6 7.39999H434.4L437.7 16.3C437.9 17 438.2 17.7 438.5 18.5C438.8 19.3 439 20 439.3 20.8H439.4C439.6 20.1 439.9 19.3 440.1 18.5C440.3 17.7 440.5 17 440.8 16.3L443.7 7.39999H446.3L440.3 24.8C440 25.6 439.7 26.3 439.3 27C438.9 27.7 438.5 28.3 438 28.8C437.5 29.3 437 29.7 436.4 30C435.6 30.2 434.9 30.4 434.1 30.4Z" fill="#012A4C"/>
<path d="M434.1 30.5C433.7 30.5 433.4 30.5 433.1 30.4C432.8 30.3 432.5 30.3 432.2 30.1H432.1L432.7 27.8L433.4 28C433.6 28.1 433.8 28.1 434 28.1C434.9 28.1 435.6 27.8 436.2 27.2C436.8 26.6 437.2 25.7 437.5 24.8L437.9 23.6L431.4 7.39999H434.4V7.49999L437.7 16.4C437.9 17.1 438.2 17.8 438.5 18.6C438.8 19.3 439 20.1 439.2 20.8C439.4 20.1 439.7 19.4 439.9 18.6C440.1 17.8 440.3 17.1 440.6 16.4L443.5 7.49999H446.4V7.59999L440.4 25C440.1 25.8 439.8 26.5 439.4 27.2C439 27.9 438.6 28.5 438.1 29C437.6 29.5 437 29.9 436.4 30.2C435.7 30.3 434.9 30.5 434.1 30.5ZM432.3 30C432.5 30.1 432.8 30.2 433.1 30.2C433.4 30.3 433.7 30.3 434.1 30.3C434.9 30.3 435.6 30.2 436.2 29.9C436.8 29.6 437.3 29.2 437.8 28.7C438.3 28.2 438.7 27.6 439 27C439.3 26.3 439.7 25.6 440 24.8L446 7.59999H443.6L440.8 16.4C440.6 17.1 440.4 17.9 440.1 18.6C439.9 19.4 439.7 20.1 439.4 20.9V21H439.1V20.9C438.9 20.1 438.6 19.4 438.3 18.6C438 17.8 437.8 17.1 437.5 16.4L434.3 7.59999H431.7L438.1 23.6L437.7 24.8C437.4 25.8 436.9 26.6 436.3 27.3C435.7 28 434.9 28.3 434 28.3C433.8 28.3 433.6 28.3 433.3 28.2L432.8 28.1L432.3 30Z" fill="#012A4C"/>
<path d="M136.2 61.3V47.5H134V45.5L136.2 45.3V42.8C136.2 41.2 136.6 39.9 137.3 38.9C138.1 38 139.2 37.5 140.8 37.5C141.3 37.5 141.8 37.5 142.2 37.6C142.7 37.7 143.1 37.8 143.4 38L143 40C142.4 39.7 141.8 39.6 141.2 39.6C139.7 39.6 139 40.6 139 42.7V45.2H142.4V47.4H139V61.2H136.2V61.3Z" fill="#012A4C"/>
<path d="M139 61.4H136.1V47.6H133.9V45.4L136.1 45.2V42.8C136.1 41.1 136.5 39.8 137.3 38.8C138.1 37.8 139.3 37.3 140.9 37.3C141.4 37.3 141.9 37.4 142.4 37.5C142.8 37.6 143.3 37.7 143.7 37.9H143.8L143.1 40.2H143C142.4 39.9 141.8 39.8 141.2 39.8C139.8 39.8 139.1 40.8 139.1 42.8V45.2H142.5V47.6H139V61.4ZM136.3 61.2H138.8V47.4H142.2V45.4H138.8V42.8C138.8 40.7 139.6 39.6 141.1 39.6C141.7 39.6 142.3 39.7 142.8 40L143.3 38.1C143 38 142.6 37.8 142.2 37.8C141.8 37.7 141.3 37.7 140.8 37.7C139.2 37.7 138.1 38.2 137.3 39.1C136.6 40 136.2 41.3 136.2 42.9V45.5L134 45.7V47.6H136.2V61.2H136.3Z" fill="#012A4C"/>
<path d="M151.2 61.7C150.2 61.7 149.3 61.5 148.4 61.1C147.5 60.7 146.7 60.2 146 59.5C145.3 58.8 144.8 57.9 144.4 56.9C144 55.9 143.8 54.7 143.8 53.4C143.8 52.1 144 50.9 144.4 49.8C144.8 48.8 145.4 47.9 146 47.1C146.6 46.3 147.5 45.8 148.4 45.5C149.3 45.1 150.2 44.9 151.2 44.9C152.2 44.9 153.1 45.1 154 45.5C154.9 45.9 155.7 46.4 156.4 47.1C157.1 47.8 157.6 48.7 158 49.8C158.4 50.8 158.6 52 158.6 53.4C158.6 54.7 158.4 55.9 158 56.9C157.6 57.9 157 58.8 156.4 59.5C155.7 60.2 154.9 60.8 154 61.1C153.2 61.5 152.2 61.7 151.2 61.7ZM151.2 59.4C151.9 59.4 152.5 59.3 153.1 59C153.7 58.7 154.2 58.3 154.6 57.7C155 57.2 155.3 56.5 155.5 55.8C155.7 55.1 155.8 54.2 155.8 53.3C155.8 52.4 155.7 51.5 155.5 50.8C155.3 50 155 49.4 154.6 48.8C154.2 48.3 153.7 47.8 153.1 47.5C152.5 47.2 151.9 47.1 151.2 47.1C150.5 47.1 149.9 47.2 149.3 47.5C148.7 47.8 148.2 48.2 147.8 48.8C147.4 49.4 147.1 50 146.9 50.8C146.7 51.6 146.6 52.4 146.6 53.3C146.6 54.2 146.7 55.1 146.9 55.8C147.1 56.5 147.4 57.2 147.8 57.7C148.2 58.2 148.7 58.7 149.3 59C149.9 59.3 150.6 59.4 151.2 59.4Z" fill="#012A4C"/>
<path d="M151.2 61.8C150.2 61.8 149.2 61.6 148.3 61.2C147.4 60.8 146.6 60.3 145.9 59.5C145.2 58.8 144.7 57.9 144.2 56.8C143.8 55.8 143.6 54.5 143.6 53.2C143.6 51.8 143.8 50.6 144.2 49.6C144.6 48.5 145.2 47.6 145.9 46.9C146.6 46.2 147.4 45.6 148.3 45.2C149.2 44.8 150.2 44.6 151.2 44.6C152.2 44.6 153.2 44.8 154.1 45.2C155 45.6 155.8 46.1 156.5 46.9C157.2 47.6 157.7 48.5 158.2 49.6C158.6 50.7 158.8 51.9 158.8 53.2C158.8 54.5 158.6 55.7 158.2 56.8C157.8 57.9 157.2 58.8 156.5 59.5C155.8 60.2 155 60.8 154.1 61.2C153.2 61.6 152.2 61.8 151.2 61.8ZM151.2 45C150.2 45 149.3 45.2 148.4 45.6C147.5 46 146.7 46.5 146.1 47.2C145.4 47.9 144.9 48.8 144.5 49.8C144.1 50.8 143.9 52 143.9 53.3C143.9 54.6 144.1 55.8 144.5 56.8C144.9 57.8 145.4 58.7 146.1 59.4C146.8 60.1 147.6 60.6 148.4 61C149.3 61.4 150.2 61.6 151.2 61.6C152.2 61.6 153.1 61.4 154 61C154.9 60.6 155.7 60.1 156.3 59.4C157 58.7 157.5 57.8 157.9 56.8C158.3 55.8 158.5 54.6 158.5 53.3C158.5 52 158.3 50.8 157.9 49.8C157.5 48.8 157 47.9 156.3 47.2C155.6 46.5 154.8 45.9 154 45.6C153.1 45.1 152.2 45 151.2 45ZM151.2 59.5C150.5 59.5 149.9 59.3 149.3 59C148.7 58.7 148.2 58.3 147.8 57.7C147.4 57.2 147.1 56.5 146.8 55.7C146.6 54.9 146.5 54.1 146.5 53.2C146.5 52.3 146.6 51.4 146.8 50.6C147 49.8 147.3 49.2 147.8 48.6C148.2 48 148.7 47.6 149.3 47.3C149.9 47 150.5 46.8 151.2 46.8C151.9 46.8 152.5 47 153.1 47.3C153.7 47.6 154.2 48 154.6 48.6C155 49.2 155.3 49.8 155.6 50.6C155.8 51.4 155.9 52.2 155.9 53.2C155.9 54.2 155.8 55 155.6 55.7C155.4 56.5 155.1 57.1 154.6 57.7C154.2 58.2 153.7 58.7 153.1 59C152.6 59.4 151.9 59.5 151.2 59.5ZM151.2 47.2C150.5 47.2 149.9 47.3 149.4 47.6C148.8 47.9 148.4 48.3 148 48.8C147.6 49.3 147.3 50 147.1 50.7C146.9 51.4 146.8 52.3 146.8 53.2C146.8 54.1 146.9 54.9 147.1 55.7C147.3 56.4 147.6 57.1 148 57.6C148.4 58.1 148.9 58.5 149.4 58.8C150 59.1 150.6 59.2 151.2 59.2C151.9 59.2 152.5 59.1 153 58.8C153.6 58.5 154 58.1 154.4 57.6C154.8 57.1 155.1 56.4 155.3 55.7C155.5 55 155.6 54.1 155.6 53.2C155.6 52.3 155.5 51.5 155.3 50.7C155.1 50 154.8 49.3 154.4 48.8C154 48.3 153.5 47.8 153 47.6C152.5 47.4 151.9 47.2 151.2 47.2Z" fill="#012A4C"/>
<path d="M162.8 61.3V45.3H165L165.2 48.2H165.3C165.8 47.2 166.5 46.4 167.3 45.8C168.1 45.2 168.9 44.9 169.9 44.9C170.5 44.9 171.1 45 171.6 45.2L171.1 47.6C170.8 47.5 170.6 47.4 170.4 47.4C170.2 47.4 169.9 47.3 169.6 47.3C168.9 47.3 168.2 47.6 167.5 48.1C166.8 48.7 166.1 49.6 165.6 51V61.3H162.8V61.3Z" fill="#012A4C"/>
<path d="M165.6 61.4H162.7V45.2H165.1L165.3 48C165.8 47 166.5 46.3 167.2 45.7C168 45.1 168.9 44.8 169.8 44.8C170.4 44.8 171 44.9 171.6 45.1H171.7L171.1 47.7H171C170.7 47.6 170.5 47.5 170.3 47.5C170.1 47.5 169.8 47.4 169.5 47.4C168.8 47.4 168.1 47.7 167.4 48.2C166.7 48.7 166 49.7 165.5 51V61.4H165.6ZM162.9 61.2H165.4V51C166 49.6 166.6 48.6 167.4 48.1C168.2 47.5 168.9 47.3 169.6 47.3C169.9 47.3 170.2 47.3 170.4 47.4C170.6 47.4 170.8 47.5 171 47.6L171.5 45.4C171 45.2 170.5 45.1 169.9 45.1C169 45.1 168.2 45.4 167.4 46C166.6 46.6 166 47.4 165.4 48.4V48.5H165.1L164.9 45.6H162.8V61.2H162.9Z" fill="#012A4C"/>
<path d="M181 61.3V39.6H187.2C188.4 39.6 189.5 39.7 190.5 39.9C191.5 40.1 192.4 40.5 193.1 41C193.8 41.5 194.4 42.1 194.8 43C195.2 43.8 195.4 44.8 195.4 46C195.4 47.1 195.2 48.1 194.8 49C194.4 49.8 193.9 50.5 193.2 51.1C192.5 51.7 191.7 52.1 190.7 52.3C189.7 52.6 188.6 52.7 187.5 52.7H183.9V61.3H181V61.3ZM183.7 50.5H186.9C188.8 50.5 190.2 50.1 191.1 49.4C192 48.7 192.5 47.6 192.5 46C192.5 44.4 192 43.4 191.1 42.7C190.1 42.1 188.7 41.8 186.8 41.8H183.7V50.5V50.5Z" fill="#012A4C"/>
<path d="M183.8 61.4H180.9V39.5H187.2C188.4 39.5 189.5 39.6 190.5 39.8C191.5 40 192.4 40.4 193.1 40.9C193.8 41.4 194.4 42.1 194.8 42.9C195.2 43.7 195.4 44.8 195.4 45.9C195.4 47.1 195.2 48.1 194.8 48.9C194.4 49.7 193.9 50.5 193.1 51C192.4 51.6 191.5 52 190.5 52.3C189.5 52.6 188.4 52.7 187.2 52.7H183.7V61.4H183.8ZM181.1 61.2H183.6V52.6H187.3C188.5 52.6 189.6 52.5 190.5 52.2C191.5 51.9 192.3 51.5 193 51C193.7 50.5 194.2 49.8 194.6 49C195 48.2 195.2 47.2 195.2 46.1C195.2 44.9 195 43.9 194.6 43.1C194.2 42.3 193.7 41.7 193 41.2C192.3 40.7 191.5 40.4 190.5 40.1C189.5 39.9 188.4 39.8 187.2 39.8H181.1V61.2V61.2ZM187 50.6H183.7V41.8H186.9C188.8 41.8 190.3 42.1 191.2 42.7C192.2 43.3 192.7 44.4 192.7 46C192.7 47.6 192.2 48.7 191.3 49.5C190.3 50.2 188.9 50.6 187 50.6ZM183.8 50.4H186.9C188.8 50.4 190.2 50 191 49.3C191.9 48.6 192.3 47.5 192.3 46C192.3 44.5 191.8 43.4 190.9 42.8C190 42.2 188.5 41.9 186.7 41.9H183.7V50.4H183.8Z" fill="#012A4C"/>
<path d="M204 61.7C202.3 61.7 201 61.2 200.3 60.1C199.5 59 199.1 57.5 199.1 55.4V45.3H201.8V55.1C201.8 56.6 202 57.7 202.5 58.4C203 59.1 203.7 59.4 204.8 59.4C205.6 59.4 206.4 59.2 207 58.8C207.6 58.4 208.3 57.7 209.1 56.7V45.3H211.8V61.3H209.6L209.4 58.8H209.3C208.6 59.7 207.8 60.4 206.9 60.9C206 61.4 205.2 61.7 204 61.7Z" fill="#012A4C"/>
<path d="M204 61.8C202.3 61.8 201 61.3 200.2 60.2C199.4 59.1 199 57.5 199 55.5V45.2H201.9V55.1C201.9 56.6 202.1 57.7 202.6 58.3C203.1 58.9 203.8 59.3 204.8 59.3C205.6 59.3 206.3 59.1 207 58.7C207.6 58.3 208.3 57.6 209.1 56.7V45.2H212V61.4H209.6L209.4 58.9C208.7 59.7 207.9 60.4 207.1 61C206.2 61.5 205.2 61.8 204 61.8ZM199.2 45.4V55.5C199.2 57.5 199.6 59.1 200.4 60.1C201.2 61.1 202.4 61.6 204.1 61.6C205.2 61.6 206.2 61.3 207 60.8C207.8 60.3 208.6 59.6 209.3 58.7H209.5L209.7 61.2H211.8V45.4H209.3V56.7C208.5 57.6 207.8 58.3 207.2 58.8C206.5 59.2 205.8 59.5 204.9 59.5C203.8 59.5 203 59.1 202.5 58.5C202 57.8 201.8 56.7 201.8 55.2V45.5H199.2V45.4Z" fill="#012A4C"/>
<path d="M224.3 61.7C223.6 61.7 222.8 61.5 222 61.2C221.2 60.8 220.4 60.3 219.7 59.7H219.6L219.4 61.3H217.2V37.8H219.9V44.2L219.8 47.1C220.5 46.5 221.3 45.9 222.2 45.5C223.1 45.1 223.9 44.9 224.8 44.9C225.8 44.9 226.7 45.1 227.5 45.5C228.3 45.9 229 46.4 229.5 47.1C230 47.8 230.4 48.7 230.7 49.7C231 50.7 231.1 51.8 231.1 53C231.1 54.4 230.9 55.6 230.5 56.7C230.1 57.8 229.6 58.7 229 59.4C228.4 60.1 227.6 60.7 226.8 61.1C226.1 61.5 225.3 61.7 224.3 61.7ZM223.9 59.4C224.6 59.4 225.2 59.3 225.7 59C226.3 58.7 226.7 58.3 227.2 57.7C227.6 57.2 227.9 56.5 228.2 55.7C228.4 54.9 228.5 54 228.5 53C228.5 52.1 228.4 51.3 228.3 50.6C228.1 49.9 227.9 49.3 227.6 48.7C227.3 48.2 226.8 47.8 226.3 47.5C225.8 47.2 225.1 47.1 224.4 47.1C223.1 47.1 221.7 47.8 220.1 49.3V57.7C220.8 58.3 221.5 58.8 222.2 59C222.7 59.3 223.3 59.4 223.9 59.4Z" fill="#012A4C"/>
<path d="M224.3 61.8C223.5 61.8 222.7 61.6 221.9 61.2C221.1 60.8 220.4 60.3 219.7 59.7L219.5 61.3H217.1V37.7H220V44.2L219.9 46.9C220.6 46.3 221.3 45.8 222.1 45.4C223 45 223.9 44.7 224.8 44.7C225.8 44.7 226.8 44.9 227.6 45.3C228.4 45.7 229.1 46.3 229.6 47C230.1 47.7 230.6 48.6 230.8 49.6C231.1 50.6 231.2 51.7 231.2 53C231.2 54.4 231 55.6 230.6 56.7C230.2 57.8 229.7 58.7 229.1 59.5C228.5 60.3 227.7 60.8 226.9 61.2C226.2 61.6 225.3 61.8 224.3 61.8ZM219.6 59.5H219.8C220.5 60.1 221.2 60.6 222 61C222.8 61.4 223.6 61.5 224.3 61.5C225.2 61.5 226.1 61.3 226.9 60.9C227.7 60.5 228.4 60 229.1 59.2C229.7 58.5 230.2 57.6 230.6 56.5C231 55.4 231.2 54.2 231.2 52.9C231.2 51.7 231.1 50.6 230.8 49.6C230.5 48.6 230.1 47.8 229.6 47.1C229.1 46.4 228.4 45.9 227.6 45.5C226.8 45.1 225.9 44.9 224.9 44.9C224 44.9 223.1 45.1 222.3 45.5C221.5 45.9 220.7 46.5 219.9 47.1L219.7 47.3L219.8 44.2V37.9H217.3V61.2H219.3L219.6 59.5ZM223.9 59.5C223.4 59.5 222.7 59.4 222 59.1C221.3 58.8 220.6 58.4 219.9 57.8V49.3C221.5 47.8 222.9 47.1 224.3 47.1C225.1 47.1 225.7 47.2 226.3 47.5C226.9 47.8 227.3 48.2 227.7 48.7C228 49.2 228.3 49.9 228.5 50.6C228.7 51.3 228.7 52.1 228.7 53C228.7 54 228.6 54.9 228.3 55.7C228.1 56.5 227.7 57.2 227.3 57.7C226.9 58.2 226.4 58.7 225.8 59C225.2 59.4 224.5 59.5 223.9 59.5ZM220 57.7C220.7 58.3 221.4 58.7 222 59C222.7 59.2 223.3 59.4 223.8 59.4C224.4 59.4 225 59.3 225.6 59C226.1 58.7 226.6 58.3 227 57.8C227.4 57.3 227.7 56.6 227.9 55.8C228.1 55 228.2 54.1 228.2 53.2C228.2 52.3 228.1 51.5 228 50.8C227.8 50.1 227.6 49.5 227.3 49C227 48.5 226.5 48.1 226 47.8C225.5 47.5 224.8 47.4 224.1 47.4C222.8 47.4 221.4 48.1 219.9 49.5V57.7H220Z" fill="#012A4C"/>
<path d="M238.3 61.7C237.3 61.7 236.5 61.4 236.1 60.8C235.7 60.2 235.4 59.3 235.4 58.1V37.8H238.1V58.3C238.1 58.7 238.2 59 238.3 59.2C238.5 59.4 238.6 59.5 238.8 59.5C238.9 59.5 239 59.5 239 59.5C239.1 59.5 239.2 59.5 239.3 59.4L239.7 61.4C239.5 61.5 239.3 61.6 239.1 61.6C239 61.7 238.7 61.7 238.3 61.7Z" fill="#012A4C"/>
<path d="M238.3 61.8C237.2 61.8 236.5 61.5 236 60.8C235.5 60.2 235.3 59.2 235.3 58V37.7H238.2V58.3C238.2 58.7 238.3 59 238.4 59.2C238.5 59.4 238.7 59.4 238.9 59.4H239.1C239.1 59.4 239.2 59.4 239.4 59.3H239.5L239.9 61.5H239.8C239.6 61.6 239.4 61.7 239.1 61.7C239 61.8 238.7 61.8 238.3 61.8ZM235.5 37.9V58.1C235.5 59.3 235.7 60.2 236.1 60.7C236.5 61.3 237.2 61.6 238.2 61.6C238.6 61.6 238.9 61.6 239.1 61.5C239.3 61.5 239.5 61.4 239.6 61.3L239.3 59.4C239.2 59.4 239.1 59.4 239 59.4H238.8C238.6 59.4 238.4 59.3 238.2 59.1C238 58.9 237.9 58.6 237.9 58.1V37.9H235.5Z" fill="#012A4C"/>
<path d="M245.2 42C244.7 42 244.2 41.8 243.9 41.5C243.5 41.2 243.4 40.8 243.4 40.2C243.4 39.7 243.6 39.2 243.9 38.9C244.3 38.6 244.7 38.4 245.2 38.4C245.7 38.4 246.2 38.6 246.5 38.9C246.9 39.2 247 39.6 247 40.2C247 40.7 246.8 41.1 246.5 41.5C246.1 41.8 245.7 42 245.2 42ZM243.8 61.3V45.3H246.5V61.3H243.8Z" fill="#012A4C"/>
<path d="M246.6 61.4H243.7V45.2H246.6V61.4ZM243.9 61.2H246.4V45.4H243.9V61.2ZM245.2 42.1C244.6 42.1 244.2 41.9 243.8 41.6C243.4 41.3 243.2 40.8 243.2 40.3C243.2 39.7 243.4 39.3 243.8 39C244.2 38.7 244.7 38.5 245.2 38.5C245.8 38.5 246.2 38.7 246.6 39C247 39.3 247.2 39.8 247.2 40.3C247.2 40.8 247 41.3 246.6 41.6C246.2 41.9 245.7 42.1 245.2 42.1ZM245.2 38.6C244.7 38.6 244.3 38.8 243.9 39.1C243.6 39.4 243.4 39.8 243.4 40.3C243.4 40.8 243.6 41.2 243.9 41.5C244.2 41.8 244.7 42 245.2 42C245.7 42 246.1 41.8 246.5 41.5C246.8 41.2 247 40.8 247 40.3C247 39.8 246.8 39.4 246.5 39.1C246.1 38.7 245.7 38.6 245.2 38.6Z" fill="#012A4C"/>
<path d="M258.2 61.7C257.1 61.7 256.2 61.5 255.2 61.1C254.2 60.7 253.5 60.2 252.8 59.5C252.1 58.8 251.6 57.9 251.2 56.9C250.8 55.9 250.6 54.7 250.6 53.4C250.6 52.1 250.8 50.9 251.2 49.8C251.6 48.7 252.2 47.9 252.9 47.1C253.6 46.3 254.4 45.8 255.4 45.5C256.3 45.1 257.3 44.9 258.4 44.9C259.5 44.9 260.4 45.1 261.1 45.5C261.8 45.9 262.5 46.3 263.1 46.8L261.7 48.6C261.2 48.2 260.7 47.8 260.2 47.6C259.7 47.4 259.1 47.2 258.5 47.2C257.8 47.2 257.1 47.3 256.5 47.6C255.9 47.9 255.4 48.3 254.9 48.9C254.5 49.5 254.1 50.1 253.9 50.9C253.6 51.7 253.5 52.5 253.5 53.4C253.5 54.3 253.6 55.2 253.9 55.9C254.1 56.6 254.5 57.3 254.9 57.8C255.3 58.3 255.9 58.8 256.5 59.1C257.1 59.4 257.8 59.5 258.5 59.5C259.2 59.5 259.9 59.3 260.6 59C261.2 58.7 261.8 58.3 262.3 57.9L263.5 59.7C262.8 60.3 262 60.8 261.1 61.2C260 61.5 259.1 61.7 258.2 61.7Z" fill="#012A4C"/>
<path d="M258.2 61.8C257.1 61.8 256.1 61.6 255.2 61.2C254.3 60.8 253.4 60.3 252.8 59.5C252.1 58.8 251.6 57.9 251.2 56.8C250.8 55.8 250.6 54.5 250.6 53.2C250.6 51.9 250.8 50.6 251.2 49.6C251.6 48.5 252.2 47.6 252.9 46.9C253.6 46.2 254.4 45.6 255.4 45.2C256.3 44.8 257.4 44.6 258.4 44.6C259.5 44.6 260.4 44.8 261.2 45.2C262 45.6 262.6 46 263.2 46.5L263.3 46.6L261.8 48.5L261.7 48.4C261.2 48 260.8 47.6 260.3 47.4C259.8 47.1 259.2 47 258.6 47C257.9 47 257.2 47.1 256.6 47.4C256 47.7 255.5 48.1 255.1 48.6C254.7 49.1 254.3 49.8 254.1 50.5C253.9 51.2 253.7 52.1 253.7 53C253.7 53.9 253.8 54.7 254.1 55.5C254.3 56.2 254.7 56.9 255.1 57.4C255.5 57.9 256 58.3 256.6 58.6C257.2 58.9 257.9 59 258.6 59C259.3 59 260 58.8 260.6 58.5C261.2 58.2 261.8 57.8 262.3 57.4L262.4 57.3L263.7 59.3L263.6 59.4C262.9 60 262.1 60.6 261.2 60.9C260.1 61.6 259.1 61.8 258.2 61.8ZM258.4 45C257.4 45 256.4 45.2 255.5 45.6C254.6 46 253.8 46.5 253.1 47.2C252.4 47.9 251.8 48.8 251.4 49.8C251 50.8 250.8 52 250.8 53.3C250.8 54.6 251 55.8 251.4 56.8C251.8 57.8 252.3 58.7 253 59.4C253.7 60.1 254.5 60.6 255.4 61C256.3 61.4 257.3 61.6 258.3 61.6C259.2 61.6 260.2 61.4 261 61.1C261.8 60.8 262.6 60.3 263.3 59.7L262.2 58.1C261.7 58.5 261.2 58.9 260.6 59.2C260 59.5 259.3 59.7 258.5 59.7C257.8 59.7 257.1 59.5 256.4 59.2C255.8 58.9 255.2 58.5 254.8 57.9C254.4 57.4 254 56.7 253.8 55.9C253.6 55.1 253.4 54.3 253.4 53.4C253.4 52.5 253.5 51.6 253.8 50.8C254.1 50 254.4 49.4 254.9 48.8C255.3 48.2 255.9 47.8 256.5 47.5C257.1 47.2 257.8 47 258.6 47C259.2 47 259.8 47.1 260.4 47.4C260.9 47.7 261.4 48 261.8 48.4L263.1 46.8C262.6 46.3 261.9 45.9 261.2 45.6C260.3 45.1 259.4 45 258.4 45Z" fill="#012A4C"/>
<path d="M277 61.7C275.7 61.7 274.5 61.3 273.7 60.5C272.8 59.7 272.4 58.6 272.4 57.1C272.4 55.3 273.2 54 274.7 53.1C276.3 52.2 278.8 51.5 282.2 51.1C282.2 50.6 282.2 50.1 282.1 49.6C282 49.1 281.8 48.7 281.6 48.3C281.4 47.9 281 47.6 280.6 47.4C280.2 47.2 279.6 47.1 279 47.1C278.1 47.1 277.2 47.3 276.4 47.6C275.6 48 274.9 48.3 274.2 48.8L273.1 46.9C273.8 46.4 274.8 45.9 275.8 45.5C276.9 45 278.1 44.8 279.4 44.8C281.4 44.8 282.8 45.4 283.7 46.6C284.6 47.8 285 49.4 285 51.4V61.2H282.8L282.6 59.3H282.5C281.7 59.9 280.9 60.5 280 60.9C279 61.5 278 61.7 277 61.7ZM277.8 59.5C278.6 59.5 279.3 59.3 280 59C280.7 58.6 281.4 58.1 282.2 57.4V52.9C280.9 53.1 279.7 53.3 278.8 53.5C277.9 53.7 277.1 54 276.6 54.4C276 54.7 275.6 55.1 275.4 55.5C275.1 55.9 275 56.4 275 56.9C275 57.8 275.3 58.5 275.8 58.9C276.3 59.3 277 59.5 277.8 59.5Z" fill="#012A4C"/>
<path d="M277 61.8C275.6 61.8 274.5 61.4 273.6 60.6C272.7 59.8 272.2 58.6 272.2 57.2C272.2 55.4 273 54 274.6 53.1C276.2 52.2 278.7 51.5 282 51.1C282 50.6 281.9 50.2 281.9 49.7C281.8 49.2 281.6 48.8 281.4 48.4C281.2 48 280.8 47.7 280.4 47.5C280 47.3 279.5 47.2 278.8 47.2C277.9 47.2 277 47.4 276.2 47.7C275.4 48.1 274.7 48.4 274 48.9L273.9 49L272.7 46.9L272.8 46.8C273.5 46.3 274.5 45.8 275.6 45.4C276.7 44.9 277.9 44.7 279.2 44.7C281.2 44.7 282.6 45.3 283.5 46.5C284.4 47.7 284.8 49.3 284.8 51.4V61.3H282.4L282.2 59.4C281.4 60 280.6 60.6 279.8 61C279 61.6 278.1 61.8 277 61.8ZM278.9 47C279.6 47 280.1 47.1 280.6 47.4C281 47.6 281.4 48 281.6 48.3C281.8 48.7 282 49.1 282.1 49.6C282.2 50.1 282.3 50.6 282.3 51.1V51.2H282.2C278.8 51.6 276.3 52.2 274.7 53.2C273.2 54.1 272.4 55.4 272.4 57.2C272.4 58.6 272.8 59.7 273.7 60.5C274.6 61.3 275.7 61.7 277 61.7C278 61.7 278.9 61.5 279.8 61C280.7 60.6 281.5 60 282.3 59.4H282.5L282.7 61.3H284.8V51.6C284.8 49.6 284.4 48 283.5 46.9C282.6 45.7 281.2 45.1 279.3 45.1C278 45.1 276.8 45.3 275.8 45.8C274.8 46.2 273.9 46.7 273.2 47.1L274.2 48.8C274.8 48.4 275.5 48 276.3 47.7C277.1 47.2 277.9 47 278.9 47ZM277.8 59.6C277 59.6 276.3 59.4 275.7 59C275.1 58.6 274.8 57.9 274.8 56.9C274.8 56.4 274.9 55.9 275.2 55.4C275.5 55 275.9 54.6 276.5 54.2C277.1 53.9 277.8 53.6 278.7 53.3C279.6 53.1 280.8 52.8 282.1 52.7H282.2V57.3C281.4 58 280.7 58.5 280 58.9C279.4 59.4 278.6 59.6 277.8 59.6ZM282.1 53C280.8 53.2 279.7 53.4 278.8 53.6C277.9 53.8 277.2 54.1 276.6 54.4C276.1 54.7 275.7 55.1 275.4 55.5C275.2 55.9 275 56.4 275 56.9C275 57.8 275.3 58.4 275.8 58.8C276.3 59.2 277 59.4 277.8 59.4C278.5 59.4 279.3 59.2 279.9 58.9C280.6 58.5 281.3 58 282 57.3V53H282.1Z" fill="#012A4C"/>
<path d="M289.9 61.3V45.3H292.1L292.3 47.6H292.4C293.2 46.8 294 46.2 294.8 45.7C295.6 45.2 296.6 44.9 297.8 44.9C299.5 44.9 300.7 45.4 301.5 46.5C302.3 47.6 302.7 49.1 302.7 51.2V61.4H300V51.6C300 50.1 299.8 49 299.3 48.3C298.8 47.6 298 47.3 297 47.3C296.2 47.3 295.4 47.5 294.8 47.9C294.2 48.3 293.4 48.9 292.6 49.7V61.3H289.9V61.3Z" fill="#012A4C"/>
<path d="M302.8 61.4H299.9V51.5C299.9 50 299.7 48.9 299.2 48.3C298.7 47.7 298 47.3 297 47.3C296.2 47.3 295.5 47.5 294.8 47.9C294.2 48.3 293.5 48.9 292.7 49.7V61.4H289.8V45.2H292.2L292.4 47.5C293.2 46.8 294 46.1 294.8 45.6C295.7 45.1 296.7 44.8 297.8 44.8C299.5 44.8 300.8 45.3 301.6 46.4C302.4 47.5 302.8 49.1 302.8 51.1V61.4ZM300.1 61.2H302.6V51.1C302.6 49.1 302.2 47.5 301.4 46.5C300.6 45.5 299.4 45 297.8 45C296.7 45 295.7 45.3 294.9 45.8C294.1 46.3 293.3 47 292.5 47.7H292.3L292.1 45.4H290V61.2H292.5V49.6C293.3 48.8 294.1 48.2 294.7 47.7C295.4 47.3 296.1 47.1 297 47.1C298.1 47.1 298.9 47.5 299.4 48.1C299.9 48.8 300.1 49.9 300.1 51.4V61.2V61.2Z" fill="#012A4C"/>
<path d="M313.4 61.7C311.4 61.7 309.8 61 308.6 59.5C307.4 58 306.8 56 306.8 53.3C306.8 52 307 50.8 307.4 49.8C307.8 48.8 308.3 47.9 308.9 47.1C309.5 46.4 310.3 45.8 311.1 45.4C311.9 45 312.8 44.8 313.7 44.8C314.6 44.8 315.4 45 316.1 45.3C316.8 45.6 317.5 46.1 318.2 46.7L318.1 44V37.8H320.8V61.3H318.6L318.4 59.4H318.3C317.7 60 316.9 60.5 316.1 61C315.2 61.5 314.3 61.7 313.4 61.7ZM314 59.4C314.7 59.4 315.5 59.2 316.1 58.9C316.8 58.5 317.4 58 318.1 57.2V48.8C317.4 48.2 316.8 47.7 316.1 47.5C315.4 47.3 314.8 47.1 314.2 47.1C313.6 47.1 313 47.2 312.4 47.5C311.8 47.8 311.3 48.2 310.9 48.8C310.5 49.3 310.2 50 309.9 50.7C309.7 51.4 309.5 52.3 309.5 53.2C309.5 55.1 309.9 56.6 310.7 57.7C311.5 58.9 312.6 59.4 314 59.4Z" fill="#012A4C"/>
<path d="M313.4 61.8C311.4 61.8 309.7 61.1 308.5 59.6C307.3 58.1 306.7 56 306.7 53.3C306.7 52 306.9 50.8 307.3 49.8C307.7 48.7 308.2 47.8 308.9 47.1C309.5 46.4 310.3 45.8 311.1 45.4C311.9 45 312.9 44.8 313.8 44.8C314.7 44.8 315.6 45 316.3 45.3C316.9 45.6 317.6 46 318.2 46.5L318 44V37.7H320.9V61.4H318.5L318.3 59.5C317.7 60.1 316.9 60.6 316.1 61.1C315.2 61.6 314.3 61.8 313.4 61.8ZM313.7 45C312.8 45 311.9 45.2 311.1 45.6C310.3 46 309.5 46.5 308.9 47.3C308.3 48 307.8 48.9 307.4 49.9C307 50.9 306.8 52.1 306.8 53.4C306.8 56 307.4 58.1 308.6 59.5C309.8 60.9 311.4 61.6 313.4 61.6C314.3 61.6 315.2 61.4 316 60.9C316.8 60.5 317.5 59.9 318.2 59.3H318.4L318.6 61.2H320.7V37.9H318.2V44L318.3 47L318.1 46.9C317.4 46.3 316.7 45.9 316 45.6C315.4 45.1 314.6 45 313.7 45ZM314 59.5C312.6 59.5 311.4 58.9 310.7 57.8C309.9 56.7 309.5 55.2 309.5 53.2C309.5 52.3 309.6 51.4 309.9 50.7C310.1 49.9 310.5 49.3 310.9 48.7C311.3 48.2 311.8 47.7 312.4 47.4C313.6 46.8 315 46.8 316.2 47.3C316.8 47.6 317.5 48 318.2 48.6V57.1C317.5 57.9 316.9 58.4 316.2 58.8C315.4 59.3 314.7 59.5 314 59.5ZM314.2 47.2C313.6 47.2 313 47.3 312.4 47.6C311.9 47.9 311.4 48.3 311 48.8C310.6 49.3 310.3 50 310 50.7C309.8 51.4 309.6 52.3 309.6 53.2C309.6 55.1 310 56.6 310.7 57.7C311.4 58.7 312.5 59.3 313.9 59.3C314.6 59.3 315.3 59.1 316 58.8C316.6 58.4 317.3 57.9 317.9 57.2V48.9C317.2 48.3 316.6 47.9 316 47.6C315.4 47.4 314.8 47.2 314.2 47.2Z" fill="#012A4C"/>
<path d="M332.9 61.3V39.6H345.4V42H335.7V49.3H343.9V51.6H335.7V61.3H332.9Z" fill="#012A4C"/>
<path d="M335.8 61.4H332.9V39.5H345.6V42H335.9V49.1H344.1V51.6H335.9V61.4H335.8ZM333 61.2H335.5V51.5H343.7V49.4H335.5V41.9H345.2V39.8H333V61.2Z" fill="#012A4C"/>
<path d="M350.3 42C349.8 42 349.3 41.8 349 41.5C348.6 41.2 348.5 40.8 348.5 40.2C348.5 39.7 348.7 39.2 349 38.9C349.4 38.6 349.8 38.4 350.3 38.4C350.8 38.4 351.3 38.6 351.6 38.9C352 39.2 352.1 39.6 352.1 40.2C352.1 40.7 351.9 41.1 351.6 41.5C351.3 41.8 350.8 42 350.3 42ZM348.9 61.3V45.3H351.6V61.3H348.9Z" fill="#012A4C"/>
<path d="M351.7 61.4H348.8V45.2H351.7V61.4ZM349 61.2H351.5V45.4H349V61.2ZM350.3 42.1C349.7 42.1 349.3 41.9 348.9 41.6C348.5 41.3 348.3 40.8 348.3 40.3C348.3 39.7 348.5 39.3 348.9 39C349.3 38.7 349.8 38.5 350.3 38.5C350.9 38.5 351.3 38.7 351.7 39C352.1 39.3 352.3 39.8 352.3 40.3C352.3 40.8 352.1 41.3 351.7 41.6C351.3 41.9 350.8 42.1 350.3 42.1ZM350.3 38.6C349.8 38.6 349.4 38.8 349 39.1C348.7 39.4 348.5 39.8 348.5 40.3C348.5 40.8 348.7 41.2 349 41.5C349.3 41.8 349.8 42 350.3 42C350.8 42 351.2 41.8 351.6 41.5C351.9 41.2 352.1 40.8 352.1 40.3C352.1 39.8 351.9 39.4 351.6 39.1C351.2 38.7 350.8 38.6 350.3 38.6Z" fill="#012A4C"/>
<path d="M357 61.3V45.3H359.2L359.4 47.6H359.5C360.3 46.8 361.1 46.2 361.9 45.7C362.7 45.2 363.7 44.9 364.9 44.9C366.6 44.9 367.8 45.4 368.6 46.5C369.4 47.6 369.8 49.1 369.8 51.2V61.4H367.1V51.6C367.1 50.1 366.9 49 366.4 48.3C365.9 47.6 365.1 47.3 364.1 47.3C363.3 47.3 362.5 47.5 361.9 47.9C361.3 48.3 360.5 48.9 359.7 49.7V61.3H357V61.3Z" fill="#012A4C"/>
<path d="M369.9 61.4H367V51.5C367 50 366.8 48.9 366.3 48.3C365.8 47.7 365.1 47.3 364.1 47.3C363.3 47.3 362.6 47.5 361.9 47.9C361.3 48.3 360.6 48.9 359.8 49.7V61.4H356.9V45.2H359.3L359.5 47.5C360.3 46.8 361.1 46.1 361.9 45.6C362.8 45.1 363.8 44.8 364.9 44.8C366.6 44.8 367.9 45.3 368.7 46.4C369.5 47.5 369.9 49.1 369.9 51.1V61.4ZM367.2 61.2H369.7V51.1C369.7 49.1 369.3 47.5 368.5 46.5C367.7 45.5 366.5 45 364.9 45C363.8 45 362.8 45.3 362 45.8C361.2 46.3 360.4 47 359.6 47.7H359.4L359.2 45.4H357.1V61.2H359.6V49.6C360.4 48.8 361.2 48.2 361.8 47.7C362.5 47.3 363.2 47.1 364.1 47.1C365.2 47.1 366 47.5 366.5 48.1C367 48.8 367.2 49.9 367.2 51.4V61.2Z" fill="#012A4C"/>
<path d="M378.6 61.7C377.3 61.7 376.1 61.3 375.3 60.5C374.4 59.7 374 58.6 374 57.1C374 55.3 374.8 54 376.3 53.1C377.9 52.2 380.4 51.5 383.8 51.1C383.8 50.6 383.8 50.1 383.7 49.6C383.6 49.1 383.4 48.7 383.2 48.3C383 47.9 382.6 47.6 382.2 47.4C381.8 47.2 381.2 47.1 380.6 47.1C379.7 47.1 378.8 47.3 378 47.6C377.2 48 376.5 48.3 375.8 48.8L374.7 46.9C375.4 46.4 376.4 45.9 377.4 45.5C378.5 45 379.7 44.8 381 44.8C383 44.8 384.4 45.4 385.3 46.6C386.2 47.8 386.6 49.4 386.6 51.4V61.2H384.4L384.2 59.3H384C383.2 59.9 382.4 60.5 381.5 60.9C380.6 61.5 379.7 61.7 378.6 61.7ZM379.4 59.5C380.2 59.5 380.9 59.3 381.6 59C382.3 58.6 383 58.1 383.8 57.4V52.9C382.5 53.1 381.3 53.3 380.4 53.5C379.5 53.7 378.7 54 378.2 54.4C377.6 54.7 377.2 55.1 377 55.5C376.7 55.9 376.6 56.4 376.6 56.9C376.6 57.8 376.9 58.5 377.4 58.9C377.9 59.3 378.6 59.5 379.4 59.5Z" fill="#012A4C"/>
<path d="M378.6 61.8C377.2 61.8 376.1 61.4 375.2 60.6C374.3 59.8 373.8 58.6 373.8 57.2C373.8 55.4 374.6 54 376.2 53.1C377.8 52.2 380.3 51.5 383.6 51.1C383.6 50.6 383.5 50.2 383.5 49.7C383.4 49.2 383.2 48.8 383 48.4C382.8 48 382.4 47.7 382 47.5C381.6 47.3 381.1 47.2 380.4 47.2C379.5 47.2 378.6 47.4 377.8 47.7C377 48.1 376.3 48.4 375.6 48.9L375.5 49L374.3 46.9L374.4 46.8C375.1 46.3 376.1 45.8 377.2 45.4C378.3 44.9 379.5 44.7 380.8 44.7C382.8 44.7 384.2 45.3 385.1 46.5C386 47.7 386.4 49.3 386.4 51.4V61.3H384L383.8 59.4C383 60 382.2 60.6 381.4 61C380.6 61.6 379.7 61.8 378.6 61.8ZM380.5 47C381.2 47 381.7 47.1 382.2 47.4C382.6 47.6 383 48 383.2 48.3C383.4 48.7 383.6 49.1 383.7 49.6C383.8 50.1 383.9 50.6 383.9 51.1V51.2H383.8C380.4 51.6 377.9 52.2 376.3 53.2C374.8 54.1 374 55.4 374 57.2C374 58.6 374.4 59.7 375.3 60.5C376.2 61.3 377.3 61.7 378.6 61.7C379.6 61.7 380.5 61.5 381.4 61C382.3 60.6 383.1 60 383.9 59.4H384.1L384.3 61.3H386.4V51.6C386.4 49.6 386 48 385.1 46.9C384.2 45.7 382.8 45.1 380.9 45.1C379.6 45.1 378.4 45.3 377.4 45.8C376.4 46.2 375.5 46.7 374.8 47.1L375.8 48.8C376.4 48.4 377.1 48 377.9 47.7C378.7 47.2 379.6 47 380.5 47ZM379.4 59.6C378.6 59.6 377.9 59.4 377.3 59C376.7 58.6 376.4 57.9 376.4 56.9C376.4 56.4 376.5 55.9 376.8 55.4C377.1 55 377.5 54.6 378.1 54.2C378.7 53.9 379.4 53.6 380.3 53.3C381.2 53.1 382.4 52.8 383.7 52.7H383.8V57.3C383 58 382.3 58.5 381.6 58.9C381 59.4 380.2 59.6 379.4 59.6ZM383.7 53C382.4 53.2 381.3 53.4 380.4 53.6C379.5 53.8 378.8 54.1 378.2 54.4C377.7 54.7 377.3 55.1 377 55.5C376.8 55.9 376.6 56.4 376.6 56.9C376.6 57.8 376.9 58.4 377.4 58.8C377.9 59.2 378.6 59.4 379.4 59.4C380.1 59.4 380.9 59.2 381.5 58.9C382.2 58.5 382.9 58 383.6 57.3V53H383.7Z" fill="#012A4C"/>
<path d="M391.5 61.3V45.3H393.7L393.9 47.6H394C394.8 46.8 395.6 46.2 396.4 45.7C397.2 45.2 398.2 44.9 399.4 44.9C401.1 44.9 402.3 45.4 403.1 46.5C403.9 47.6 404.3 49.1 404.3 51.2V61.4H401.6V51.6C401.6 50.1 401.4 49 400.9 48.3C400.4 47.6 399.6 47.3 398.6 47.3C397.8 47.3 397 47.5 396.4 47.9C395.8 48.3 395 48.9 394.2 49.7V61.3H391.5V61.3Z" fill="#012A4C"/>
<path d="M404.4 61.4H401.5V51.5C401.5 50 401.3 48.9 400.8 48.3C400.3 47.7 399.6 47.3 398.6 47.3C397.8 47.3 397.1 47.5 396.4 47.9C395.8 48.3 395.1 48.9 394.3 49.7V61.4H391.4V45.2H393.8L394 47.5C394.8 46.8 395.6 46.1 396.4 45.6C397.3 45.1 398.3 44.8 399.4 44.8C401.1 44.8 402.4 45.3 403.2 46.4C404 47.5 404.4 49.1 404.4 51.1V61.4ZM401.7 61.2H404.2V51.1C404.2 49.1 403.8 47.5 403 46.5C402.2 45.5 401 45 399.4 45C398.3 45 397.3 45.3 396.5 45.8C395.7 46.3 394.9 47 394.1 47.7H393.9L393.7 45.4H391.6V61.2H394.1V49.6C394.9 48.8 395.7 48.2 396.3 47.7C397 47.3 397.7 47.1 398.6 47.1C399.7 47.1 400.5 47.5 401 48.1C401.5 48.8 401.7 49.9 401.7 51.4V61.2Z" fill="#012A4C"/>
<path d="M415.8 61.7C414.7 61.7 413.8 61.5 412.8 61.1C411.8 60.7 411.1 60.2 410.4 59.5C409.7 58.8 409.2 57.9 408.8 56.9C408.4 55.9 408.2 54.7 408.2 53.4C408.2 52.1 408.4 50.9 408.8 49.8C409.2 48.7 409.8 47.9 410.5 47.1C411.2 46.3 412 45.8 413 45.5C413.9 45.1 414.9 44.9 416 44.9C417.1 44.9 418 45.1 418.7 45.5C419.4 45.9 420.1 46.3 420.7 46.8L419.3 48.6C418.8 48.2 418.3 47.8 417.8 47.6C417.3 47.4 416.7 47.2 416.1 47.2C415.4 47.2 414.7 47.3 414.1 47.6C413.5 47.9 413 48.3 412.5 48.9C412.1 49.5 411.7 50.1 411.5 50.9C411.2 51.7 411.1 52.5 411.1 53.4C411.1 54.3 411.2 55.2 411.5 55.9C411.7 56.6 412.1 57.3 412.5 57.8C412.9 58.3 413.5 58.8 414.1 59.1C414.7 59.4 415.4 59.5 416.1 59.5C416.8 59.5 417.5 59.3 418.2 59C418.8 58.7 419.4 58.3 419.9 57.9L421.1 59.7C420.4 60.3 419.6 60.8 418.7 61.2C417.7 61.5 416.8 61.7 415.8 61.7Z" fill="#012A4C"/>
<path d="M415.8 61.8C414.7 61.8 413.7 61.6 412.8 61.2C411.9 60.8 411 60.3 410.4 59.5C409.7 58.8 409.2 57.9 408.8 56.8C408.4 55.8 408.2 54.5 408.2 53.2C408.2 51.9 408.4 50.6 408.8 49.6C409.2 48.6 409.8 47.6 410.5 46.9C411.2 46.2 412 45.6 413 45.2C413.9 44.8 415 44.6 416 44.6C417.1 44.6 418 44.8 418.8 45.2C419.6 45.6 420.2 46 420.8 46.5L420.9 46.6L419.4 48.5L419.3 48.4C418.8 48 418.4 47.6 417.9 47.4C417.4 47.1 416.8 47 416.2 47C415.5 47 414.8 47.1 414.2 47.4C413.6 47.7 413.1 48.1 412.7 48.6C412.3 49.1 411.9 49.8 411.7 50.5C411.5 51.2 411.3 52.1 411.3 53C411.3 53.9 411.4 54.7 411.7 55.5C411.9 56.2 412.3 56.9 412.7 57.4C413.1 57.9 413.6 58.3 414.2 58.6C414.8 58.9 415.5 59 416.2 59C416.9 59 417.6 58.8 418.2 58.5C418.8 58.2 419.4 57.8 419.9 57.4L420 57.3L420.1 57.4L421.3 59.3L421.2 59.4C420.5 60 419.7 60.6 418.8 60.9C417.8 61.6 416.8 61.8 415.8 61.8ZM416 45C415 45 414 45.2 413.1 45.6C412.2 46 411.4 46.5 410.7 47.2C410 47.9 409.4 48.8 409 49.8C408.6 50.8 408.4 52 408.4 53.3C408.4 54.6 408.6 55.8 409 56.8C409.4 57.8 409.9 58.7 410.6 59.4C411.3 60.1 412.1 60.6 413 61C413.9 61.4 414.9 61.6 415.9 61.6C416.8 61.6 417.8 61.4 418.6 61.1C419.4 60.8 420.2 60.3 420.9 59.7L419.8 58.1C419.3 58.5 418.8 58.9 418.2 59.2C417.6 59.5 416.9 59.7 416.1 59.7C415.4 59.7 414.7 59.5 414 59.2C413.4 58.9 412.8 58.5 412.4 57.9C412 57.4 411.6 56.7 411.4 55.9C411.2 55.1 411 54.3 411 53.4C411 52.5 411.1 51.6 411.4 50.8C411.7 50 412 49.4 412.5 48.8C412.9 48.2 413.5 47.8 414.1 47.5C414.7 47.2 415.4 47 416.2 47C416.9 47 417.4 47.1 418 47.4C418.5 47.7 419 48 419.4 48.4L420.7 46.8C420.2 46.3 419.5 45.9 418.8 45.6C418 45.1 417.1 45 416 45Z" fill="#012A4C"/>
<path d="M425.9 42C425.4 42 424.9 41.8 424.6 41.5C424.2 41.2 424.1 40.8 424.1 40.2C424.1 39.7 424.3 39.2 424.6 38.9C425 38.6 425.4 38.4 425.9 38.4C426.4 38.4 426.9 38.6 427.2 38.9C427.6 39.2 427.7 39.6 427.7 40.2C427.7 40.7 427.5 41.1 427.2 41.5C426.8 41.8 426.4 42 425.9 42ZM424.5 61.3V45.3H427.2V61.3H424.5Z" fill="#012A4C"/>
<path d="M427.3 61.4H424.4V45.2H427.3V61.4ZM424.6 61.2H427.1V45.4H424.6V61.2ZM425.9 42.1C425.3 42.1 424.9 41.9 424.5 41.6C424.1 41.3 423.9 40.8 423.9 40.3C423.9 39.7 424.1 39.3 424.5 39C424.9 38.7 425.4 38.5 425.9 38.5C426.5 38.5 426.9 38.7 427.3 39C427.7 39.3 427.9 39.8 427.9 40.3C427.9 40.8 427.7 41.3 427.3 41.6C426.9 41.9 426.4 42.1 425.9 42.1ZM425.9 38.6C425.4 38.6 425 38.8 424.6 39.1C424.3 39.4 424.1 39.8 424.1 40.3C424.1 40.8 424.3 41.2 424.6 41.5C424.9 41.8 425.4 42 425.9 42C426.4 42 426.8 41.8 427.2 41.5C427.5 41.2 427.7 40.8 427.7 40.3C427.7 39.8 427.5 39.4 427.2 39.1C426.8 38.7 426.4 38.6 425.9 38.6Z" fill="#012A4C"/>
<path d="M436.2 61.7C434.9 61.7 433.7 61.3 432.9 60.5C432 59.7 431.6 58.6 431.6 57.1C431.6 55.3 432.4 54 433.9 53.1C435.5 52.2 438 51.5 441.4 51.1C441.4 50.6 441.4 50.1 441.3 49.6C441.2 49.1 441 48.7 440.8 48.3C440.6 47.9 440.2 47.6 439.8 47.4C439.4 47.2 438.8 47.1 438.2 47.1C437.3 47.1 436.4 47.3 435.6 47.6C434.8 48 434.1 48.3 433.4 48.8L432.3 46.9C433 46.4 434 45.9 435 45.5C436.1 45 437.3 44.8 438.6 44.8C440.6 44.8 442 45.4 442.9 46.6C443.8 47.8 444.2 49.4 444.2 51.4V61.2H442L441.8 59.3H441.7C440.9 59.9 440.1 60.5 439.2 60.9C438.2 61.5 437.2 61.7 436.2 61.7ZM437 59.5C437.8 59.5 438.5 59.3 439.2 59C439.9 58.6 440.6 58.1 441.4 57.4V52.9C440.1 53.1 438.9 53.3 438 53.5C437.1 53.7 436.3 54 435.8 54.4C435.2 54.7 434.8 55.1 434.6 55.5C434.3 55.9 434.2 56.4 434.2 56.9C434.2 57.8 434.5 58.5 435 58.9C435.5 59.3 436.2 59.5 437 59.5Z" fill="#012A4C"/>
<path d="M436.2 61.8C434.8 61.8 433.7 61.4 432.8 60.6C431.9 59.8 431.4 58.6 431.4 57.2C431.4 55.4 432.2 54 433.8 53.1C435.4 52.2 437.9 51.5 441.2 51.1C441.2 50.6 441.1 50.2 441.1 49.7C441 49.2 440.8 48.8 440.6 48.4C440.4 48 440 47.7 439.6 47.5C439.2 47.3 438.7 47.2 438 47.2C437.1 47.2 436.2 47.4 435.4 47.7C434.6 48.1 433.9 48.4 433.2 48.9L433.1 49L431.9 46.9L432 46.8C432.7 46.3 433.7 45.8 434.8 45.4C435.9 44.9 437.1 44.7 438.4 44.7C440.4 44.7 441.8 45.3 442.7 46.5C443.6 47.7 444 49.3 444 51.4V61.3H441.6L441.4 59.4C440.6 60 439.8 60.6 439 61C438.2 61.6 437.2 61.8 436.2 61.8ZM438.1 47C438.8 47 439.3 47.1 439.8 47.4C440.2 47.6 440.6 48 440.8 48.3C441 48.7 441.2 49.1 441.3 49.6C441.4 50.1 441.5 50.6 441.5 51.1V51.2H441.4C438 51.6 435.5 52.2 433.9 53.2C432.4 54.1 431.6 55.4 431.6 57.2C431.6 58.6 432 59.7 432.9 60.5C433.8 61.3 434.9 61.7 436.2 61.7C437.2 61.7 438.1 61.5 439 61C439.9 60.6 440.7 60 441.5 59.4H441.7L441.9 61.3H444V51.6C444 49.6 443.6 48 442.7 46.9C441.8 45.7 440.4 45.1 438.5 45.1C437.2 45.1 436 45.3 435 45.8C434 46.2 433.1 46.7 432.4 47.1L433.4 48.8C434 48.4 434.7 48 435.5 47.7C436.2 47.2 437.1 47 438.1 47ZM437 59.6C436.2 59.6 435.5 59.4 434.9 59C434.3 58.6 434 57.9 434 56.9C434 56.4 434.1 55.9 434.4 55.4C434.7 55 435.1 54.6 435.7 54.2C436.3 53.9 437 53.6 437.9 53.3C438.8 53.1 440 52.8 441.3 52.7H441.4V57.3C440.6 58 439.9 58.5 439.2 58.9C438.5 59.4 437.8 59.6 437 59.6ZM441.3 53C440 53.2 438.9 53.4 438 53.6C437.1 53.8 436.4 54.1 435.8 54.4C435.3 54.7 434.9 55.1 434.6 55.5C434.4 55.9 434.2 56.4 434.2 56.9C434.2 57.8 434.5 58.4 435 58.8C435.5 59.2 436.2 59.4 437 59.4C437.7 59.4 438.5 59.2 439.1 58.9C439.8 58.5 440.5 58 441.2 57.3V53H441.3Z" fill="#012A4C"/>
<path d="M452 61.7C451 61.7 450.2 61.4 449.8 60.8C449.4 60.2 449.1 59.3 449.1 58.1V37.8H451.8V58.3C451.8 58.7 451.9 59 452 59.2C452.2 59.4 452.3 59.5 452.5 59.5C452.6 59.5 452.7 59.5 452.7 59.5C452.8 59.5 452.9 59.5 453 59.4L453.4 61.4C453.2 61.5 453 61.6 452.8 61.6C452.6 61.7 452.3 61.7 452 61.7Z" fill="#012A4C"/>
<path d="M452 61.8C450.9 61.8 450.2 61.5 449.7 60.8C449.2 60.2 449 59.2 449 58V37.7H451.9V58.3C451.9 58.7 452 59 452.1 59.2C452.2 59.4 452.4 59.4 452.6 59.4H452.8C452.8 59.4 452.9 59.4 453.1 59.3H453.2L453.6 61.5H453.5C453.3 61.6 453.1 61.7 452.8 61.7C452.5 61.7 452.3 61.8 452 61.8ZM449.2 37.9V58.1C449.2 59.3 449.4 60.2 449.8 60.7C450.2 61.3 450.9 61.6 451.9 61.6C452.3 61.6 452.6 61.6 452.8 61.5C453 61.5 453.2 61.4 453.3 61.3L453 59.4C452.9 59.4 452.8 59.4 452.7 59.4H452.5C452.3 59.4 452.1 59.3 451.9 59.1C451.7 58.9 451.6 58.6 451.6 58.1V37.9H449.2Z" fill="#012A4C"/>
<path d="M464.2 61.3V39.6H467.5L471.7 51.1C472 51.8 472.2 52.6 472.5 53.4C472.8 54.2 473 54.9 473.3 55.7H473.4C473.7 55 473.9 54.2 474.1 53.4C474.3 52.6 474.6 51.9 474.8 51.1L478.9 39.6H482.2V61.2H479.6V49.4C479.6 48.4 479.6 47.4 479.7 46.2C479.8 45 479.9 44 479.9 43H479.8L478.1 47.9L474 59.1H472.2L468.1 47.9L466.4 43H466.3C466.4 44 466.4 45 466.5 46.2C466.6 47.4 466.6 48.4 466.6 49.4V61.3H464.2Z" fill="#012A4C"/>
<path d="M482.4 61.4H479.6V49.4C479.6 48.4 479.6 47.4 479.7 46.2C479.8 45.1 479.9 44.2 479.9 43.3L478.3 48L474.2 59.3H472.2V59.2L468.1 48L466.5 43.3C466.6 44.2 466.6 45.2 466.7 46.2C466.8 47.4 466.8 48.4 466.8 49.4V61.4H464.1V39.5H467.6V39.6L471.8 51.1C472.1 51.8 472.3 52.6 472.6 53.4C472.8 54.1 473.1 54.9 473.3 55.6C473.5 54.9 473.8 54.2 474 53.4C474.2 52.6 474.5 51.9 474.7 51.1L478.8 39.5H482.3V61.4H482.4ZM479.8 61.2H482.2V39.7H479L475 51.2C474.7 51.9 474.5 52.7 474.3 53.5C474.1 54.3 473.8 55 473.6 55.8V55.9H473.3V55.8C473 55 472.8 54.3 472.5 53.5C472.2 52.7 472 52 471.7 51.2L467.6 39.7H464.5V61.1H466.8V49.4C466.8 48.4 466.8 47.4 466.7 46.2C466.6 45 466.6 44 466.5 43V42.9H466.8V43L468.5 47.9L472.6 59.1H474.3L478.4 47.9L480.1 42.9H480.4V43C480.3 44 480.3 45 480.2 46.2C480.1 47.4 480.1 48.4 480.1 49.4V61.2H479.8Z" fill="#012A4C"/>
<path d="M491.6 61.7C490.3 61.7 489.1 61.3 488.3 60.5C487.4 59.7 487 58.6 487 57.1C487 55.3 487.8 54 489.3 53.1C490.9 52.2 493.4 51.5 496.8 51.1C496.8 50.6 496.8 50.1 496.7 49.6C496.6 49.1 496.4 48.7 496.2 48.3C496 47.9 495.6 47.6 495.2 47.4C494.8 47.2 494.2 47.1 493.6 47.1C492.7 47.1 491.8 47.3 491 47.6C490.2 48 489.5 48.3 488.8 48.8L487.7 46.9C488.4 46.4 489.4 45.9 490.4 45.5C491.5 45 492.7 44.8 494 44.8C496 44.8 497.4 45.4 498.3 46.6C499.2 47.8 499.6 49.4 499.6 51.4V61.2H497.4L497.2 59.3H497.1C496.3 59.9 495.5 60.5 494.6 60.9C493.6 61.5 492.6 61.7 491.6 61.7ZM492.4 59.5C493.2 59.5 493.9 59.3 494.6 59C495.3 58.6 496 58.1 496.8 57.4V52.9C495.5 53.1 494.3 53.3 493.4 53.5C492.5 53.7 491.7 54 491.2 54.4C490.6 54.7 490.2 55.1 490 55.5C489.7 55.9 489.6 56.4 489.6 56.9C489.6 57.8 489.9 58.5 490.4 58.9C490.9 59.3 491.6 59.5 492.4 59.5Z" fill="#012A4C"/>
<path d="M491.6 61.8C490.2 61.8 489.1 61.4 488.2 60.6C487.3 59.8 486.8 58.6 486.8 57.2C486.8 55.4 487.6 54 489.2 53.1C490.8 52.2 493.3 51.5 496.6 51.1C496.6 50.6 496.5 50.2 496.5 49.7C496.4 49.2 496.2 48.8 496 48.4C495.8 48 495.4 47.7 495 47.5C494.6 47.3 494.1 47.2 493.4 47.2C492.5 47.2 491.6 47.4 490.8 47.7C490 48.1 489.3 48.4 488.6 48.9L488.5 49L487.3 46.9L487.4 46.8C488.1 46.3 489.1 45.8 490.2 45.4C491.3 44.9 492.5 44.7 493.8 44.7C495.8 44.7 497.2 45.3 498.1 46.5C499 47.7 499.4 49.3 499.4 51.4V61.3H497L496.8 59.4C496 60 495.2 60.6 494.4 61C493.6 61.6 492.6 61.8 491.6 61.8ZM493.4 47C494.1 47 494.6 47.1 495.1 47.4C495.5 47.6 495.9 48 496.1 48.3C496.3 48.7 496.5 49.1 496.6 49.6C496.7 50.1 496.8 50.6 496.8 51.1V51.2H496.7C493.3 51.6 490.8 52.2 489.2 53.2C487.7 54.1 486.9 55.4 486.9 57.2C486.9 58.6 487.3 59.7 488.2 60.5C489.1 61.3 490.2 61.7 491.5 61.7C492.5 61.7 493.4 61.5 494.3 61C495.2 60.6 496 60 496.8 59.4H497L497.2 61.3H499.3V51.6C499.3 49.6 498.9 48 498 46.9C497.1 45.7 495.7 45.1 493.8 45.1C492.5 45.1 491.3 45.3 490.3 45.8C489.3 46.2 488.4 46.7 487.7 47.1L488.7 48.8C489.3 48.4 490 48 490.8 47.7C491.6 47.2 492.5 47 493.4 47ZM492.4 59.6C491.6 59.6 490.9 59.4 490.3 59C489.7 58.6 489.4 57.9 489.4 56.9C489.4 56.4 489.5 55.9 489.8 55.4C490.1 55 490.5 54.6 491.1 54.2C491.7 53.9 492.4 53.6 493.3 53.3C494.2 53.1 495.4 52.8 496.7 52.7H496.8V57.3C496 58 495.3 58.5 494.6 58.9C493.9 59.4 493.2 59.6 492.4 59.6ZM496.6 53C495.3 53.2 494.2 53.4 493.3 53.6C492.4 53.8 491.7 54.1 491.1 54.4C490.6 54.7 490.2 55.1 489.9 55.5C489.7 55.9 489.5 56.4 489.5 56.9C489.5 57.8 489.8 58.4 490.3 58.8C490.8 59.2 491.5 59.4 492.3 59.4C493 59.4 493.8 59.2 494.4 58.9C495.1 58.5 495.8 58 496.5 57.3V53H496.6Z" fill="#012A4C"/>
<path d="M504.5 61.3V45.3H506.7L506.9 47.6H507C507.8 46.8 508.6 46.2 509.4 45.7C510.2 45.2 511.2 44.9 512.4 44.9C514.1 44.9 515.3 45.4 516.1 46.5C516.9 47.6 517.3 49.1 517.3 51.2V61.4H514.6V51.6C514.6 50.1 514.4 49 513.9 48.3C513.4 47.6 512.6 47.3 511.6 47.3C510.8 47.3 510 47.5 509.4 47.9C508.8 48.3 508 48.9 507.2 49.7V61.3H504.5V61.3Z" fill="#012A4C"/>
<path d="M517.4 61.4H514.5V51.5C514.5 50 514.3 48.9 513.8 48.3C513.3 47.7 512.6 47.3 511.6 47.3C510.8 47.3 510.1 47.5 509.4 47.9C508.8 48.3 508.1 48.9 507.3 49.7V61.4H504.4V45.2H506.8L507 47.5C507.8 46.8 508.6 46.1 509.4 45.6C510.3 45.1 511.3 44.8 512.4 44.8C514.1 44.8 515.4 45.3 516.2 46.4C517 47.5 517.4 49.1 517.4 51.1V61.4V61.4ZM514.7 61.2H517.2V51.1C517.2 49.1 516.8 47.5 516 46.5C515.2 45.5 514 45 512.4 45C511.3 45 510.3 45.3 509.5 45.8C508.7 46.3 507.9 47 507.1 47.7H506.9L506.7 45.4H504.6V61.2H507.1V49.6C507.9 48.8 508.7 48.2 509.3 47.7C510 47.3 510.7 47.1 511.6 47.1C512.7 47.1 513.5 47.5 514 48.1C514.5 48.8 514.7 49.9 514.7 51.4V61.2Z" fill="#012A4C"/>
<path d="M526.1 61.7C524.8 61.7 523.6 61.3 522.8 60.5C521.9 59.7 521.5 58.6 521.5 57.1C521.5 55.3 522.3 54 523.8 53.1C525.4 52.2 527.9 51.5 531.3 51.1C531.3 50.6 531.3 50.1 531.2 49.6C531.1 49.1 530.9 48.7 530.7 48.3C530.5 47.9 530.1 47.6 529.7 47.4C529.3 47.2 528.7 47.1 528.1 47.1C527.2 47.1 526.3 47.3 525.5 47.6C524.7 48 524 48.3 523.3 48.8L522.2 46.9C522.9 46.4 523.9 45.9 524.9 45.5C526 45 527.2 44.8 528.5 44.8C530.5 44.8 531.9 45.4 532.8 46.6C533.7 47.8 534.1 49.4 534.1 51.4V61.2H531.9L531.7 59.3H531.6C530.8 59.9 530 60.5 529.1 60.9C528.1 61.5 527.2 61.7 526.1 61.7ZM526.9 59.5C527.7 59.5 528.4 59.3 529.1 59C529.8 58.6 530.5 58.1 531.3 57.4V52.9C530 53.1 528.8 53.3 527.9 53.5C527 53.7 526.2 54 525.7 54.4C525.1 54.7 524.7 55.1 524.5 55.5C524.2 55.9 524.1 56.4 524.1 56.9C524.1 57.8 524.4 58.5 524.9 58.9C525.4 59.3 526.1 59.5 526.9 59.5Z" fill="#012A4C"/>
<path d="M526.1 61.8C524.7 61.8 523.6 61.4 522.7 60.6C521.8 59.8 521.3 58.6 521.3 57.2C521.3 55.4 522.1 54 523.7 53.1C525.3 52.2 527.8 51.5 531.1 51.1C531.1 50.6 531 50.2 531 49.7C530.9 49.2 530.7 48.8 530.5 48.4C530.3 48 529.9 47.7 529.5 47.5C529.1 47.3 528.6 47.2 527.9 47.2C527 47.2 526.1 47.4 525.3 47.7C524.5 48.1 523.8 48.4 523.1 48.9L523 49L521.8 46.9L521.9 46.8C522.6 46.3 523.6 45.8 524.7 45.4C525.8 44.9 527 44.7 528.3 44.7C530.3 44.7 531.7 45.3 532.6 46.5C533.5 47.7 533.9 49.3 533.9 51.4V61.3H531.5L531.3 59.4C530.5 60 529.7 60.6 528.9 61C528.1 61.6 527.2 61.8 526.1 61.8ZM528 47C528.7 47 529.2 47.1 529.7 47.4C530.1 47.6 530.5 48 530.7 48.3C530.9 48.7 531.1 49.1 531.2 49.6C531.3 50.1 531.4 50.6 531.4 51.1V51.2H531.3C527.9 51.6 525.4 52.2 523.8 53.2C522.3 54.1 521.5 55.4 521.5 57.2C521.5 58.6 521.9 59.7 522.8 60.5C523.7 61.3 524.8 61.7 526.1 61.7C527.1 61.7 528 61.5 528.9 61C529.8 60.6 530.6 60 531.4 59.4H531.6L531.8 61.3H533.9V51.6C533.9 49.6 533.5 48 532.6 46.9C531.7 45.7 530.3 45.1 528.4 45.1C527.1 45.1 525.9 45.3 524.9 45.8C523.9 46.2 523 46.7 522.3 47.1L523.3 48.8C523.9 48.4 524.6 48 525.4 47.7C526.2 47.2 527.1 47 528 47ZM526.9 59.6C526.1 59.6 525.4 59.4 524.8 59C524.2 58.6 523.9 57.9 523.9 56.9C523.9 56.4 524 55.9 524.3 55.4C524.6 55 525 54.6 525.6 54.2C526.2 53.9 526.9 53.6 527.8 53.3C528.7 53.1 529.9 52.8 531.2 52.7H531.3V57.3C530.5 58 529.8 58.5 529.1 58.9C528.5 59.4 527.7 59.6 526.9 59.6ZM531.2 53C529.9 53.2 528.8 53.4 527.9 53.6C527 53.8 526.3 54.1 525.7 54.4C525.2 54.7 524.8 55.1 524.5 55.5C524.3 55.9 524.1 56.4 524.1 56.9C524.1 57.8 524.4 58.4 524.9 58.8C525.4 59.2 526.1 59.4 526.9 59.4C527.6 59.4 528.4 59.2 529 58.9C529.7 58.5 530.4 58 531.1 57.3V53H531.2Z" fill="#012A4C"/>
<path d="M544.4 68.7C543.4 68.7 542.5 68.6 541.7 68.4C540.9 68.2 540.2 67.9 539.6 67.6C539 67.2 538.6 66.8 538.2 66.2C537.9 65.7 537.7 65.1 537.7 64.4C537.7 63.7 537.9 63.1 538.3 62.5C538.7 61.9 539.3 61.3 540 60.8V60.7C539.6 60.5 539.3 60.1 539 59.7C538.7 59.3 538.6 58.7 538.6 58.1C538.6 57.4 538.8 56.8 539.2 56.3C539.6 55.8 540 55.4 540.4 55.1V55C539.9 54.6 539.4 54 539 53.2C538.6 52.5 538.4 51.6 538.4 50.6C538.4 49.7 538.6 48.9 538.9 48.2C539.2 47.5 539.7 46.9 540.2 46.4C540.7 45.9 541.4 45.5 542.1 45.3C542.8 45 543.6 44.9 544.4 44.9C544.8 44.9 545.3 44.9 545.6 45C545.9 45.1 546.3 45.2 546.6 45.3H552.2V47.4H549C549.4 47.8 549.7 48.2 549.9 48.8C550.2 49.4 550.3 50 550.3 50.7C550.3 51.6 550.1 52.3 549.8 53C549.5 53.7 549.1 54.3 548.5 54.7C548 55.2 547.3 55.5 546.6 55.8C545.9 56.1 545.1 56.2 544.3 56.2C543.9 56.2 543.5 56.2 543.1 56.1C542.7 56 542.3 55.9 541.9 55.7C541.6 55.9 541.4 56.2 541.2 56.5C541 56.8 540.9 57.2 540.9 57.6C540.9 58.1 541.1 58.5 541.5 58.9C541.9 59.2 542.6 59.4 543.7 59.4H546.8C548.7 59.4 550.1 59.7 551 60.3C551.9 60.9 552.4 61.9 552.4 63.2C552.4 63.9 552.2 64.7 551.8 65.3C551.4 66 550.9 66.6 550.2 67.1C549.5 67.6 548.6 68 547.6 68.3C546.8 68.5 545.7 68.7 544.4 68.7ZM544.8 66.8C545.6 66.8 546.3 66.7 546.9 66.5C547.5 66.3 548.1 66.1 548.5 65.8C548.9 65.5 549.3 65.2 549.5 64.8C549.7 64.4 549.9 64 549.9 63.6C549.9 62.9 549.6 62.3 549.1 62C548.5 61.7 547.7 61.6 546.7 61.6H543.9C543.6 61.6 543.3 61.6 542.9 61.6C542.5 61.6 542.2 61.5 541.8 61.4C541.2 61.8 540.8 62.3 540.5 62.7C540.2 63.2 540.1 63.6 540.1 64.1C540.1 65 540.5 65.6 541.3 66.1C542.2 66.6 543.4 66.8 544.8 66.8ZM544.4 54.4C544.9 54.4 545.3 54.3 545.7 54.1C546.1 53.9 546.5 53.7 546.8 53.3C547.1 53 547.4 52.6 547.5 52.1C547.7 51.6 547.8 51.1 547.8 50.5C547.8 49.3 547.5 48.4 546.8 47.7C546.1 47.1 545.3 46.7 544.4 46.7C543.5 46.7 542.7 47 542 47.7C541.3 48.4 541 49.3 541 50.5C541 51.1 541.1 51.6 541.3 52.1C541.5 52.6 541.7 53 542 53.3C542.3 53.6 542.7 53.9 543.1 54.1C543.5 54.3 544 54.4 544.4 54.4Z" fill="#012A4C"/>
<path d="M544.4 68.8C543.4 68.8 542.5 68.7 541.7 68.5C540.9 68.3 540.2 68 539.6 67.6C539 67.2 538.5 66.8 538.2 66.2C537.9 65.7 537.7 65 537.7 64.3C537.7 63.6 537.9 62.9 538.3 62.3C538.7 61.7 539.3 61.1 540 60.6C539.6 60.4 539.3 60 539 59.6C538.7 59.2 538.6 58.6 538.6 57.9C538.6 57.2 538.8 56.6 539.2 56.1C539.6 55.6 540 55.2 540.4 54.9C539.9 54.5 539.4 53.9 539 53.1C538.6 52.3 538.3 51.5 538.3 50.5C538.3 49.6 538.5 48.8 538.8 48.1C539.1 47.4 539.6 46.8 540.1 46.3C540.7 45.8 541.3 45.4 542.1 45.1C542.8 44.8 543.6 44.7 544.5 44.7C544.9 44.7 545.4 44.7 545.8 44.8C546.2 44.9 546.5 45 546.8 45.1H552.5V47.4H549.3C549.6 47.8 549.9 48.2 550.1 48.7C550.4 49.3 550.5 49.9 550.5 50.6C550.5 51.5 550.3 52.3 550 53C549.7 53.7 549.3 54.3 548.7 54.8C548.2 55.3 547.5 55.7 546.8 55.9C546.1 56.2 545.3 56.3 544.5 56.3C544.1 56.3 543.7 56.2 543.3 56.1C542.9 56 542.5 55.9 542.2 55.7C541.9 55.9 541.7 56.2 541.5 56.4C541.3 56.7 541.2 57 541.2 57.4C541.2 57.9 541.4 58.3 541.8 58.6C542.2 58.9 542.9 59.1 544 59.1H547.1C549 59.1 550.4 59.4 551.4 60C552.4 60.6 552.8 61.6 552.8 63C552.8 63.8 552.6 64.5 552.2 65.2C551.8 65.9 551.3 66.5 550.6 67C549.9 67.5 549 67.9 548 68.2C547 68.5 545.7 68.8 544.4 68.8ZM544.4 45C543.6 45 542.8 45.1 542.1 45.4C541.4 45.7 540.7 46 540.2 46.5C539.7 47 539.2 47.6 538.9 48.3C538.6 49 538.4 49.8 538.4 50.6C538.4 51.5 538.6 52.4 539 53.1C539.4 53.8 539.9 54.4 540.4 54.8V55C540 55.3 539.6 55.7 539.2 56.2C538.8 56.7 538.7 57.3 538.7 57.9C538.7 58.5 538.8 59 539.1 59.4C539.4 59.8 539.7 60.1 540.1 60.4V60.6C539.4 61.1 538.8 61.7 538.4 62.3C538 62.9 537.8 63.5 537.8 64.2C537.8 64.9 538 65.5 538.3 66C538.6 66.5 539.1 67 539.6 67.3C540.2 67.7 540.9 67.9 541.7 68.1C542.5 68.3 543.4 68.4 544.4 68.4C545.6 68.4 546.8 68.3 547.8 68C548.8 67.7 549.6 67.3 550.3 66.8C551 66.3 551.5 65.7 551.9 65.1C552.3 64.4 552.4 63.7 552.4 63C552.4 61.7 551.9 60.7 551 60.2C550.1 59.6 548.7 59.3 546.8 59.3H543.7C542.6 59.3 541.8 59.1 541.4 58.8C541 58.5 540.8 58 540.8 57.5C540.8 57 540.9 56.7 541.1 56.3C541.3 56 541.6 55.7 541.8 55.5H541.9C542.3 55.7 542.7 55.8 543.1 55.9C543.5 56 543.9 56 544.3 56C545.1 56 545.9 55.9 546.6 55.6C547.3 55.3 547.9 55 548.4 54.5C548.9 54 549.3 53.5 549.6 52.8C549.9 52.1 550.1 51.4 550.1 50.5C550.1 49.8 550 49.2 549.7 48.7C549.5 48.1 549.1 47.7 548.8 47.3L548.6 47.1H552V45.2H546.5C546.2 45.1 545.9 45 545.5 44.9C545.3 45 544.9 45 544.4 45ZM544.8 66.9C543.3 66.9 542.2 66.6 541.3 66.1C540.4 65.6 540 64.9 540 64C540 63.5 540.1 63 540.4 62.6C540.7 62.1 541.1 61.7 541.7 61.2C542 61.3 542.4 61.4 542.8 61.4C543.2 61.4 543.5 61.5 543.8 61.5H546.6C547.7 61.5 548.5 61.6 549.1 61.9C549.7 62.2 550 62.8 550 63.5C550 63.9 549.9 64.4 549.6 64.8C549.3 65.2 549 65.6 548.5 65.9C548.1 66.2 547.5 66.5 546.9 66.6C546.3 66.8 545.6 66.9 544.8 66.9ZM541.8 61.4C541.3 61.8 540.9 62.2 540.6 62.7C540.3 63.1 540.2 63.6 540.2 64C540.2 64.8 540.6 65.5 541.4 66C542.2 66.5 543.3 66.7 544.8 66.7C545.6 66.7 546.3 66.6 546.9 66.4C547.5 66.2 548 66 548.5 65.7C548.9 65.4 549.3 65.1 549.5 64.7C549.7 64.3 549.8 63.9 549.8 63.5C549.8 62.8 549.5 62.3 549 62C548.5 61.7 547.7 61.6 546.6 61.6H543.8C543.5 61.6 543.2 61.6 542.8 61.5C542.5 61.6 542.2 61.5 541.8 61.4ZM544.4 54.5C543.9 54.5 543.5 54.4 543.1 54.2C542.7 54 542.3 53.8 542 53.4C541.7 53 541.4 52.6 541.2 52.2C541 51.7 540.9 51.2 540.9 50.6C540.9 49.4 541.2 48.4 541.9 47.8C542.6 47.1 543.4 46.8 544.4 46.8C545.4 46.8 546.2 47.1 546.9 47.8C547.6 48.5 547.9 49.4 547.9 50.6C547.9 51.2 547.8 51.8 547.6 52.2C547.4 52.7 547.2 53.1 546.8 53.4C546.5 53.7 546.1 54 545.7 54.2C545.4 54.4 544.9 54.5 544.4 54.5ZM544.4 46.9C543.5 46.9 542.7 47.2 542.1 47.8C541.5 48.4 541.1 49.3 541.1 50.5C541.1 51.1 541.2 51.6 541.4 52.1C541.6 52.6 541.8 53 542.1 53.3C542.4 53.6 542.8 53.9 543.2 54C544 54.3 544.9 54.3 545.7 54C546.1 53.8 546.4 53.6 546.8 53.3C547.1 53 547.3 52.6 547.5 52.1C547.7 51.6 547.8 51.1 547.8 50.5C547.8 49.3 547.5 48.4 546.8 47.8C546.1 47.2 545.3 46.9 544.4 46.9Z" fill="#012A4C"/>
<path d="M561.6 61.7C560.5 61.7 559.5 61.5 558.6 61.1C557.7 60.7 556.9 60.2 556.2 59.5C555.5 58.8 555 57.9 554.6 56.9C554.2 55.9 554 54.7 554 53.4C554 52.1 554.2 50.9 554.6 49.9C555 48.9 555.5 48 556.2 47.2C556.9 46.4 557.6 45.9 558.5 45.5C559.4 45.1 560.2 44.9 561.2 44.9C562.2 44.9 563.1 45.1 563.9 45.4C564.7 45.8 565.4 46.3 565.9 46.9C566.4 47.6 566.9 48.4 567.1 49.3C567.4 50.2 567.5 51.3 567.5 52.4C567.5 52.7 567.5 53 567.5 53.2C567.5 53.5 567.5 53.7 567.4 53.9H556.6C556.7 55.6 557.2 57 558.2 58C559.2 59 560.4 59.5 561.9 59.5C562.7 59.5 563.4 59.4 564 59.2C564.6 59 565.3 58.7 565.9 58.3L566.9 60.1C566.2 60.5 565.4 60.9 564.6 61.3C563.7 61.5 562.7 61.7 561.6 61.7ZM556.6 52H565.2C565.2 50.4 564.9 49.1 564.2 48.3C563.5 47.5 562.5 47 561.3 47C560.7 47 560.2 47.1 559.7 47.3C559.2 47.5 558.7 47.8 558.3 48.3C557.9 48.7 557.5 49.3 557.3 49.9C556.8 50.5 556.7 51.2 556.6 52Z" fill="#012A4C"/>
<path d="M561.6 61.8C560.5 61.8 559.5 61.6 558.5 61.2C557.6 60.8 556.7 60.3 556 59.5C555.3 58.8 554.7 57.9 554.3 56.8C553.9 55.7 553.7 54.6 553.7 53.2C553.7 51.9 553.9 50.7 554.3 49.6C554.7 48.5 555.3 47.6 555.9 46.9C556.6 46.2 557.4 45.6 558.2 45.2C559.1 44.8 560 44.6 560.9 44.6C561.9 44.6 562.8 44.8 563.7 45.1C564.6 45.4 565.2 46 565.7 46.6C566.2 47.3 566.7 48.1 567 49C567.3 49.9 567.4 51 567.4 52.1C567.4 52.4 567.4 52.7 567.4 52.9C567.4 53.2 567.4 53.4 567.3 53.6V53.7H556.5C556.6 55.3 557.1 56.6 558.1 57.6C559 58.6 560.3 59.1 561.8 59.1C562.6 59.1 563.3 59 563.9 58.8C564.5 58.6 565.2 58.3 565.7 57.9L565.8 57.8L566.9 59.8H566.8C566.1 60.2 565.3 60.6 564.4 61C563.7 61.6 562.7 61.8 561.6 61.8ZM561.1 45C560.2 45 559.3 45.2 558.5 45.6C557.7 46 556.9 46.5 556.2 47.2C555.5 47.9 555 48.8 554.6 49.8C554.2 50.8 554 52 554 53.3C554 54.6 554.2 55.8 554.6 56.8C555 57.8 555.5 58.7 556.2 59.4C556.9 60.1 557.7 60.7 558.6 61C559.5 61.4 560.5 61.6 561.6 61.6C562.7 61.6 563.7 61.4 564.5 61.1C565.3 60.8 566.1 60.4 566.7 60L565.8 58.4C565.2 58.7 564.6 59 564 59.3C563.3 59.5 562.6 59.7 561.8 59.7C560.2 59.7 559 59.2 558 58.2C557 57.2 556.5 55.8 556.4 54.1V54H567.2C567.2 53.8 567.3 53.6 567.3 53.4C567.3 53.1 567.3 52.8 567.3 52.6C567.3 51.5 567.2 50.4 566.9 49.5C566.6 48.6 566.2 47.8 565.7 47.2C565.2 46.6 564.5 46.1 563.7 45.7C563 45.1 562.1 45 561.1 45ZM565.3 52.1H556.5V52C556.6 51.2 556.8 50.5 557.1 49.9C557.4 49.3 557.7 48.7 558.2 48.3C558.6 47.9 559.1 47.5 559.6 47.3C560.1 47.1 560.7 47 561.3 47C562.6 47 563.6 47.4 564.3 48.3C564.9 49.1 565.3 50.3 565.3 52.1ZM556.7 51.9H565.1C565.1 50.4 564.7 49.2 564.1 48.4C563.4 47.6 562.5 47.2 561.3 47.2C560.7 47.2 560.2 47.3 559.7 47.5C559.2 47.7 558.7 48 558.3 48.5C557.9 48.9 557.5 49.4 557.3 50C557 50.5 556.8 51.2 556.7 51.9Z" fill="#012A4C"/>
<path d="M571.4 61.3V45.3H573.6L573.8 47.6H573.9C574.6 46.8 575.4 46.2 576.2 45.7C577 45.2 577.9 44.9 578.9 44.9C580.1 44.9 581.1 45.2 581.8 45.7C582.5 46.2 583 47 583.3 48C584.1 47.1 585 46.3 585.8 45.8C586.6 45.2 587.6 45 588.6 45C590.3 45 591.5 45.5 592.3 46.6C593.1 47.7 593.5 49.2 593.5 51.3V61.5H590.8V51.7C590.8 50.2 590.6 49.1 590.1 48.4C589.6 47.7 588.9 47.4 587.9 47.4C586.7 47.4 585.3 48.2 583.9 49.9V61.5H581.2V51.7C581.2 50.2 581 49.1 580.5 48.4C580 47.7 579.3 47.4 578.2 47.4C577 47.4 575.6 48.2 574.2 49.9V61.5H571.4V61.3Z" fill="#012A4C"/>
<path d="M593.7 61.4H590.8V51.5C590.8 50 590.6 48.9 590.1 48.3C589.6 47.7 588.9 47.3 587.9 47.3C586.7 47.3 585.4 48.1 584 49.7V61.4H581.1V51.5C581.1 50 580.9 48.9 580.4 48.3C579.9 47.7 579.2 47.3 578.2 47.3C577 47.3 575.7 48.1 574.3 49.7V61.4H571.4V45.2H573.8L574 47.5C574.7 46.8 575.4 46.1 576.3 45.6C577.1 45.1 578.1 44.8 579 44.8C580.2 44.8 581.2 45.1 581.9 45.6C582.6 46.1 583.1 46.8 583.4 47.7C584.2 46.8 585 46.1 585.8 45.6C586.7 45 587.6 44.7 588.6 44.7C590.3 44.7 591.5 45.2 592.4 46.3C593.2 47.4 593.6 49 593.6 51V61.4H593.7ZM591 61.2H593.5V51.1C593.5 49.1 593.1 47.5 592.3 46.5C591.5 45.5 590.3 45 588.7 45C587.7 45 586.8 45.3 586 45.8C585.2 46.4 584.3 47.1 583.5 48L583.4 48.1L583.3 47.9C583 47 582.5 46.2 581.8 45.7C581.1 45.2 580.2 44.9 579 44.9C578.1 44.9 577.2 45.2 576.4 45.7C575.6 46.2 574.8 46.9 574.1 47.6H573.9L573.7 45.3H571.6V61.1H574.1V49.6C575.6 47.9 577 47.1 578.2 47.1C579.3 47.1 580.1 47.5 580.6 48.1C581.1 48.8 581.3 49.9 581.3 51.4V61.1H583.8V49.6C585.3 47.9 586.7 47.1 587.9 47.1C588.9 47.1 589.7 47.5 590.2 48.1C590.7 48.8 590.9 49.9 590.9 51.4V61.2H591Z" fill="#012A4C"/>
<path d="M605.2 61.7C604.1 61.7 603.1 61.5 602.2 61.1C601.3 60.7 600.5 60.2 599.8 59.5C599.1 58.8 598.6 57.9 598.2 56.9C597.8 55.9 597.6 54.7 597.6 53.4C597.6 52.1 597.8 50.9 598.2 49.9C598.6 48.9 599.1 48 599.8 47.2C600.5 46.4 601.2 45.9 602.1 45.5C603 45.1 603.8 44.9 604.8 44.9C605.8 44.9 606.7 45.1 607.5 45.4C608.3 45.8 609 46.3 609.5 46.9C610 47.6 610.5 48.4 610.7 49.3C611 50.2 611.1 51.3 611.1 52.4C611.1 52.7 611.1 53 611.1 53.2C611.1 53.5 611.1 53.7 611 53.9H600.2C600.3 55.6 600.8 57 601.8 58C602.8 59 604 59.5 605.5 59.5C606.3 59.5 607 59.4 607.6 59.2C608.2 59 608.9 58.7 609.5 58.3L610.5 60.1C609.8 60.5 609 60.9 608.2 61.3C607.3 61.5 606.3 61.7 605.2 61.7ZM600.2 52H608.8C608.8 50.4 608.5 49.1 607.8 48.3C607.1 47.5 606.1 47 604.9 47C604.3 47 603.8 47.1 603.3 47.3C602.8 47.5 602.3 47.8 601.9 48.3C601.5 48.7 601.1 49.3 600.9 49.9C600.4 50.5 600.3 51.2 600.2 52Z" fill="#012A4C"/>
<path d="M605.2 61.8C604.1 61.8 603.1 61.6 602.1 61.2C601.2 60.8 600.3 60.3 599.6 59.5C598.9 58.8 598.3 57.9 597.9 56.8C597.5 55.7 597.3 54.6 597.3 53.2C597.3 51.9 597.5 50.7 597.9 49.6C598.3 48.5 598.9 47.6 599.5 46.9C600.2 46.2 601 45.6 601.8 45.2C602.7 44.8 603.6 44.6 604.5 44.6C605.5 44.6 606.4 44.8 607.3 45.1C608.2 45.4 608.8 46 609.3 46.6C609.8 47.3 610.3 48.1 610.6 49C610.9 49.9 611 51 611 52.1C611 52.4 611 52.7 611 52.9C611 53.2 611 53.4 610.9 53.6V53.7H600.1C600.2 55.3 600.7 56.6 601.7 57.6C602.6 58.6 603.9 59.1 605.4 59.1C606.2 59.1 606.9 59 607.5 58.8C608.1 58.6 608.8 58.3 609.3 57.9L609.4 57.8L610.5 59.8H610.4C609.7 60.2 608.9 60.6 608 61C607.3 61.6 606.3 61.8 605.2 61.8ZM604.7 45C603.8 45 602.9 45.2 602.1 45.6C601.3 46 600.5 46.5 599.8 47.2C599.1 47.9 598.6 48.8 598.2 49.8C597.8 50.8 597.6 52 597.6 53.3C597.6 54.6 597.8 55.8 598.2 56.8C598.6 57.8 599.1 58.7 599.8 59.4C600.5 60.1 601.3 60.7 602.2 61C603.1 61.4 604.1 61.6 605.2 61.6C606.3 61.6 607.3 61.4 608.1 61.1C608.9 60.8 609.7 60.4 610.3 60L609.4 58.4C608.8 58.7 608.2 59 607.6 59.3C606.9 59.5 606.2 59.7 605.4 59.7C603.8 59.7 602.6 59.2 601.6 58.2C600.6 57.2 600.1 55.8 600 54.1V54H610.8C610.8 53.8 610.9 53.6 610.9 53.4C610.9 53.1 610.9 52.8 610.9 52.6C610.9 51.5 610.8 50.4 610.5 49.5C610.2 48.6 609.8 47.8 609.3 47.2C608.8 46.6 608.1 46.1 607.3 45.7C606.6 45.1 605.7 45 604.7 45ZM608.8 52.1H600V52C600.1 51.2 600.3 50.5 600.6 49.9C600.9 49.3 601.2 48.7 601.7 48.3C602.1 47.9 602.6 47.5 603.1 47.3C603.6 47.1 604.2 47 604.8 47C606.1 47 607.1 47.4 607.8 48.3C608.5 49.1 608.8 50.3 608.8 52.1ZM600.3 51.9H608.7C608.7 50.4 608.3 49.2 607.7 48.4C607 47.6 606.1 47.2 604.9 47.2C604.3 47.2 603.8 47.3 603.3 47.5C602.8 47.7 602.3 48 601.9 48.5C601.5 48.9 601.1 49.4 600.9 50C600.5 50.5 600.4 51.2 600.3 51.9Z" fill="#012A4C"/>
<path d="M615 61.3V45.3H617.2L617.4 47.6H617.5C618.3 46.8 619.1 46.2 619.9 45.7C620.7 45.2 621.7 44.9 622.9 44.9C624.6 44.9 625.8 45.4 626.6 46.5C627.4 47.6 627.8 49.1 627.8 51.2V61.4H625.1V51.6C625.1 50.1 624.9 49 624.4 48.3C623.9 47.6 623.1 47.3 622.1 47.3C621.3 47.3 620.5 47.5 619.9 47.9C619.3 48.3 618.5 48.9 617.7 49.7V61.3H615V61.3Z" fill="#012A4C"/>
<path d="M628 61.4H625V51.5C625 50 624.8 48.9 624.3 48.3C623.8 47.7 623.1 47.3 622.1 47.3C621.3 47.3 620.6 47.5 619.9 47.9C619.3 48.3 618.6 48.9 617.8 49.7V61.4H614.9V45.2H617.3L617.5 47.5C618.3 46.8 619.1 46.1 619.9 45.6C620.8 45.1 621.8 44.8 622.9 44.8C624.6 44.8 625.9 45.3 626.7 46.4C627.5 47.5 627.9 49.1 627.9 51.1V61.4H628ZM625.2 61.2H627.7V51.1C627.7 49.1 627.3 47.5 626.5 46.5C625.7 45.5 624.5 45 622.9 45C621.8 45 620.8 45.3 620 45.8C619.2 46.3 618.4 47 617.6 47.7H617.4L617.2 45.4H615.1V61.2H617.6V49.6C618.4 48.8 619.2 48.2 619.8 47.7C620.5 47.3 621.2 47.1 622.1 47.1C623.2 47.1 624 47.5 624.5 48.1C625 48.8 625.2 49.9 625.2 51.4V61.2V61.2Z" fill="#012A4C"/>
<path d="M638 61.7C637.1 61.7 636.4 61.6 635.8 61.3C635.2 61 634.7 60.7 634.4 60.2C634 59.7 633.8 59.2 633.6 58.5C633.4 57.8 633.4 57.1 633.4 56.3V47.4H631V45.4L633.5 45.2L633.8 40.7H636.1V45.2H640.4V47.4H636.1V56.3C636.1 57.3 636.3 58.1 636.6 58.6C637 59.1 637.6 59.4 638.5 59.4C638.8 59.4 639.1 59.4 639.4 59.3C639.7 59.2 640 59.1 640.3 59L640.8 61C640.4 61.2 639.9 61.3 639.4 61.4C639.1 61.6 638.6 61.7 638 61.7Z" fill="#012A4C"/>
<path d="M638 61.8C637.1 61.8 636.4 61.7 635.8 61.4C635.2 61.1 634.7 60.8 634.3 60.3C633.9 59.8 633.7 59.2 633.5 58.6C633.3 57.9 633.3 57.2 633.3 56.4V47.6H631V45.4L633.5 45.2L633.8 40.7H636.3V45.2H640.6V47.6H636.3V56.4C636.3 57.4 636.5 58.1 636.8 58.6C637.1 59.1 637.8 59.4 638.6 59.4C638.9 59.4 639.2 59.4 639.5 59.3C639.8 59.2 640.1 59.1 640.4 59H640.5L641.1 61.2H641C640.6 61.4 640.1 61.5 639.6 61.6C639.1 61.7 638.6 61.8 638 61.8ZM631.2 47.4H633.6V56.4C633.6 57.2 633.7 57.9 633.8 58.6C633.9 59.2 634.2 59.8 634.6 60.2C634.9 60.6 635.4 61 636 61.3C636.6 61.6 637.3 61.7 638.1 61.7C638.6 61.7 639.1 61.6 639.6 61.5C640.1 61.4 640.5 61.3 640.9 61.1L640.4 59.3C640.2 59.4 639.9 59.5 639.6 59.6C639.3 59.7 638.9 59.7 638.7 59.7C637.7 59.7 637.1 59.4 636.7 58.8C636.3 58.2 636.1 57.5 636.1 56.5V47.5H640.4V45.5H636.1V41H634L633.7 45.5L631.2 45.7V47.4Z" fill="#012A4C"/>
<path d="M119 1.89999H68V18.9H119V1.89999Z" fill="#009FE3"/>
<path d="M119 44.4H34V61.4H119V44.4Z" fill="#A6DDF5"/>
<path d="M119.1 23.2H0V40.2H119.1V23.2Z" fill="#012A4C"/>
</svg>
