<?xml version="1.0" encoding="utf-8"?>
<!-- Generator: Adobe Illustrator 24.1.2, SVG Export Plug-In . SVG Version: 6.00 Build 0)  -->
<svg version="1.1" id="_x31__linje" xmlns="http://www.w3.org/2000/svg" xmlns:xlink="http://www.w3.org/1999/xlink" x="0px"
	 y="0px" viewBox="0 0 411 113.4" style="enable-background:new 0 0 411 113.4;" xml:space="preserve" width="137" height="38">
<style type="text/css">
	.st0{fill:#009FE3;}
	.st1{fill:#A6DDF5;}
	.st2{fill:#012A4C;}
	.st3{fill:#FFFFFF;}
</style>
<rect x="113.4" y="1.9" class="st3" width="85" height="28.3"/>
<polyline class="st3" points="198.5,72.8 56.7,72.8 56.7,101.1 198.5,101.1 198.5,72.8 "/>
<rect y="37.4" class="st3" width="198.4" height="28.3"/>
<g>
	<path class="st3" d="M265.9,27.9l0.5,11c-2.8-2.3-5.7-4.1-8.4-5.4c-2.9-1.4-6.4-2.1-10.3-2.1s-7.7,0.9-11.3,2.5
		c-3.5,1.7-6.7,4.1-9.4,7.2c-2.7,3.1-4.9,6.9-6.5,11.3s-2.5,9.4-2.5,14.9c0,11.3,2.6,20.2,7.7,26.4c5.1,6.2,12,9.3,20.6,9.3
		c4,0,7.8-1,11.3-2.9s6.6-4.2,9.3-6.7h0.1l1,7.9h10V1.5h-12.1L265.9,27.9L265.9,27.9z M265.9,48.5v35.2c-2.7,3.1-5.5,5.4-8.2,6.9
		s-5.7,2.3-8.8,2.3c-5.8,0-10.4-2.3-13.6-6.7c-3.2-4.5-4.8-10.9-4.8-19c0-3.9,0.5-7.4,1.5-10.5s2.4-5.8,4.1-8.1
		c1.7-2.2,3.8-4,6.1-5.2c2.3-1.2,4.8-1.9,7.5-1.9s5.5,0.5,8.1,1.6C260.3,44.2,263.1,46,265.9,48.5z"/>
	<path class="st3" d="M330.4,2.2c-1.6-0.7-3.4-1.2-5.3-1.6S321.1,0,319,0c-6.8,0-11.9,2-15.2,6.1c-3.2,4-4.9,9.6-4.9,16.6v10.5
		l-9.2,0.7V43h9.2v58.4h11.9V43h14.4v-9.8h-14.4V22.7c0-8.6,3-12.9,9.2-12.9c2.6,0,5.1,0.6,7.6,1.7l0.3,0.1l2.7-9.3L330.4,2.2z"/>
	<path class="st3" d="M385.9,43.3l7.6-9.1l-5.4-4.4l-7,8.5c-2.7-2.3-5.7-4-8.9-5.1c-3.4-1.2-6.9-1.8-10.4-1.8c-4.2,0-8.2,0.8-12,2.4
		s-7.2,4-10.1,7c-2.9,3.1-5.2,6.9-7,11.3c-1.7,4.4-2.6,9.5-2.6,15.2c0,5,0.7,9.6,2,13.5s3.1,7.3,5.4,10.3l-7.6,9.1l5.6,4.4l6.8-8.4
		c5.6,4.5,12.1,6.7,19.3,6.7c4.2,0,8.2-0.8,12-2.4s7.2-3.9,10.1-7c2.9-3,5.2-6.8,7-11.2c1.7-4.4,2.6-9.5,2.6-15.1
		c0-5-0.7-9.6-2-13.7C390,49.7,388.2,46.2,385.9,43.3z M361.8,41.2c5,0,9.3,1.8,12.6,5.3L345,82.1c-2-4.2-3-9.3-3-15.3
		c0-3.8,0.5-7.3,1.5-10.4c1-3.2,2.4-5.9,4.1-8.1s3.8-4,6.3-5.2C356.3,41.8,358.9,41.2,361.8,41.2z M361.8,93.4
		c-4.9,0-9.1-1.8-12.6-5.2l29.3-35.8c2.1,4.3,3.1,9.4,3.1,15.4c0,3.8-0.5,7.3-1.5,10.4s-2.4,5.8-4.1,8.1c-1.8,2.2-3.9,4-6.3,5.2
		C367.2,92.7,364.6,93.4,361.8,93.4z"/>
</g>
</svg>
