<svg xmlns="http://www.w3.org/2000/svg" xmlns:xlink="http://www.w3.org/1999/xlink" width="246.984" height="48.041" viewBox="0 0 246.984 48.041">
  <defs>
    <clipPath id="a" transform="translate(0.001 -0.957)">
      <rect width="246.983" height="48.998" style="fill: none"/>
    </clipPath>
  </defs>
  <title>logo-white</title>
  <g style="clip-path: url(#a)">
    <path d="M61.806,17.629H59.655V3.551h2.354c3.579,0,6.093.785,6.093,7.039,0,6.195-2.675,7.039-6.3,7.039M62.289,5.14H61.465v10.9h0.663c2.574,0,4.163-.6,4.163-5.451,0-4.987-1.589-5.45-4-5.45" transform="translate(0.001 -0.957)" style="fill: #fff"/>
    <path d="M72.425,5.361a1.207,1.207,0,1,1,1.187-1.205,1.192,1.192,0,0,1-1.187,1.205m-0.9,1.609h1.81V17.629h-1.81V6.97Z" transform="translate(0.001 -0.957)" style="fill: #fff"/>
    <path d="M82.058,8.86a4.568,4.568,0,0,0-1.307-.2,2.261,2.261,0,0,0-1.669.845v8.126h-1.81V6.97h1.387L78.92,8.378A2.489,2.489,0,0,1,81.172,6.77a4.884,4.884,0,0,1,.886.121V8.86Z" transform="translate(0.001 -0.957)" style="fill: #fff"/>
    <path d="M85.275,12.864c0.081,3.377,1.669,3.377,2.735,3.377a11.367,11.367,0,0,0,2.755-.523v1.609a9.1,9.1,0,0,1-2.755.5c-2.092,0-4.525-.422-4.525-5.53,0-4.485,1.991-5.531,4.022-5.531,1.81,0,3.821.764,3.821,5.027,0,0.323,0,.685-0.02,1.068H85.275Zm2.232-4.726c-1.307,0-2.133.643-2.213,3.479h4.244c0-3.017-.946-3.479-2.032-3.479" transform="translate(0.001 -0.957)" style="fill: #fff"/>
    <path d="M94.566,3.149h1.81V17.628h-1.81V3.149ZM100.5,17.83l-3.7-6.335L99.975,6.97h2.233l-3.56,4.484,3.963,6.174Z" transform="translate(0.001 -0.957)" style="fill: #fff"/>
    <path d="M109.75,17.468a7.6,7.6,0,0,1-2.213.362c-1.529,0-2.413-.583-2.413-2.674v-6.8h-1.81V6.971h1.81l0.08-2.413,1.73-.8V6.971h2.413l-0.2,1.387h-2.211v6.858c0,0.946.321,1.086,1,1.086a7.364,7.364,0,0,0,1.81-.362v1.527Z" transform="translate(0.001 -0.957)" style="fill: #fff"/>
    <path d="M115.441,17.829c-1.91,0-4.365-.643-4.365-5.53,0-4.787,2.474-5.531,4.365-5.531s4.365,0.624,4.365,5.531c0,4.966-2.455,5.53-4.365,5.53m0-9.673c-1.106,0-2.554.282-2.554,4.143,0,3.842,1.649,4.123,2.554,4.123S118,16.081,118,12.3c0-3.922-1.449-4.143-2.554-4.143" transform="translate(0.001 -0.957)" style="fill: #fff"/>
    <path d="M127.729,8.86a4.568,4.568,0,0,0-1.307-.2,2.261,2.261,0,0,0-1.669.845v8.126h-1.81V6.97h1.387l0.262,1.408a2.489,2.489,0,0,1,2.252-1.609,4.9,4.9,0,0,1,.886.121V8.86Z" transform="translate(0.001 -0.957)" style="fill: #fff"/>
    <path d="M134.746,17.629l-0.2-1.246a3.437,3.437,0,0,1-2.776,1.448c-1.306,0-3.116-.462-3.116-3.339,0-2.916,2.273-3.418,4.082-3.418h1.75V9.906c0-1.467-.785-1.609-2.011-1.609a13.044,13.044,0,0,0-2.916.542V7.313a10.717,10.717,0,0,1,3.2-.542c1.932,0,3.54.523,3.54,3.458v7.4h-1.548Zm-0.261-5.45-1.307.02c-1.649.021-2.714,0.382-2.714,2.131,0,1.791.8,2.032,1.71,2.032a3.6,3.6,0,0,0,2.312-1.127V12.179Z" transform="translate(0.001 -0.957)" style="fill: #fff"/>
    <path d="M145.043,17.468a7.589,7.589,0,0,1-2.213.362c-1.528,0-2.413-.583-2.413-2.674v-6.8h-1.81V6.971h1.81l0.08-2.413,1.73-.8V6.971h2.414l-0.2,1.387h-2.211v6.858c0,0.946.322,1.086,1,1.086a7.353,7.353,0,0,0,1.81-.362v1.527Z" transform="translate(0.001 -0.957)" style="fill: #fff"/>
    <path d="M148.261,12.864c0.081,3.377,1.669,3.377,2.736,3.377a11.369,11.369,0,0,0,2.754-.523v1.609a9.1,9.1,0,0,1-2.754.5c-2.093,0-4.526-.422-4.526-5.53,0-4.485,1.991-5.531,4.022-5.531,1.81,0,3.821.764,3.821,5.027,0,0.323,0,.685-0.02,1.068h-6.034Zm2.232-4.726c-1.307,0-2.133.643-2.213,3.479h4.244c0-3.017-.946-3.479-2.032-3.479" transform="translate(0.001 -0.957)" style="fill: #fff"/>
    <path d="M162.379,17.468a7.589,7.589,0,0,1-2.213.362c-1.528,0-2.413-.583-2.413-2.674v-6.8h-1.81V6.971h1.81l0.08-2.413,1.73-.8V6.971h2.414l-0.2,1.387h-2.211v6.858c0,0.946.322,1.086,1,1.086a7.353,7.353,0,0,0,1.81-.362v1.527Z" transform="translate(0.001 -0.957)" style="fill: #fff"/>
    <path d="M177.08,4.8a6.242,6.242,0,0,0-1.97-.362,1.281,1.281,0,0,0-1.45,1.448V6.97h2.414l-0.2,1.387H173.66v9.271h-1.809V8.358h-1.809V6.97h1.809V5.984c0-2.252,1.387-3.037,3.2-3.037a5.606,5.606,0,0,1,2.033.4V4.8Z" transform="translate(0.001 -0.957)" style="fill: #fff"/>
    <path d="M181.463,17.829c-1.91,0-4.364-.643-4.364-5.53,0-4.787,2.473-5.531,4.364-5.531s4.365,0.624,4.365,5.531c0,4.966-2.454,5.53-4.365,5.53m0-9.673c-1.106,0-2.554.282-2.554,4.143,0,3.842,1.649,4.123,2.554,4.123s2.556-.342,2.556-4.123c0-3.922-1.45-4.143-2.556-4.143" transform="translate(0.001 -0.957)" style="fill: #fff"/>
    <path d="M193.751,8.86a4.561,4.561,0,0,0-1.307-.2,2.261,2.261,0,0,0-1.669.845v8.126h-1.81V6.97h1.387l0.262,1.408a2.488,2.488,0,0,1,2.253-1.609,4.886,4.886,0,0,1,.884.121V8.86Z" transform="translate(0.001 -0.957)" style="fill: #fff"/>
    <path d="M65.525,43.591a7.409,7.409,0,0,1-2.561-.4L61.4,46.436H59.35l2.021-4.21c-1.2-1.111-2.021-3.045-2.021-6.461,0-6.772,3.5-7.824,6.175-7.824a7.386,7.386,0,0,1,2.561.4l1.566-3.246H71.7l-2.021,4.212c1.167,1.109,2.021,3.044,2.021,6.458,0,7.029-3.471,7.826-6.174,7.826m0-13.686c-1.566,0-3.615.4-3.615,5.86a9.53,9.53,0,0,0,.684,3.984l4.581-9.53a3.757,3.757,0,0,0-1.651-.314M68.513,31.7L63.9,41.228a3.324,3.324,0,0,0,1.622.37c1.28,0,3.613-.483,3.613-5.833a10.606,10.606,0,0,0-.626-4.068" transform="translate(0.001 -0.957)" style="fill: #fff"/>
    <path d="M75.686,22.82h2.561V43.306H75.686V22.82ZM84.08,43.591l-5.236-8.963,4.5-6.4H86.5l-5.038,6.345,5.606,8.736Z" transform="translate(0.001 -0.957)" style="fill: #fff"/>
    <path d="M94.355,43.591c-2.7,0-6.174-.911-6.174-7.826,0-6.772,3.5-7.824,6.174-7.824s6.174,0.882,6.174,7.824c0,7.029-3.471,7.826-6.174,7.826m0-13.686c-1.564,0-3.613.4-3.613,5.86,0,5.435,2.333,5.833,3.613,5.833s3.613-.483,3.613-5.833c0-5.547-2.049-5.86-3.613-5.86" transform="translate(0.001 -0.957)" style="fill: #fff"/>
    <path d="M113.622,43.306V32.323c0-2.021-1.28-2.077-2.419-2.077a7.677,7.677,0,0,0-4.126,1.508V43.306h-2.561V28.225h1.906l0.569,1.85a7.934,7.934,0,0,1,4.867-2.134c2.5,0,4.324,1.024,4.324,4.5V43.306h-2.561Z" transform="translate(0.001 -0.957)" style="fill: #fff"/>
    <path d="M126.316,43.591c-2.7,0-6.174-.911-6.174-7.826,0-6.772,3.5-7.824,6.174-7.824s6.174,0.882,6.174,7.824c0,7.029-3.471,7.826-6.174,7.826m0-13.686c-1.564,0-3.613.4-3.613,5.86,0,5.435,2.333,5.833,3.613,5.833s3.613-.483,3.613-5.833c0-5.547-2.049-5.86-3.613-5.86" transform="translate(0.001 -0.957)" style="fill: #fff"/>
    <path d="M152.98,43.306V32.323c0-1.821-.852-2.077-1.991-2.077a7.447,7.447,0,0,0-3.7,1.48v11.58h-2.561V32.323c0-1.821-.854-2.077-1.991-2.077a6.611,6.611,0,0,0-3.7,1.48v11.58h-2.561V28.225h1.906l0.568,1.821a7.114,7.114,0,0,1,4.44-2.106c1.764,0,3.328.769,3.615,2.248a7.2,7.2,0,0,1,4.638-2.248c2.39,0,3.9,1.024,3.9,4.5V43.306H152.98Z" transform="translate(0.001 -0.957)" style="fill: #fff"/>
    <path d="M161.949,25.949a1.708,1.708,0,1,1,1.679-1.707,1.688,1.688,0,0,1-1.679,1.707m-1.28,2.277h2.562V43.306h-2.562V28.226Z" transform="translate(0.001 -0.957)" style="fill: #fff"/>
    <path d="M170.6,43.591a11.452,11.452,0,0,1-3.329-.6V40.717a13.6,13.6,0,0,0,3.329.684c1.478,0,2.931-.342,2.931-2.22,0-1.623-.855-1.936-2.049-2.418l-1.478-.6a4.17,4.17,0,0,1-2.96-4.012c0-2.7,1.992-4.211,4.951-4.211a9.577,9.577,0,0,1,3.414.6v2.134a11.829,11.829,0,0,0-3.33-.6c-1.422,0-2.617.4-2.617,1.936a2.079,2.079,0,0,0,1.708,2.134l1.621,0.654c1.594,0.625,3.187,1.621,3.187,4.382,0,3.727-2.732,4.41-5.377,4.41" transform="translate(0.001 -0.957)" style="fill: #fff"/>
    <path d="M186.65,43.078a10.741,10.741,0,0,1-3.13.513c-2.162,0-3.414-.826-3.414-3.786V30.189h-2.562V28.226h2.562l0.114-3.415,2.445-1.138v4.553h3.415L185.8,30.189h-3.131v9.7c0,1.337.456,1.536,1.424,1.536a10.394,10.394,0,0,0,2.561-.512v2.162Z" transform="translate(0.001 -0.957)" style="fill: #fff"/>
    <path d="M194.534,45.013C193.481,48.57,191.774,49,190.152,49a9.516,9.516,0,0,1-2.618-.428V46.464a15.9,15.9,0,0,0,2.532.4c0.911,0,1.68-.514,2.192-2.818l0.17-.769-5.633-15.052h3.073l3.727,12.207,2.96-12.207h2.9Z" transform="translate(0.001 -0.957)" style="fill: #fff"/>
    <path d="M208.649,30.9a6.5,6.5,0,0,0-1.851-.284,3.191,3.191,0,0,0-2.36,1.2V43.305h-2.561V28.225h1.964l0.37,1.992a3.519,3.519,0,0,1,3.185-2.276,6.953,6.953,0,0,1,1.252.171V30.9Z" transform="translate(0.001 -0.957)" style="fill: #fff"/>
    <path d="M212.635,25.949a1.708,1.708,0,1,1,1.678-1.707,1.688,1.688,0,0,1-1.678,1.707m-1.28,2.277h2.561V43.306h-2.561V28.226Z" transform="translate(0.001 -0.957)" style="fill: #fff"/>
    <path d="M228.143,43.306V32.323c0-2.021-1.28-2.077-2.418-2.077a7.674,7.674,0,0,0-4.126,1.508V43.306h-2.561V28.225h1.906l0.568,1.85a7.938,7.938,0,0,1,4.867-2.134c2.5,0,4.324,1.024,4.324,4.5V43.306h-2.561Z" transform="translate(0.001 -0.957)" style="fill: #fff"/>
    <path d="M244.364,30.161a4.377,4.377,0,0,1,1.082,2.845c0,3.358-2.048,5.094-5.264,5.094a6.334,6.334,0,0,1-2.248-.4,2.407,2.407,0,0,0-.882,1.451c0,0.853.37,1,1.708,1.053l3.5,0.171c2.845,0.143,4.412,1,4.412,3.786,0,3.727-2.789,4.836-6.831,4.836-3.215,0-5.462-1.194-5.462-4.011a4.076,4.076,0,0,1,1.707-3.131,2.258,2.258,0,0,1-1.139-2.106c0-1.109.911-2.019,1.735-2.761a4.608,4.608,0,0,1-1.792-3.982c0-3.529,2.078-5.065,5.292-5.065,1.139,0,1.566.285,2.76,0.285h4.04v1.935h-2.618Zm-2.39,12.434-3.869-.228a4.529,4.529,0,0,1-.654-0.058,3.588,3.588,0,0,0-.769,2.107c0,1.621.94,2.787,3.158,2.787,3.274,0,4.44-1.023,4.44-2.816,0-1.422-.626-1.707-2.306-1.792M240.183,29.7c-2.048,0-2.816,1.109-2.816,3.3,0,1.992.938,3.329,2.816,3.329,1.964,0,2.818-1.337,2.818-3.329,0-2.019-.94-3.3-2.818-3.3" transform="translate(0.001 -0.957)" style="fill: #fff"/>
    <path d="M22.583,43.062a16.17,16.17,0,0,1-12.369-2.475L32.756,18.046A16.232,16.232,0,0,1,22.583,43.062M10.977,24.207A16.226,16.226,0,0,1,36.033,7.559L13.477,30.115a16.144,16.144,0,0,1-2.5-5.908M45.731,19.43a23.016,23.016,0,0,0-4.574-9.785l2.409-2.408c0.774-.774.961-2.577,0.419-4.024s-1.609-2-2.384-1.223l-4.05,4.05A23.1,23.1,0,0,0,5.078,38.514l-1.842,1.84c-0.774.775-.961,2.577-0.419,4.024s1.61,2,2.382,1.224l3.492-3.49A23.1,23.1,0,0,0,45.731,19.43" transform="translate(0.001 -0.957)" style="fill: #fff"/>
  </g>
</svg>
